AnekGujarati-CondensedExtraBold.ufo
<glyph name="four" format="2">
  <advance width="852"/>
  <unicode hex="0034"/>
  <outline>
    <contour>
      <point x="447" y="0" type="line"/>
      <point x="733" y="0" type="line"/>
      <point x="733" y="1278" type="line"/>
      <point x="235" y="1278" type="line"/>
      <point x="35" y="475" type="line"/>
      <point x="35" y="202" type="line"/>
      <point x="825" y="202" type="line"/>
      <point x="825" y="455" type="line"/>
      <point x="185" y="455" type="line"/>
      <point x="309" y="368" type="line"/>
      <point x="309" y="465" type="line"/>
      <point x="442" y="1066" type="line"/>
      <point x="459" y="1066" type="line"/>
      <point x="447" y="663" type="line"/>
    </contour>
  </outline>
</glyph>
<glyph name="at" format="2">
  <advance width="1360"/>
  <unicode hex="0040"/>
  <outline>
    <contour>
      <point x="531" y="63" type="curve" smooth="yes"/>
      <point x="647" y="63"/>
      <point x="687" y="143"/>
      <point x="709" y="237" type="curve"/>
      <point x="751" y="237" type="line"/>
      <point x="724" y="335" type="line"/>
      <point x="715" y="304"/>
      <point x="696" y="284"/>
      <point x="671" y="284" type="curve" smooth="yes"/>
      <point x="643" y="284"/>
      <point x="634" y="306"/>
      <point x="634" y="353" type="curve" smooth="yes"/>
      <point x="634" y="380"/>
      <point x="639" y="418"/>
      <point x="660" y="613" type="curve" smooth="yes"/>
      <point x="667" y="685"/>
      <point x="681" y="719"/>
      <point x="716" y="719" type="curve" smooth="yes"/>
      <point x="744" y="719"/>
      <point x="756" y="697"/>
      <point x="756" y="653" type="curve" smooth="yes"/>
      <point x="756" y="643"/>
      <point x="755" y="633"/>
      <point x="754" y="622" type="curve"/>
      <point x="815" y="763" type="line"/>
      <point x="759" y="763" type="line"/>
      <point x="752" y="861"/>
      <point x="723" y="933"/>
      <point x="622" y="933" type="curve" smooth="yes"/>
      <point x="478" y="933"/>
      <point x="417" y="814"/>
      <point x="393" y="581" type="curve" smooth="yes"/>
      <point x="372" y="378"/>
      <point x="367" y="344"/>
      <point x="367" y="294" type="curve" smooth="yes"/>
      <point x="367" y="143"/>
      <point x="414" y="63"/>
    </contour>
    <contour>
      <point x="698" y="74" type="line"/>
      <point x="939" y="76" type="line"/>
      <point x="1029" y="920" type="line"/>
      <point x="784" y="920" type="line"/>
      <point x="783" y="911" type="line"/>
      <point x="767" y="747" type="line"/>
      <point x="763" y="711" type="line"/>
      <point x="719" y="299" type="line"/>
      <point x="723" y="268" type="line"/>
    </contour>
    <contour>
      <point x="889" y="283" type="curve"/>
      <point x="698" y="74" type="line"/>
      <point x="754" y="64"/>
      <point x="847" y="58"/>
      <point x="911" y="61" type="curve" smooth="yes"/>
      <point x="1167" y="72"/>
      <point x="1280" y="152"/>
      <point x="1308" y="419" type="curve" smooth="yes"/>
      <point x="1322" y="554"/>
      <point x="1335" y="678"/>
      <point x="1339" y="746" type="curve" smooth="yes"/>
      <point x="1361" y="1124"/>
      <point x="1133" y="1330"/>
      <point x="744" y="1330" type="curve" smooth="yes"/>
      <point x="333" y="1330"/>
      <point x="119" y="1132"/>
      <point x="74" y="718" type="curve" smooth="yes"/>
      <point x="63" y="616"/>
      <point x="40" y="422"/>
      <point x="30" y="255" type="curve" smooth="yes"/>
      <point x="9" y="-113"/>
      <point x="241" y="-308"/>
      <point x="656" y="-308" type="curve" smooth="yes"/>
      <point x="855" y="-308"/>
      <point x="1010" y="-264"/>
      <point x="1087" y="-228" type="curve"/>
      <point x="1116" y="-22" type="line"/>
      <point x="1046" y="-54"/>
      <point x="872" y="-109"/>
      <point x="678" y="-109" type="curve" smooth="yes"/>
      <point x="366" y="-109"/>
      <point x="241" y="43"/>
      <point x="255" y="272" type="curve" smooth="yes"/>
      <point x="265" y="424"/>
      <point x="283" y="581"/>
      <point x="300" y="716" type="curve" smooth="yes"/>
      <point x="328" y="944"/>
      <point x="427" y="1131"/>
      <point x="732" y="1131" type="curve" smooth="yes"/>
      <point x="1024" y="1131"/>
      <point x="1128" y="968"/>
      <point x="1115" y="759" type="curve" smooth="yes"/>
      <point x="1110" y="681"/>
      <point x="1093" y="525"/>
      <point x="1081" y="424" type="curve" smooth="yes"/>
      <point x="1067" y="303"/>
      <point x="1026" y="273"/>
      <point x="955" y="273" type="curve" smooth="yes"/>
      <point x="929" y="273"/>
      <point x="920" y="275"/>
    </contour>
  </outline>
</glyph>
<glyph name="Doubledanda.gj" format="2">
  <advance width="882"/>
  <unicode hex="0965"/>
  <guideline x="1277" y="4641" angle="90"/>
  <guideline x="1713" y="4641" angle="90"/>
  <anchor x="643" y="-59" name="Bottom"/>
  <anchor x="620" y="1290" name="Top"/>
  <anchor x="661" y="1290" name="Top2"/>
  <outline>
    <contour>
      <point x="64" y="477" type="line"/>
      <point x="377" y="477" type="line"/>
      <point x="377" y="1227" type="line"/>
      <point x="64" y="1227" type="line"/>
    </contour>
    <contour>
      <point x="64" y="0" type="line"/>
      <point x="377" y="0" type="line"/>
      <point x="377" y="585" type="line"/>
      <point x="64" y="585" type="line"/>
    </contour>
    <contour>
      <point x="505" y="477" type="line"/>
      <point x="818" y="477" type="line"/>
      <point x="818" y="1227" type="line"/>
      <point x="505" y="1227" type="line"/>
    </contour>
    <contour>
      <point x="505" y="0" type="line"/>
      <point x="818" y="0" type="line"/>
      <point x="818" y="585" type="line"/>
      <point x="505" y="585" type="line"/>
    </contour>
  </outline>
</glyph>
<glyph name="Chandrabindu.gj" format="2">
  <unicode hex="0A81"/>
  <guideline x="784" y="1290" angle="0"/>
  <guideline x="206" y="1698" angle="180"/>
  <guideline x="294" y="1423" angle="90"/>
  <guideline x="607" y="1443" angle="90"/>
  <guideline x="113" y="1728" angle="90"/>
  <guideline x="450" y="1443" angle="90"/>
  <anchor x="450" y="1290" name="_Top2"/>
  <outline>
    <contour>
      <point x="450" y="1330" type="curve" smooth="yes"/>
      <point x="680" y="1330"/>
      <point x="799" y="1424"/>
      <point x="799" y="1636" type="curve" smooth="yes"/>
      <point x="799" y="1656"/>
      <point x="798" y="1676"/>
      <point x="794" y="1704" type="curve"/>
      <point x="604" y="1704" type="line"/>
      <point x="604" y="1667" type="line" smooth="yes"/>
      <point x="604" y="1558"/>
      <point x="560" y="1511"/>
      <point x="450" y="1511" type="curve" smooth="yes"/>
      <point x="340" y="1511"/>
      <point x="296" y="1558"/>
      <point x="296" y="1667" type="curve" smooth="yes"/>
      <point x="296" y="1704" type="line"/>
      <point x="106" y="1704" type="line"/>
      <point x="102" y="1676"/>
      <point x="101" y="1656"/>
      <point x="101" y="1636" type="curve" smooth="yes"/>
      <point x="101" y="1424"/>
      <point x="221" y="1330"/>
    </contour>
    <contour>
      <point x="450" y="1568" type="curve" smooth="yes"/>
      <point x="520" y="1568"/>
      <point x="546" y="1611"/>
      <point x="546" y="1685" type="curve" smooth="yes"/>
      <point x="546" y="1716" type="line" smooth="yes"/>
      <point x="546" y="1787"/>
      <point x="520" y="1833"/>
      <point x="450" y="1833" type="curve" smooth="yes"/>
      <point x="380" y="1833"/>
      <point x="354" y="1787"/>
      <point x="354" y="1716" type="curve" smooth="yes"/>
      <point x="354" y="1685" type="line" smooth="yes"/>
      <point x="354" y="1611"/>
      <point x="380" y="1568"/>
    </contour>
  </outline>
</glyph>
<glyph name="Bindu.gj" format="2">
  <unicode hex="0A82"/>
  <guideline x="257" y="1537" angle="90"/>
  <guideline x="414" y="1537" angle="90"/>
  <guideline x="595" y="1730" angle="0"/>
  <guideline x="101" y="1537" angle="90"/>
  <guideline x="287" y="1290" angle="0"/>
  <guideline x="257" y="1290" angle="0"/>
  <anchor x="257" y="1290" name="_Top2"/>
  <outline>
    <contour>
      <point x="257" y="1320" type="curve" smooth="yes"/>
      <point x="363" y="1320"/>
      <point x="414" y="1383"/>
      <point x="414" y="1489" type="curve" smooth="yes"/>
      <point x="414" y="1522" type="line" smooth="yes"/>
      <point x="414" y="1626"/>
      <point x="363" y="1690"/>
      <point x="257" y="1690" type="curve" smooth="yes"/>
      <point x="152" y="1690"/>
      <point x="100" y="1626"/>
      <point x="100" y="1522" type="curve" smooth="yes"/>
      <point x="100" y="1489" type="line" smooth="yes"/>
      <point x="100" y="1383"/>
      <point x="152" y="1320"/>
    </contour>
  </outline>
</glyph>
<glyph name="Visarga.gj" format="2">
  <advance width="422"/>
  <unicode hex="0A83"/>
  <anchor x="211" y="94" name="_Top2"/>
  <outline>
    <contour>
      <point x="211" y="124" type="curve" smooth="yes"/>
      <point x="317" y="124"/>
      <point x="368" y="187"/>
      <point x="368" y="293" type="curve" smooth="yes"/>
      <point x="368" y="326" type="line" smooth="yes"/>
      <point x="368" y="430"/>
      <point x="317" y="494"/>
      <point x="211" y="494" type="curve" smooth="yes"/>
      <point x="106" y="494"/>
      <point x="54" y="430"/>
      <point x="54" y="326" type="curve" smooth="yes"/>
      <point x="54" y="293" type="line" smooth="yes"/>
      <point x="54" y="187"/>
      <point x="106" y="124"/>
    </contour>
    <contour>
      <point x="211" y="683" type="curve" smooth="yes"/>
      <point x="317" y="683"/>
      <point x="368" y="746"/>
      <point x="368" y="852" type="curve" smooth="yes"/>
      <point x="368" y="885" type="line" smooth="yes"/>
      <point x="368" y="989"/>
      <point x="317" y="1053"/>
      <point x="211" y="1053" type="curve" smooth="yes"/>
      <point x="106" y="1053"/>
      <point x="54" y="989"/>
      <point x="54" y="885" type="curve" smooth="yes"/>
      <point x="54" y="852" type="line" smooth="yes"/>
      <point x="54" y="746"/>
      <point x="106" y="683"/>
    </contour>
  </outline>
</glyph>
<glyph name="VowelI.gj" format="2">
  <advance width="973"/>
  <unicode hex="0A87"/>
  <anchor x="282" y="1290" name="Top2"/>
  <outline>
    <contour>
      <point x="600" y="563" type="line"/>
      <point x="913" y="563" type="line"/>
      <point x="913" y="1618" type="line"/>
      <point x="600" y="1589" type="line"/>
    </contour>
    <contour>
      <point x="480" y="-22" type="curve" smooth="yes"/>
      <point x="769" y="-22"/>
      <point x="913" y="114"/>
      <point x="913" y="398" type="curve" smooth="yes"/>
      <point x="913" y="607" type="line"/>
      <point x="600" y="607" type="line"/>
      <point x="600" y="393" type="line" smooth="yes"/>
      <point x="600" y="295"/>
      <point x="565" y="246"/>
      <point x="480" y="246" type="curve" smooth="yes"/>
      <point x="401" y="246"/>
      <point x="366" y="291"/>
      <point x="366" y="373" type="curve" smooth="yes"/>
      <point x="366" y="385" type="line" smooth="yes"/>
      <point x="366" y="456"/>
      <point x="397" y="496"/>
      <point x="458" y="500" type="curve" smooth="yes"/>
      <point x="515" y="504" type="line"/>
      <point x="515" y="762" type="line"/>
      <point x="458" y="765" type="line" smooth="yes"/>
      <point x="392" y="768"/>
      <point x="362" y="808"/>
      <point x="362" y="872" type="curve" smooth="yes"/>
      <point x="362" y="888" type="line" smooth="yes"/>
      <point x="362" y="953"/>
      <point x="394" y="988"/>
      <point x="455" y="988" type="curve" smooth="yes"/>
      <point x="480" y="988"/>
      <point x="505" y="983"/>
      <point x="521" y="977" type="curve"/>
      <point x="502" y="1235" type="line"/>
      <point x="475" y="1244"/>
      <point x="434" y="1253"/>
      <point x="388" y="1253" type="curve" smooth="yes"/>
      <point x="170" y="1253"/>
      <point x="46" y="1152"/>
      <point x="46" y="934" type="curve" smooth="yes"/>
      <point x="46" y="907" type="line" smooth="yes"/>
      <point x="46" y="745"/>
      <point x="107" y="655"/>
      <point x="243" y="635" type="curve"/>
      <point x="243" y="627" type="line"/>
      <point x="107" y="602"/>
      <point x="50" y="500"/>
      <point x="50" y="353" type="curve" smooth="yes"/>
      <point x="50" y="343" type="line" smooth="yes"/>
      <point x="50" y="124"/>
      <point x="180" y="-22"/>
    </contour>
  </outline>
</glyph>
<glyph name="VowelIi.gj" format="2">
  <advance width="973"/>
  <unicode hex="0A88"/>
  <guideline x="1600" y="5289" angle="0"/>
  <guideline x="419" y="1648" angle="0"/>
  <guideline x="419" y="1648" angle="0"/>
  <anchor x="282" y="1290" name="Top2"/>
  <outline>
    <contour>
      <point x="600" y="526" type="line"/>
      <point x="913" y="526" type="line"/>
      <point x="913" y="1310" type="line" smooth="yes"/>
      <point x="913" y="1365"/>
      <point x="929" y="1387"/>
      <point x="968" y="1387" type="curve" smooth="yes"/>
      <point x="983" y="1387"/>
      <point x="994" y="1385"/>
      <point x="1008" y="1381" type="curve"/>
      <point x="990" y="1633" type="line"/>
      <point x="959" y="1643"/>
      <point x="924" y="1648"/>
      <point x="879" y="1648" type="curve" smooth="yes"/>
      <point x="692" y="1648"/>
      <point x="600" y="1540"/>
      <point x="600" y="1315" type="curve" smooth="yes"/>
    </contour>
    <contour>
      <point x="480" y="-22" type="curve" smooth="yes"/>
      <point x="769" y="-22"/>
      <point x="913" y="114"/>
      <point x="913" y="398" type="curve" smooth="yes"/>
      <point x="913" y="607" type="line"/>
      <point x="600" y="607" type="line"/>
      <point x="600" y="393" type="line" smooth="yes"/>
      <point x="600" y="295"/>
      <point x="565" y="246"/>
      <point x="480" y="246" type="curve" smooth="yes"/>
      <point x="401" y="246"/>
      <point x="366" y="291"/>
      <point x="366" y="373" type="curve" smooth="yes"/>
      <point x="366" y="385" type="line" smooth="yes"/>
      <point x="366" y="456"/>
      <point x="397" y="496"/>
      <point x="458" y="500" type="curve" smooth="yes"/>
      <point x="515" y="504" type="line"/>
      <point x="515" y="762" type="line"/>
      <point x="458" y="765" type="line" smooth="yes"/>
      <point x="392" y="768"/>
      <point x="362" y="808"/>
      <point x="362" y="872" type="curve" smooth="yes"/>
      <point x="362" y="888" type="line" smooth="yes"/>
      <point x="362" y="953"/>
      <point x="394" y="988"/>
      <point x="455" y="988" type="curve" smooth="yes"/>
      <point x="480" y="988"/>
      <point x="505" y="983"/>
      <point x="521" y="977" type="curve"/>
      <point x="502" y="1235" type="line"/>
      <point x="475" y="1244"/>
      <point x="434" y="1253"/>
      <point x="388" y="1253" type="curve" smooth="yes"/>
      <point x="170" y="1253"/>
      <point x="46" y="1152"/>
      <point x="46" y="934" type="curve" smooth="yes"/>
      <point x="46" y="907" type="line" smooth="yes"/>
      <point x="46" y="745"/>
      <point x="107" y="655"/>
      <point x="243" y="635" type="curve"/>
      <point x="243" y="627" type="line"/>
      <point x="107" y="602"/>
      <point x="50" y="500"/>
      <point x="50" y="353" type="curve" smooth="yes"/>
      <point x="50" y="343" type="line" smooth="yes"/>
      <point x="50" y="124"/>
      <point x="180" y="-22"/>
    </contour>
  </outline>
</glyph>
<glyph name="VowelUu.gj" format="2">
  <advance width="1396"/>
  <unicode hex="0A8A"/>
  <anchor x="675" y="1692" name="Top2"/>
  <outline>
    <contour>
      <point x="1019" y="0" type="line"/>
      <point x="1332" y="0" type="line"/>
      <point x="1332" y="1007" type="line" smooth="yes"/>
      <point x="1332" y="1442"/>
      <point x="1066" y="1648"/>
      <point x="699" y="1648" type="curve" smooth="yes"/>
      <point x="313" y="1648"/>
      <point x="60" y="1442"/>
      <point x="60" y="1007" type="curve" smooth="yes"/>
      <point x="60" y="689" type="line"/>
      <point x="373" y="689" type="line"/>
      <point x="373" y="1016" type="line" smooth="yes"/>
      <point x="373" y="1263"/>
      <point x="476" y="1386"/>
      <point x="699" y="1386" type="curve" smooth="yes"/>
      <point x="907" y="1386"/>
      <point x="1019" y="1263"/>
      <point x="1019" y="1016" type="curve" smooth="yes"/>
    </contour>
    <contour>
      <point x="500" y="-22" type="curve" smooth="yes"/>
      <point x="801" y="-22"/>
      <point x="933" y="124"/>
      <point x="933" y="343" type="curve" smooth="yes"/>
      <point x="933" y="353" type="line" smooth="yes"/>
      <point x="933" y="500"/>
      <point x="876" y="602"/>
      <point x="740" y="627" type="curve"/>
      <point x="740" y="635" type="line"/>
      <point x="870" y="655"/>
      <point x="929" y="745"/>
      <point x="929" y="907" type="curve" smooth="yes"/>
      <point x="929" y="934" type="line" smooth="yes"/>
      <point x="929" y="1152"/>
      <point x="817" y="1253"/>
      <point x="617" y="1253" type="curve" smooth="yes"/>
      <point x="560" y="1253"/>
      <point x="508" y="1242"/>
      <point x="475" y="1231" type="curve"/>
      <point x="457" y="976" type="line"/>
      <point x="475" y="984"/>
      <point x="503" y="991"/>
      <point x="532" y="991" type="curve" smooth="yes"/>
      <point x="585" y="991"/>
      <point x="613" y="956"/>
      <point x="613" y="892" type="curve" smooth="yes"/>
      <point x="613" y="872" type="line" smooth="yes"/>
      <point x="613" y="808"/>
      <point x="585" y="768"/>
      <point x="524" y="765" type="curve" smooth="yes"/>
      <point x="463" y="762" type="line"/>
      <point x="463" y="504" type="line"/>
      <point x="524" y="500" type="line" smooth="yes"/>
      <point x="585" y="496"/>
      <point x="616" y="456"/>
      <point x="616" y="385" type="curve" smooth="yes"/>
      <point x="616" y="373" type="line" smooth="yes"/>
      <point x="616" y="291"/>
      <point x="581" y="246"/>
      <point x="502" y="246" type="curve" smooth="yes"/>
      <point x="411" y="246"/>
      <point x="373" y="308"/>
      <point x="373" y="444" type="curve" smooth="yes"/>
      <point x="373" y="755" type="line"/>
      <point x="60" y="755" type="line"/>
      <point x="60" y="444" type="line" smooth="yes"/>
      <point x="60" y="126"/>
      <point x="205" y="-22"/>
    </contour>
  </outline>
</glyph>
<glyph name="VowelRu.gj" format="2">
  <advance width="1456"/>
  <unicode hex="0A8B"/>
  <anchor x="726" y="-59" name="Bottom"/>
  <anchor x="703" y="1290" name="Top"/>
  <anchor x="744" y="1290" name="Top2"/>
  <outline>
    <contour>
      <point x="1129" y="75" type="curve" smooth="yes"/>
      <point x="1328" y="75"/>
      <point x="1420" y="169"/>
      <point x="1420" y="375" type="curve" smooth="yes"/>
      <point x="1420" y="464" type="line" smooth="yes"/>
      <point x="1420" y="579"/>
      <point x="1387" y="662"/>
      <point x="1293" y="718" type="curve"/>
      <point x="1076" y="627" type="line"/>
      <point x="1124" y="587"/>
      <point x="1135" y="552"/>
      <point x="1135" y="488" type="curve" smooth="yes"/>
      <point x="1135" y="442" type="line" smooth="yes"/>
      <point x="1135" y="374"/>
      <point x="1108" y="340"/>
      <point x="1045" y="340" type="curve" smooth="yes"/>
      <point x="1029" y="340"/>
      <point x="1011" y="344"/>
      <point x="992" y="350" type="curve"/>
      <point x="1009" y="103" type="line"/>
      <point x="1041" y="86"/>
      <point x="1090" y="75"/>
    </contour>
    <contour>
      <point x="152" y="421" type="curve"/>
      <point x="424" y="515" type="line"/>
      <point x="412" y="554" type="line"/>
      <point x="467" y="588"/>
      <point x="493" y="643"/>
      <point x="493" y="721" type="curve" smooth="yes"/>
      <point x="493" y="814" type="line" smooth="yes"/>
      <point x="493" y="1016"/>
      <point x="403" y="1107"/>
      <point x="211" y="1107" type="curve" smooth="yes"/>
      <point x="157" y="1107"/>
      <point x="94" y="1092"/>
      <point x="58" y="1074" type="curve"/>
      <point x="39" y="823" type="line"/>
      <point x="63" y="834"/>
      <point x="94" y="842"/>
      <point x="116" y="842" type="curve" smooth="yes"/>
      <point x="172" y="842"/>
      <point x="193" y="814"/>
      <point x="193" y="720" type="curve" smooth="yes"/>
      <point x="193" y="602" type="line" smooth="yes"/>
      <point x="193" y="500"/>
      <point x="182" y="456"/>
    </contour>
    <contour>
      <point x="38" y="80" type="line"/>
      <point x="666" y="382" type="line"/>
      <point x="666" y="672" type="line"/>
      <point x="548" y="618" type="line" smooth="yes"/>
      <point x="467" y="581"/>
      <point x="408" y="545"/>
      <point x="351" y="506" type="curve"/>
      <point x="323" y="510" type="line"/>
      <point x="38" y="373" type="line"/>
    </contour>
    <contour>
      <point x="811" y="448" type="line"/>
      <point x="1273" y="674" type="line"/>
      <point x="1160" y="897" type="line"/>
      <point x="811" y="727" type="line"/>
    </contour>
    <contour>
      <point x="1054" y="667" type="line"/>
      <point x="1302" y="711" type="line"/>
      <point x="1374" y="820" type="line"/>
      <point x="1361" y="926"/>
      <point x="1330" y="1035"/>
      <point x="1289" y="1105" type="curve"/>
      <point x="1054" y="1105" type="line"/>
    </contour>
    <contour>
      <point x="588" y="477" type="line"/>
      <point x="901" y="477" type="line"/>
      <point x="901" y="1227" type="line"/>
      <point x="588" y="1227" type="line"/>
    </contour>
    <contour>
      <point x="588" y="0" type="line"/>
      <point x="901" y="0" type="line"/>
      <point x="901" y="585" type="line"/>
      <point x="588" y="585" type="line"/>
    </contour>
  </outline>
</glyph>
<glyph name="VowelO.gj" format="2">
  <advance width="1824"/>
  <unicode hex="0A93"/>
  <anchor x="1585" y="-59" name="Bottom"/>
  <anchor x="1562" y="1290" name="Top"/>
  <anchor x="1603" y="1290" name="Top2"/>
  <anchor x="1638" y="1558" name="Top3"/>
  <outline>
    <contour>
      <point x="519" y="66" type="curve" smooth="yes"/>
      <point x="763" y="66"/>
      <point x="892" y="193"/>
      <point x="892" y="456" type="curve" smooth="yes"/>
      <point x="892" y="1027" type="line"/>
      <point x="599" y="1027" type="line"/>
      <point x="599" y="462" type="line" smooth="yes"/>
      <point x="599" y="372"/>
      <point x="568" y="337"/>
      <point x="515" y="337" type="curve" smooth="yes"/>
      <point x="465" y="337"/>
      <point x="429" y="368"/>
      <point x="426" y="458" type="curve" smooth="yes"/>
      <point x="423" y="556" type="line"/>
      <point x="144" y="504" type="line"/>
      <point x="147" y="418" type="line" smooth="yes"/>
      <point x="156" y="174"/>
      <point x="295" y="66"/>
    </contour>
    <contour>
      <point x="253" y="403" type="line"/>
      <point x="242" y="484" type="line"/>
      <point x="255" y="484" type="line"/>
      <point x="430" y="484"/>
      <point x="517" y="588"/>
      <point x="517" y="804" type="curve" smooth="yes"/>
      <point x="517" y="912" type="line" smooth="yes"/>
      <point x="517" y="1146"/>
      <point x="419" y="1253"/>
      <point x="226" y="1253" type="curve" smooth="yes"/>
      <point x="167" y="1253"/>
      <point x="112" y="1238"/>
      <point x="69" y="1214" type="curve"/>
      <point x="51" y="964" type="line"/>
      <point x="79" y="979"/>
      <point x="104" y="988"/>
      <point x="137" y="988" type="curve" smooth="yes"/>
      <point x="191" y="988"/>
      <point x="218" y="955"/>
      <point x="218" y="883" type="curve" smooth="yes"/>
      <point x="218" y="820" type="line" smooth="yes"/>
      <point x="218" y="738"/>
      <point x="187" y="701"/>
      <point x="115" y="697" type="curve" smooth="yes"/>
      <point x="38" y="693" type="line"/>
      <point x="38" y="443" type="line"/>
    </contour>
    <contour>
      <point x="1006" y="477" type="line"/>
      <point x="1319" y="477" type="line"/>
      <point x="1319" y="1227" type="line"/>
      <point x="1006" y="1227" type="line"/>
    </contour>
    <contour>
      <point x="1006" y="0" type="line"/>
      <point x="1319" y="0" type="line"/>
      <point x="1319" y="585" type="line"/>
      <point x="1006" y="585" type="line"/>
    </contour>
    <contour>
      <point x="743" y="500" type="line"/>
      <point x="1060" y="500" type="line"/>
      <point x="1042" y="761" type="line"/>
      <point x="743" y="761" type="line"/>
    </contour>
    <contour>
      <point x="1447" y="477" type="line"/>
      <point x="1760" y="477" type="line"/>
      <point x="1760" y="1227" type="line"/>
      <point x="1447" y="1227" type="line"/>
    </contour>
    <contour>
      <point x="1447" y="0" type="line"/>
      <point x="1760" y="0" type="line"/>
      <point x="1760" y="585" type="line"/>
      <point x="1447" y="585" type="line"/>
    </contour>
    <contour>
      <point x="1562" y="1290" type="curve"/>
      <point x="1671" y="1455" type="line"/>
      <point x="1492" y="1586"/>
      <point x="1314" y="1717"/>
      <point x="1135" y="1849" type="curve"/>
      <point x="972" y="1580" type="line"/>
      <point x="1169" y="1483"/>
      <point x="1365" y="1386"/>
    </contour>
  </outline>
</glyph>
<glyph name="Ka.gj" format="2">
  <advance width="805"/>
  <unicode hex="0A95"/>
  <guideline x="-1601" y="878" angle="0"/>
  <guideline x="0" y="1042" angle="90"/>
  <guideline x="76" y="1227" angle="0"/>
  <guideline x="410" y="149" angle="90"/>
  <guideline x="76" y="1253" angle="0"/>
  <anchor x="410" y="-59" name="Bottom"/>
  <anchor x="460" y="1290" name="Top"/>
  <anchor x="395" y="1290" name="Top2"/>
  <outline>
    <contour>
      <point x="369" y="662" type="curve"/>
      <point x="513" y="756" type="line"/>
      <point x="403" y="772"/>
      <point x="372" y="820"/>
      <point x="372" y="873" type="curve" smooth="yes"/>
      <point x="372" y="878" type="line" smooth="yes"/>
      <point x="372" y="947"/>
      <point x="416" y="984"/>
      <point x="506" y="984" type="curve" smooth="yes"/>
      <point x="565" y="984"/>
      <point x="616" y="968"/>
      <point x="666" y="949" type="curve"/>
      <point x="648" y="1203" type="line"/>
      <point x="603" y="1228"/>
      <point x="518" y="1253"/>
      <point x="426" y="1253" type="curve" smooth="yes"/>
      <point x="182" y="1253"/>
      <point x="54" y="1143"/>
      <point x="54" y="943" type="curve" smooth="yes"/>
      <point x="54" y="936" type="line" smooth="yes"/>
      <point x="54" y="778"/>
      <point x="165" y="668"/>
    </contour>
    <contour>
      <point x="341" y="-22" type="curve" smooth="yes"/>
      <point x="605" y="-22"/>
      <point x="744" y="90"/>
      <point x="744" y="310" type="curve" smooth="yes"/>
      <point x="744" y="323" type="line" smooth="yes"/>
      <point x="744" y="499"/>
      <point x="651" y="593"/>
      <point x="477" y="592" type="curve"/>
      <point x="279" y="516" type="line"/>
      <point x="405" y="492"/>
      <point x="426" y="447"/>
      <point x="426" y="375" type="curve" smooth="yes"/>
      <point x="426" y="369" type="line" smooth="yes"/>
      <point x="426" y="291"/>
      <point x="372" y="251"/>
      <point x="270" y="251" type="curve" smooth="yes"/>
      <point x="193" y="251"/>
      <point x="123" y="269"/>
      <point x="59" y="295" type="curve"/>
      <point x="77" y="32" type="line"/>
      <point x="146" y="2"/>
      <point x="231" y="-22"/>
    </contour>
    <contour>
      <point x="33" y="351" type="line"/>
      <point x="432" y="497" type="line"/>
      <point x="413" y="747" type="line"/>
      <point x="33" y="644" type="line"/>
    </contour>
    <contour>
      <point x="361" y="758" type="line"/>
      <point x="419" y="510" type="line"/>
      <point x="782" y="619" type="line"/>
      <point x="782" y="913" type="line"/>
    </contour>
  </outline>
</glyph>
<glyph name="Gha.gj" format="2">
  <advance width="986"/>
  <unicode hex="0A98"/>
  <anchor x="747" y="-59" name="Bottom"/>
  <anchor x="724" y="1290" name="Top"/>
  <anchor x="765" y="1290" name="Top2"/>
  <outline>
    <contour>
      <point x="357" y="79" type="curve" smooth="yes"/>
      <point x="508" y="79"/>
      <point x="579" y="150"/>
      <point x="598" y="256" type="curve"/>
      <point x="633" y="256" type="line"/>
      <point x="613" y="455" type="line"/>
      <point x="602" y="387"/>
      <point x="558" y="352"/>
      <point x="482" y="352" type="curve" smooth="yes"/>
      <point x="398" y="352"/>
      <point x="361" y="386"/>
      <point x="361" y="447" type="curve" smooth="yes"/>
      <point x="361" y="451" type="line" smooth="yes"/>
      <point x="361" y="508"/>
      <point x="396" y="538"/>
      <point x="462" y="543" type="curve" smooth="yes"/>
      <point x="503" y="546" type="line"/>
      <point x="503" y="804" type="line"/>
      <point x="462" y="808" type="line" smooth="yes"/>
      <point x="391" y="815"/>
      <point x="358" y="846"/>
      <point x="358" y="901" type="curve" smooth="yes"/>
      <point x="358" y="903" type="line" smooth="yes"/>
      <point x="358" y="957"/>
      <point x="390" y="988"/>
      <point x="447" y="988" type="curve" smooth="yes"/>
      <point x="473" y="988"/>
      <point x="495" y="980"/>
      <point x="516" y="971" type="curve"/>
      <point x="497" y="1223" type="line"/>
      <point x="460" y="1240"/>
      <point x="412" y="1253"/>
      <point x="352" y="1253" type="curve" smooth="yes"/>
      <point x="152" y="1253"/>
      <point x="40" y="1157"/>
      <point x="40" y="955" type="curve" smooth="yes"/>
      <point x="40" y="942" type="line" smooth="yes"/>
      <point x="40" y="786"/>
      <point x="102" y="695"/>
      <point x="240" y="677" type="curve"/>
      <point x="240" y="670" type="line"/>
      <point x="102" y="646"/>
      <point x="43" y="550"/>
      <point x="43" y="406" type="curve" smooth="yes"/>
      <point x="43" y="392" type="line" smooth="yes"/>
      <point x="43" y="204"/>
      <point x="137" y="79"/>
    </contour>
    <contour>
      <point x="609" y="477" type="line"/>
      <point x="922" y="477" type="line"/>
      <point x="922" y="1227" type="line"/>
      <point x="609" y="1227" type="line"/>
    </contour>
    <contour>
      <point x="609" y="0" type="line"/>
      <point x="922" y="0" type="line"/>
      <point x="922" y="585" type="line"/>
      <point x="609" y="585" type="line"/>
    </contour>
  </outline>
</glyph>
<glyph name="Nga.gj" format="2">
  <advance width="995"/>
  <unicode hex="0A99"/>
  <anchor x="367" y="-59" name="Bottom"/>
  <anchor x="446" y="1290" name="Top"/>
  <anchor x="360" y="1290" name="Top2"/>
  <outline>
    <contour>
      <point x="825" y="558" type="curve" smooth="yes"/>
      <point x="934" y="558"/>
      <point x="985" y="620"/>
      <point x="985" y="736" type="curve" smooth="yes"/>
      <point x="985" y="780" type="line" smooth="yes"/>
      <point x="985" y="896"/>
      <point x="934" y="960"/>
      <point x="825" y="960" type="curve" smooth="yes"/>
      <point x="718" y="960"/>
      <point x="663" y="898"/>
      <point x="663" y="780" type="curve" smooth="yes"/>
      <point x="663" y="736" type="line" smooth="yes"/>
      <point x="663" y="620"/>
      <point x="717" y="558"/>
    </contour>
    <contour>
      <point x="289" y="-22" type="curve" smooth="yes"/>
      <point x="553" y="-22"/>
      <point x="685" y="98"/>
      <point x="685" y="339" type="curve" smooth="yes"/>
      <point x="685" y="366" type="line" smooth="yes"/>
      <point x="685" y="550"/>
      <point x="621" y="630"/>
      <point x="499" y="714" type="curve" smooth="yes"/>
      <point x="442" y="753" type="line" smooth="yes"/>
      <point x="379" y="796"/>
      <point x="351" y="828"/>
      <point x="351" y="877" type="curve" smooth="yes"/>
      <point x="351" y="888" type="line" smooth="yes"/>
      <point x="351" y="955"/>
      <point x="389" y="984"/>
      <point x="479" y="984" type="curve" smooth="yes"/>
      <point x="534" y="984"/>
      <point x="583" y="966"/>
      <point x="629" y="945" type="curve"/>
      <point x="611" y="1199" type="line"/>
      <point x="567" y="1226"/>
      <point x="486" y="1253"/>
      <point x="397" y="1253" type="curve" smooth="yes"/>
      <point x="152" y="1253"/>
      <point x="33" y="1133"/>
      <point x="33" y="913" type="curve" smooth="yes"/>
      <point x="33" y="886" type="line" smooth="yes"/>
      <point x="33" y="747"/>
      <point x="89" y="653"/>
      <point x="238" y="547" type="curve" smooth="yes"/>
      <point x="287" y="512" type="line" smooth="yes"/>
      <point x="344" y="471"/>
      <point x="367" y="437"/>
      <point x="367" y="381" type="curve" smooth="yes"/>
      <point x="367" y="368" type="line" smooth="yes"/>
      <point x="367" y="298"/>
      <point x="321" y="251"/>
      <point x="233" y="251" type="curve" smooth="yes"/>
      <point x="156" y="251"/>
      <point x="95" y="282"/>
      <point x="38" y="313" type="curve"/>
      <point x="56" y="37" type="line"/>
      <point x="112" y="6"/>
      <point x="196" y="-22"/>
    </contour>
  </outline>
</glyph>
<glyph name="Cha.gj" format="2">
  <advance width="1233"/>
  <unicode hex="0A9B"/>
  <guideline x="582" y="149" angle="90"/>
  <anchor x="582" y="-59" name="Bottom"/>
  <anchor x="925" y="1290" name="Top"/>
  <anchor x="865" y="1290" name="Top2"/>
  <outline>
    <contour>
      <point x="582" y="-22" type="curve" smooth="yes"/>
      <point x="978" y="-22"/>
      <point x="1183" y="180"/>
      <point x="1183" y="572" type="curve" smooth="yes"/>
      <point x="1183" y="658" type="line"/>
      <point x="898" y="658" type="line"/>
      <point x="898" y="563" type="line" smooth="yes"/>
      <point x="898" y="357"/>
      <point x="789" y="251"/>
      <point x="582" y="251" type="curve" smooth="yes"/>
      <point x="430" y="251"/>
      <point x="364" y="300"/>
      <point x="364" y="390" type="curve" smooth="yes"/>
      <point x="364" y="397" type="line" smooth="yes"/>
      <point x="364" y="464"/>
      <point x="395" y="499"/>
      <point x="455" y="504" type="curve" smooth="yes"/>
      <point x="492" y="508" type="line"/>
      <point x="492" y="765" type="line"/>
      <point x="455" y="769" type="line" smooth="yes"/>
      <point x="393" y="775"/>
      <point x="367" y="811"/>
      <point x="367" y="876" type="curve" smooth="yes"/>
      <point x="367" y="888" type="line" smooth="yes"/>
      <point x="367" y="953"/>
      <point x="393" y="988"/>
      <point x="444" y="988" type="curve" smooth="yes"/>
      <point x="468" y="988"/>
      <point x="488" y="980"/>
      <point x="507" y="971" type="curve"/>
      <point x="488" y="1223" type="line"/>
      <point x="453" y="1240"/>
      <point x="407" y="1253"/>
      <point x="348" y="1253" type="curve" smooth="yes"/>
      <point x="156" y="1253"/>
      <point x="49" y="1152"/>
      <point x="49" y="934" type="curve" smooth="yes"/>
      <point x="49" y="911" type="line" smooth="yes"/>
      <point x="49" y="749"/>
      <point x="106" y="659"/>
      <point x="239" y="638" type="curve"/>
      <point x="239" y="631" type="line"/>
      <point x="103" y="607"/>
      <point x="46" y="510"/>
      <point x="46" y="366" type="curve" smooth="yes"/>
      <point x="46" y="353" type="line" smooth="yes"/>
      <point x="46" y="128"/>
      <point x="208" y="-22"/>
    </contour>
    <contour>
      <point x="738" y="415" type="curve" smooth="yes"/>
      <point x="826" y="415"/>
      <point x="872" y="474"/>
      <point x="891" y="579" type="curve"/>
      <point x="909" y="579" type="line"/>
      <point x="913" y="706" type="line"/>
      <point x="906" y="678"/>
      <point x="890" y="660"/>
      <point x="863" y="660" type="curve" smooth="yes"/>
      <point x="833" y="660"/>
      <point x="823" y="680"/>
      <point x="823" y="726" type="curve" smooth="yes"/>
      <point x="823" y="936" type="line" smooth="yes"/>
      <point x="823" y="980"/>
      <point x="835" y="1002"/>
      <point x="863" y="1002" type="curve" smooth="yes"/>
      <point x="894" y="1002"/>
      <point x="904" y="980"/>
      <point x="904" y="936" type="curve" smooth="yes"/>
      <point x="904" y="645" type="line"/>
      <point x="1183" y="645" type="line"/>
      <point x="1183" y="910" type="line" smooth="yes"/>
      <point x="1183" y="1144"/>
      <point x="1083" y="1253"/>
      <point x="863" y="1253" type="curve" smooth="yes"/>
      <point x="655" y="1253"/>
      <point x="556" y="1150"/>
      <point x="556" y="929" type="curve" smooth="yes"/>
      <point x="556" y="656" type="line" smooth="yes"/>
      <point x="556" y="477"/>
      <point x="627" y="415"/>
    </contour>
  </outline>
</glyph>
<glyph name="Jha.gj" format="2">
  <advance width="1063"/>
  <unicode hex="0A9D"/>
  <anchor x="720" y="-59" name="Bottom"/>
  <anchor x="729" y="1290" name="Top"/>
  <anchor x="874" y="1290" name="Top2"/>
  <outline>
    <contour>
      <point x="229" y="125" type="curve" smooth="yes"/>
      <point x="439" y="125"/>
      <point x="549" y="239"/>
      <point x="549" y="493" type="curve" smooth="yes"/>
      <point x="549" y="898" type="line" smooth="yes"/>
      <point x="549" y="1142"/>
      <point x="443" y="1253"/>
      <point x="240" y="1253" type="curve" smooth="yes"/>
      <point x="169" y="1253"/>
      <point x="109" y="1238"/>
      <point x="61" y="1212" type="curve"/>
      <point x="42" y="962" type="line"/>
      <point x="74" y="979"/>
      <point x="103" y="986"/>
      <point x="142" y="986" type="curve" smooth="yes"/>
      <point x="202" y="986"/>
      <point x="236" y="951"/>
      <point x="236" y="874" type="curve" smooth="yes"/>
      <point x="236" y="517" type="line" smooth="yes"/>
      <point x="236" y="431"/>
      <point x="201" y="392"/>
      <point x="131" y="392" type="curve" smooth="yes"/>
      <point x="89" y="392"/>
      <point x="57" y="399"/>
      <point x="24" y="416" type="curve"/>
      <point x="42" y="169" type="line"/>
      <point x="91" y="138"/>
      <point x="154" y="125"/>
    </contour>
    <contour>
      <point x="720" y="-22" type="curve" smooth="yes"/>
      <point x="921" y="-22"/>
      <point x="1017" y="92"/>
      <point x="1017" y="346" type="curve" smooth="yes"/>
      <point x="1017" y="456" type="line" smooth="yes"/>
      <point x="1017" y="672"/>
      <point x="901" y="767"/>
      <point x="752" y="776" type="curve"/>
      <point x="748" y="802" type="line"/>
      <point x="531" y="802" type="line"/>
      <point x="531" y="570" type="line"/>
      <point x="595" y="570" type="line" smooth="yes"/>
      <point x="676" y="570"/>
      <point x="707" y="535"/>
      <point x="707" y="440" type="curve" smooth="yes"/>
      <point x="707" y="361" type="line" smooth="yes"/>
      <point x="707" y="274"/>
      <point x="676" y="236"/>
      <point x="615" y="236" type="curve" smooth="yes"/>
      <point x="580" y="236"/>
      <point x="555" y="241"/>
      <point x="527" y="252" type="curve"/>
      <point x="545" y="11" type="line"/>
      <point x="590" y="-9"/>
      <point x="650" y="-22"/>
    </contour>
    <contour>
      <point x="819" y="696" type="line"/>
      <point x="877" y="791"/>
      <point x="918" y="872"/>
      <point x="952" y="970" type="curve" smooth="yes"/>
      <point x="1039" y="1218" type="line"/>
      <point x="1039" y="1227" type="line"/>
      <point x="709" y="1227" type="line"/>
      <point x="592" y="767" type="line"/>
    </contour>
  </outline>
</glyph>
<glyph name="Nya.gj" format="2">
  <advance width="1044"/>
  <unicode hex="0A9E"/>
  <anchor x="805" y="-58" name="Bottom"/>
  <anchor x="782" y="1291" name="Top"/>
  <anchor x="823" y="1291" name="Top2"/>
  <outline>
    <contour>
      <point x="234" y="163" type="curve" smooth="yes"/>
      <point x="438" y="163"/>
      <point x="537" y="277"/>
      <point x="537" y="531" type="curve" smooth="yes"/>
      <point x="537" y="859" type="line" smooth="yes"/>
      <point x="537" y="1103"/>
      <point x="442" y="1214"/>
      <point x="245" y="1214" type="curve" smooth="yes"/>
      <point x="171" y="1214"/>
      <point x="110" y="1199"/>
      <point x="61" y="1173" type="curve"/>
      <point x="42" y="923" type="line"/>
      <point x="72" y="940"/>
      <point x="99" y="947"/>
      <point x="136" y="947" type="curve" smooth="yes"/>
      <point x="195" y="947"/>
      <point x="224" y="912"/>
      <point x="224" y="835" type="curve" smooth="yes"/>
      <point x="224" y="559" type="line" smooth="yes"/>
      <point x="224" y="473"/>
      <point x="191" y="434"/>
      <point x="125" y="434" type="curve" smooth="yes"/>
      <point x="85" y="434"/>
      <point x="55" y="441"/>
      <point x="24" y="458" type="curve"/>
      <point x="42" y="207" type="line"/>
      <point x="92" y="176"/>
      <point x="156" y="163"/>
    </contour>
    <contour>
      <point x="425" y="544" type="line"/>
      <point x="729" y="544" type="line"/>
      <point x="711" y="805" type="line"/>
      <point x="425" y="805" type="line"/>
    </contour>
    <contour>
      <point x="667" y="478" type="line"/>
      <point x="980" y="478" type="line"/>
      <point x="980" y="1228" type="line"/>
      <point x="667" y="1228" type="line"/>
    </contour>
    <contour>
      <point x="667" y="1" type="line"/>
      <point x="980" y="1" type="line"/>
      <point x="980" y="586" type="line"/>
      <point x="667" y="586" type="line"/>
    </contour>
  </outline>
</glyph>
<glyph name="Tta.gj" format="2">
  <advance width="715"/>
  <unicode hex="0A9F"/>
  <anchor x="444" y="-59" name="Bottom"/>
  <anchor x="453" y="1290" name="Top"/>
  <anchor x="393" y="1290" name="Top2"/>
  <outline>
    <contour>
      <point x="444" y="-22" type="curve" smooth="yes"/>
      <point x="536" y="-22"/>
      <point x="621" y="3"/>
      <point x="663" y="30" type="curve"/>
      <point x="683" y="303" type="line"/>
      <point x="639" y="276"/>
      <point x="574" y="251"/>
      <point x="503" y="251" type="curve" smooth="yes"/>
      <point x="404" y="251"/>
      <point x="351" y="297"/>
      <point x="351" y="381" type="curve" smooth="yes"/>
      <point x="351" y="409" type="line" smooth="yes"/>
      <point x="351" y="482"/>
      <point x="389" y="522"/>
      <point x="470" y="580" type="curve" smooth="yes"/>
      <point x="506" y="606" type="line" smooth="yes"/>
      <point x="620" y="688"/>
      <point x="681" y="769"/>
      <point x="681" y="903" type="curve" smooth="yes"/>
      <point x="681" y="930" type="line" smooth="yes"/>
      <point x="681" y="1155"/>
      <point x="562" y="1253"/>
      <point x="335" y="1253" type="curve" smooth="yes"/>
      <point x="250" y="1253"/>
      <point x="165" y="1224"/>
      <point x="125" y="1200" type="curve"/>
      <point x="103" y="945" type="line"/>
      <point x="151" y="969"/>
      <point x="200" y="984"/>
      <point x="253" y="984" type="curve" smooth="yes"/>
      <point x="335" y="984"/>
      <point x="363" y="951"/>
      <point x="363" y="901" type="curve" smooth="yes"/>
      <point x="363" y="894" type="line" smooth="yes"/>
      <point x="363" y="857"/>
      <point x="350" y="830"/>
      <point x="294" y="792" type="curve" smooth="yes"/>
      <point x="255" y="766" type="line" smooth="yes"/>
      <point x="69" y="642"/>
      <point x="33" y="561"/>
      <point x="33" y="404" type="curve" smooth="yes"/>
      <point x="33" y="351" type="line" smooth="yes"/>
      <point x="33" y="120"/>
      <point x="178" y="-22"/>
    </contour>
  </outline>
</glyph>
<glyph name="Ttha.gj" format="2">
  <advance width="858"/>
  <unicode hex="0AA0"/>
  <guideline x="1420" y="1420" angle="0"/>
  <guideline x="367" y="1177" angle="0"/>
  <guideline x="1414" y="368" angle="0"/>
  <guideline x="2766" y="2473" angle="90"/>
  <guideline x="2990" y="2473" angle="90"/>
  <guideline x="439" y="149" angle="90"/>
  <anchor x="439" y="-59" name="Bottom"/>
  <anchor x="507" y="1290" name="Top"/>
  <anchor x="429" y="1290" name="Top2"/>
  <outline>
    <contour>
      <point x="429" y="-22" type="curve" smooth="yes"/>
      <point x="683" y="-22"/>
      <point x="821" y="96"/>
      <point x="821" y="355" type="curve" smooth="yes"/>
      <point x="821" y="433" type="line" smooth="yes"/>
      <point x="821" y="652"/>
      <point x="749" y="749"/>
      <point x="563" y="820" type="curve" smooth="yes"/>
      <point x="508" y="841" type="line" smooth="yes"/>
      <point x="436" y="869"/>
      <point x="419" y="891"/>
      <point x="419" y="923" type="curve" smooth="yes"/>
      <point x="419" y="928" type="line" smooth="yes"/>
      <point x="419" y="968"/>
      <point x="452" y="988"/>
      <point x="533" y="988" type="curve" smooth="yes"/>
      <point x="606" y="988"/>
      <point x="670" y="970"/>
      <point x="730" y="949" type="curve"/>
      <point x="712" y="1199" type="line"/>
      <point x="661" y="1226"/>
      <point x="568" y="1253"/>
      <point x="464" y="1253" type="curve" smooth="yes"/>
      <point x="220" y="1253"/>
      <point x="101" y="1150"/>
      <point x="101" y="957" type="curve" smooth="yes"/>
      <point x="101" y="940" type="line" smooth="yes"/>
      <point x="101" y="771"/>
      <point x="195" y="702"/>
      <point x="324" y="655" type="curve"/>
      <point x="308" y="635" type="line"/>
      <point x="316" y="632"/>
      <point x="326" y="627"/>
      <point x="336" y="625" type="curve" smooth="yes"/>
      <point x="371" y="618" type="line" smooth="yes"/>
      <point x="474" y="597"/>
      <point x="508" y="563"/>
      <point x="508" y="469" type="curve" smooth="yes"/>
      <point x="508" y="350" type="line" smooth="yes"/>
      <point x="508" y="279"/>
      <point x="481" y="246"/>
      <point x="429" y="246" type="curve" smooth="yes"/>
      <point x="378" y="246"/>
      <point x="350" y="279"/>
      <point x="350" y="350" type="curve" smooth="yes"/>
      <point x="350" y="416" type="line"/>
      <point x="37" y="416" type="line"/>
      <point x="37" y="355" type="line" smooth="yes"/>
      <point x="37" y="96"/>
      <point x="175" y="-22"/>
    </contour>
    <contour>
      <point x="37" y="392" type="line"/>
      <point x="350" y="392" type="line"/>
      <point x="350" y="510" type="line" smooth="yes"/>
      <point x="350" y="561"/>
      <point x="367" y="612"/>
      <point x="400" y="628" type="curve"/>
      <point x="239" y="728" type="line"/>
      <point x="148" y="708"/>
      <point x="37" y="621"/>
      <point x="37" y="459" type="curve" smooth="yes"/>
    </contour>
  </outline>
</glyph>
<glyph name="Dda.gj" format="2">
  <advance width="717"/>
  <unicode hex="0AA1"/>
  <guideline x="33" y="1630" angle="90"/>
  <guideline x="2340" y="3457" angle="90"/>
  <guideline x="2558" y="3457" angle="90"/>
  <guideline x="2115" y="3650" angle="94.0856"/>
  <guideline x="367" y="149" angle="90"/>
  <anchor x="367" y="-59" name="Bottom"/>
  <anchor x="437" y="1290" name="Top"/>
  <anchor x="351" y="1290" name="Top2"/>
  <outline>
    <contour>
      <point x="289" y="-22" type="curve" smooth="yes"/>
      <point x="553" y="-22"/>
      <point x="685" y="98"/>
      <point x="685" y="339" type="curve" smooth="yes"/>
      <point x="685" y="366" type="line" smooth="yes"/>
      <point x="685" y="550"/>
      <point x="621" y="630"/>
      <point x="499" y="714" type="curve" smooth="yes"/>
      <point x="442" y="753" type="line" smooth="yes"/>
      <point x="379" y="796"/>
      <point x="351" y="828"/>
      <point x="351" y="877" type="curve" smooth="yes"/>
      <point x="351" y="888" type="line" smooth="yes"/>
      <point x="351" y="955"/>
      <point x="389" y="984"/>
      <point x="479" y="984" type="curve" smooth="yes"/>
      <point x="534" y="984"/>
      <point x="583" y="966"/>
      <point x="629" y="945" type="curve"/>
      <point x="611" y="1199" type="line"/>
      <point x="567" y="1226"/>
      <point x="486" y="1253"/>
      <point x="397" y="1253" type="curve" smooth="yes"/>
      <point x="152" y="1253"/>
      <point x="33" y="1133"/>
      <point x="33" y="913" type="curve" smooth="yes"/>
      <point x="33" y="886" type="line" smooth="yes"/>
      <point x="33" y="747"/>
      <point x="89" y="653"/>
      <point x="238" y="547" type="curve" smooth="yes"/>
      <point x="287" y="512" type="line" smooth="yes"/>
      <point x="344" y="471"/>
      <point x="367" y="437"/>
      <point x="367" y="381" type="curve" smooth="yes"/>
      <point x="367" y="368" type="line" smooth="yes"/>
      <point x="367" y="298"/>
      <point x="321" y="251"/>
      <point x="233" y="251" type="curve" smooth="yes"/>
      <point x="156" y="251"/>
      <point x="95" y="282"/>
      <point x="38" y="313" type="curve"/>
      <point x="56" y="37" type="line"/>
      <point x="112" y="6"/>
      <point x="196" y="-22"/>
    </contour>
  </outline>
</glyph>
<glyph name="Ta.gj" format="2">
  <advance width="929"/>
  <unicode hex="0AA4"/>
  <guideline x="955" y="1009" angle="0"/>
  <anchor x="690" y="-59" name="Bottom"/>
  <anchor x="667" y="1290" name="Top"/>
  <anchor x="708" y="1290" name="Top2"/>
  <outline>
    <contour>
      <point x="552" y="477" type="line"/>
      <point x="865" y="477" type="line"/>
      <point x="865" y="1227" type="line"/>
      <point x="552" y="1227" type="line"/>
    </contour>
    <contour>
      <point x="552" y="0" type="line"/>
      <point x="865" y="0" type="line"/>
      <point x="865" y="585" type="line"/>
      <point x="552" y="585" type="line"/>
    </contour>
    <contour>
      <point x="117" y="0" type="curve"/>
      <point x="423" y="0" type="line"/>
      <point x="399" y="140"/>
      <point x="362" y="402"/>
      <point x="362" y="569" type="curve" smooth="yes"/>
      <point x="362" y="659"/>
      <point x="393" y="701"/>
      <point x="469" y="701" type="curve" smooth="yes"/>
      <point x="703" y="701" type="line"/>
      <point x="703" y="962" type="line"/>
      <point x="377" y="962" type="line" smooth="yes"/>
      <point x="158" y="962"/>
      <point x="44" y="843"/>
      <point x="44" y="585" type="curve" smooth="yes"/>
      <point x="44" y="391"/>
      <point x="86" y="144"/>
    </contour>
  </outline>
</glyph>
<glyph name="Da.gj" format="2">
  <advance width="683"/>
  <unicode hex="0AA6"/>
  <anchor x="432" y="-59" name="Bottom"/>
  <anchor x="463" y="1290" name="Top"/>
  <anchor x="387" y="1290" name="Top2"/>
  <outline>
    <contour>
      <point x="424" y="-22" type="curve" smooth="yes"/>
      <point x="510" y="-22"/>
      <point x="584" y="4"/>
      <point x="633" y="32" type="curve"/>
      <point x="653" y="304" type="line"/>
      <point x="604" y="274"/>
      <point x="555" y="251"/>
      <point x="491" y="251" type="curve" smooth="yes"/>
      <point x="412" y="251"/>
      <point x="366" y="289"/>
      <point x="366" y="360" type="curve" smooth="yes"/>
      <point x="366" y="382" type="line" smooth="yes"/>
      <point x="366" y="454"/>
      <point x="415" y="487"/>
      <point x="487" y="491" type="curve" smooth="yes"/>
      <point x="605" y="497" type="line"/>
      <point x="605" y="762" type="line"/>
      <point x="487" y="768" type="line" smooth="yes"/>
      <point x="421" y="771"/>
      <point x="379" y="807"/>
      <point x="379" y="866" type="curve" smooth="yes"/>
      <point x="379" y="884" type="line" smooth="yes"/>
      <point x="379" y="948"/>
      <point x="425" y="988"/>
      <point x="494" y="988" type="curve" smooth="yes"/>
      <point x="546" y="988"/>
      <point x="592" y="972"/>
      <point x="635" y="953" type="curve"/>
      <point x="619" y="1201" type="line"/>
      <point x="575" y="1227"/>
      <point x="494" y="1253"/>
      <point x="405" y="1253" type="curve" smooth="yes"/>
      <point x="184" y="1253"/>
      <point x="61" y="1145"/>
      <point x="61" y="926" type="curve" smooth="yes"/>
      <point x="61" y="905" type="line" smooth="yes"/>
      <point x="61" y="747"/>
      <point x="133" y="651"/>
      <point x="258" y="631" type="curve"/>
      <point x="258" y="624" type="line"/>
      <point x="118" y="596"/>
      <point x="48" y="489"/>
      <point x="48" y="333" type="curve" smooth="yes"/>
      <point x="48" y="310" type="line" smooth="yes"/>
      <point x="48" y="110"/>
      <point x="161" y="-22"/>
    </contour>
  </outline>
</glyph>
<glyph name="Dha.gj" format="2">
  <advance width="950"/>
  <unicode hex="0AA7"/>
  <guideline x="886" y="-153" angle="90"/>
  <guideline x="711" y="-141" angle="90"/>
  <guideline x="573" y="-141" angle="90"/>
  <anchor x="711" y="-59" name="Bottom"/>
  <anchor x="688" y="1290" name="Top"/>
  <anchor x="729" y="1290" name="Top2"/>
  <outline>
    <contour>
      <point x="339" y="79" type="curve" smooth="yes"/>
      <point x="479" y="79"/>
      <point x="547" y="153"/>
      <point x="562" y="256" type="curve"/>
      <point x="596" y="256" type="line"/>
      <point x="576" y="455" type="line"/>
      <point x="565" y="387"/>
      <point x="528" y="352"/>
      <point x="464" y="352" type="curve" smooth="yes"/>
      <point x="394" y="352"/>
      <point x="361" y="389"/>
      <point x="361" y="460" type="curve" smooth="yes"/>
      <point x="361" y="466" type="line" smooth="yes"/>
      <point x="361" y="530"/>
      <point x="394" y="566"/>
      <point x="455" y="572" type="curve" smooth="yes"/>
      <point x="495" y="576" type="line"/>
      <point x="495" y="834" type="line"/>
      <point x="455" y="837" type="line" smooth="yes"/>
      <point x="390" y="842"/>
      <point x="356" y="885"/>
      <point x="356" y="957" type="curve" smooth="yes"/>
      <point x="356" y="970" type="line" smooth="yes"/>
      <point x="356" y="1078"/>
      <point x="380" y="1183"/>
      <point x="410" y="1292" type="curve"/>
      <point x="410" y="1301" type="line"/>
      <point x="101" y="1301" type="line"/>
      <point x="66" y="1190"/>
      <point x="40" y="1086"/>
      <point x="40" y="975" type="curve" smooth="yes"/>
      <point x="40" y="964" type="line" smooth="yes"/>
      <point x="40" y="811"/>
      <point x="101" y="725"/>
      <point x="233" y="707" type="curve"/>
      <point x="233" y="699" type="line"/>
      <point x="101" y="675"/>
      <point x="43" y="576"/>
      <point x="43" y="429" type="curve" smooth="yes"/>
      <point x="43" y="405" type="line" smooth="yes"/>
      <point x="43" y="208"/>
      <point x="134" y="79"/>
    </contour>
    <contour>
      <point x="573" y="477" type="line"/>
      <point x="886" y="477" type="line"/>
      <point x="886" y="1227" type="line"/>
      <point x="573" y="1227" type="line"/>
    </contour>
    <contour>
      <point x="573" y="0" type="line"/>
      <point x="886" y="0" type="line"/>
      <point x="886" y="585" type="line"/>
      <point x="573" y="585" type="line"/>
    </contour>
  </outline>
</glyph>
<glyph name="Na.gj" format="2">
  <advance width="904"/>
  <unicode hex="0AA8"/>
  <guideline x="518" y="1353" angle="90"/>
  <guideline x="19" y="1353" angle="90"/>
  <guideline x="831" y="1353" angle="90"/>
  <anchor x="665" y="-59" name="Bottom"/>
  <anchor x="642" y="1290" name="Top"/>
  <anchor x="683" y="1290" name="Top2"/>
  <outline>
    <contour>
      <point x="527" y="477" type="line"/>
      <point x="840" y="477" type="line"/>
      <point x="840" y="1227" type="line"/>
      <point x="527" y="1227" type="line"/>
    </contour>
    <contour>
      <point x="527" y="0" type="line"/>
      <point x="840" y="0" type="line"/>
      <point x="840" y="585" type="line"/>
      <point x="527" y="585" type="line"/>
    </contour>
    <contour>
      <point x="146" y="186" type="curve"/>
      <point x="385" y="186" type="line"/>
      <point x="385" y="898" type="line"/>
      <point x="135" y="898" type="line"/>
      <point x="19" y="815" type="line"/>
      <point x="26" y="578"/>
      <point x="74" y="355"/>
    </contour>
    <contour>
      <point x="326" y="637" type="line"/>
      <point x="692" y="637" type="line"/>
      <point x="674" y="898" type="line"/>
      <point x="326" y="898" type="line"/>
    </contour>
  </outline>
</glyph>
<glyph name="Pa.gj" format="2">
  <advance width="936"/>
  <unicode hex="0AAA"/>
  <guideline x="2928" y="2567" angle="90"/>
  <guideline x="1831" y="4697" angle="90"/>
  <guideline x="2317" y="4697" angle="90"/>
  <guideline x="592" y="1227" angle="0"/>
  <guideline x="697" y="-141" angle="90"/>
  <guideline x="7" y="1347" angle="90"/>
  <guideline x="872" y="1347" angle="90"/>
  <guideline x="483" y="0" angle="0"/>
  <anchor x="697" y="-59" name="Bottom"/>
  <anchor x="674" y="1290" name="Top"/>
  <anchor x="715" y="1290" name="Top2"/>
  <outline>
    <contour>
      <point x="342" y="175" type="curve" smooth="yes"/>
      <point x="469" y="175"/>
      <point x="536" y="249"/>
      <point x="548" y="350" type="curve"/>
      <point x="585" y="350" type="line"/>
      <point x="567" y="549" type="line"/>
      <point x="561" y="483"/>
      <point x="532" y="448"/>
      <point x="482" y="448" type="curve" smooth="yes"/>
      <point x="425" y="448"/>
      <point x="399" y="483"/>
      <point x="399" y="564" type="curve" smooth="yes"/>
      <point x="399" y="819" type="line"/>
      <point x="86" y="819" type="line"/>
      <point x="86" y="535" type="line" smooth="yes"/>
      <point x="86" y="318"/>
      <point x="136" y="175"/>
    </contour>
    <contour>
      <point x="86" y="770" type="line"/>
      <point x="399" y="770" type="line"/>
      <point x="399" y="991" type="line" smooth="yes"/>
      <point x="399" y="1161"/>
      <point x="322" y="1243"/>
      <point x="154" y="1243" type="curve" smooth="yes"/>
      <point x="110" y="1243"/>
      <point x="64" y="1235"/>
      <point x="24" y="1218" type="curve"/>
      <point x="7" y="986" type="line"/>
      <point x="16" y="990"/>
      <point x="31" y="993"/>
      <point x="46" y="993" type="curve" smooth="yes"/>
      <point x="75" y="993"/>
      <point x="86" y="977"/>
      <point x="86" y="940" type="curve" smooth="yes"/>
    </contour>
    <contour>
      <point x="559" y="477" type="line"/>
      <point x="872" y="477" type="line"/>
      <point x="872" y="1227" type="line"/>
      <point x="559" y="1227" type="line"/>
    </contour>
    <contour>
      <point x="559" y="0" type="line"/>
      <point x="872" y="0" type="line"/>
      <point x="872" y="585" type="line"/>
      <point x="559" y="585" type="line"/>
    </contour>
  </outline>
</glyph>
<glyph name="Ba.gj" format="2">
  <advance width="1282"/>
  <unicode hex="0AAC"/>
  <guideline x="4058" y="3246" angle="90"/>
  <guideline x="2264" y="1757" angle="0"/>
  <guideline x="3011" y="3401" angle="90"/>
  <guideline x="916" y="932" angle="90"/>
  <guideline x="50" y="932" angle="90"/>
  <guideline x="1218" y="1332" angle="90"/>
  <anchor x="1043" y="-59" name="Bottom"/>
  <anchor x="1020" y="1290" name="Top"/>
  <anchor x="1061" y="1290" name="Top2"/>
  <outline>
    <contour>
      <point x="905" y="477" type="line"/>
      <point x="1218" y="477" type="line"/>
      <point x="1218" y="1227" type="line"/>
      <point x="905" y="1227" type="line"/>
    </contour>
    <contour>
      <point x="905" y="0" type="line"/>
      <point x="1218" y="0" type="line"/>
      <point x="1218" y="585" type="line"/>
      <point x="905" y="585" type="line"/>
    </contour>
    <contour>
      <point x="686" y="508" type="line"/>
      <point x="1126" y="508" type="line"/>
      <point x="1108" y="769" type="line"/>
      <point x="686" y="769" type="line"/>
    </contour>
    <contour>
      <point x="420" y="121" type="curve" smooth="yes"/>
      <point x="672" y="121"/>
      <point x="791" y="234"/>
      <point x="791" y="510" type="curve" smooth="yes"/>
      <point x="791" y="1027" type="line"/>
      <point x="493" y="1027" type="line"/>
      <point x="493" y="482" type="line" smooth="yes"/>
      <point x="493" y="425"/>
      <point x="475" y="394"/>
      <point x="428" y="394" type="curve" smooth="yes"/>
      <point x="377" y="394"/>
      <point x="363" y="425"/>
      <point x="363" y="482" type="curve" smooth="yes"/>
      <point x="363" y="791" type="line" smooth="yes"/>
      <point x="363" y="981"/>
      <point x="396" y="1108"/>
      <point x="477" y="1227" type="curve"/>
      <point x="162" y="1227" type="line"/>
      <point x="76" y="1117"/>
      <point x="50" y="997"/>
      <point x="50" y="799" type="curve" smooth="yes"/>
      <point x="50" y="510" type="line" smooth="yes"/>
      <point x="50" y="234"/>
      <point x="166" y="121"/>
    </contour>
  </outline>
</glyph>
<glyph name="Ma.gj" format="2">
  <advance width="981"/>
  <unicode hex="0AAE"/>
  <guideline x="2050" y="3028" angle="90"/>
  <guideline x="1950" y="1682" angle="0"/>
  <guideline x="20" y="1481" angle="90"/>
  <guideline x="917" y="1481" angle="90"/>
  <anchor x="742" y="-59" name="Bottom"/>
  <anchor x="719" y="1290" name="Top"/>
  <anchor x="760" y="1290" name="Top2"/>
  <outline>
    <contour>
      <point x="138" y="602" type="line"/>
      <point x="445" y="602" type="line"/>
      <point x="445" y="960" type="line" smooth="yes"/>
      <point x="445" y="1156"/>
      <point x="366" y="1248"/>
      <point x="202" y="1248" type="curve" smooth="yes"/>
      <point x="149" y="1248"/>
      <point x="92" y="1240"/>
      <point x="39" y="1225" type="curve"/>
      <point x="20" y="983" type="line"/>
      <point x="33" y="986"/>
      <point x="50" y="990"/>
      <point x="72" y="990" type="curve" smooth="yes"/>
      <point x="118" y="990"/>
      <point x="138" y="964"/>
      <point x="138" y="898" type="curve" smooth="yes"/>
    </contour>
    <contour>
      <point x="182" y="96" type="curve"/>
      <point x="432" y="96" type="line"/>
      <point x="432" y="697" type="line"/>
      <point x="153" y="697" type="line"/>
      <point x="37" y="615" type="line"/>
      <point x="46" y="418"/>
      <point x="99" y="236"/>
    </contour>
    <contour>
      <point x="361" y="451" type="line"/>
      <point x="727" y="451" type="line"/>
      <point x="709" y="712" type="line"/>
      <point x="361" y="712" type="line"/>
    </contour>
    <contour>
      <point x="604" y="477" type="line"/>
      <point x="917" y="477" type="line"/>
      <point x="917" y="1227" type="line"/>
      <point x="604" y="1227" type="line"/>
    </contour>
    <contour>
      <point x="604" y="0" type="line"/>
      <point x="917" y="0" type="line"/>
      <point x="917" y="585" type="line"/>
      <point x="604" y="585" type="line"/>
    </contour>
  </outline>
</glyph>
<glyph name="Ya.gj" format="2">
  <advance width="1012"/>
  <unicode hex="0AAF"/>
  <anchor x="773" y="-59" name="Bottom"/>
  <anchor x="750" y="1290" name="Top"/>
  <anchor x="791" y="1290" name="Top2"/>
  <outline>
    <contour>
      <point x="377" y="98" type="curve" smooth="yes"/>
      <point x="534" y="98"/>
      <point x="605" y="170"/>
      <point x="625" y="280" type="curve"/>
      <point x="656" y="280" type="line"/>
      <point x="644" y="479" type="line"/>
      <point x="627" y="425"/>
      <point x="600" y="371"/>
      <point x="499" y="371" type="curve" smooth="yes"/>
      <point x="396" y="371"/>
      <point x="353" y="433"/>
      <point x="353" y="549" type="curve" smooth="yes"/>
      <point x="353" y="605"/>
      <point x="355" y="640"/>
      <point x="357" y="699" type="curve"/>
      <point x="149" y="539" type="line"/>
      <point x="300" y="539" type="line" smooth="yes"/>
      <point x="458" y="539"/>
      <point x="537" y="638"/>
      <point x="537" y="843" type="curve" smooth="yes"/>
      <point x="537" y="910" type="line" smooth="yes"/>
      <point x="537" y="1146"/>
      <point x="443" y="1253"/>
      <point x="252" y="1253" type="curve" smooth="yes"/>
      <point x="180" y="1253"/>
      <point x="120" y="1238"/>
      <point x="70" y="1214" type="curve"/>
      <point x="52" y="964" type="line"/>
      <point x="81" y="979"/>
      <point x="109" y="988"/>
      <point x="144" y="988" type="curve" smooth="yes"/>
      <point x="204" y="988"/>
      <point x="234" y="955"/>
      <point x="234" y="881" type="curve" smooth="yes"/>
      <point x="234" y="850" type="line" smooth="yes"/>
      <point x="234" y="765"/>
      <point x="201" y="727"/>
      <point x="127" y="725" type="curve" smooth="yes"/>
      <point x="46" y="723" type="line"/>
      <point x="39" y="668"/>
      <point x="37" y="618"/>
      <point x="37" y="530" type="curve" smooth="yes"/>
      <point x="37" y="270"/>
      <point x="138" y="98"/>
    </contour>
    <contour>
      <point x="635" y="477" type="line"/>
      <point x="948" y="477" type="line"/>
      <point x="948" y="1227" type="line"/>
      <point x="635" y="1227" type="line"/>
    </contour>
    <contour>
      <point x="635" y="0" type="line"/>
      <point x="948" y="0" type="line"/>
      <point x="948" y="585" type="line"/>
      <point x="635" y="585" type="line"/>
    </contour>
  </outline>
</glyph>
<glyph name="Ra.gj" format="2">
  <advance width="640"/>
  <unicode hex="0AB0"/>
  <guideline x="268" y="1088" angle="90"/>
  <guideline x="328" y="1088" angle="90"/>
  <guideline x="322" y="1537" angle="90"/>
  <guideline x="479" y="1537" angle="90"/>
  <guideline x="166" y="1537" angle="90"/>
  <guideline x="594" y="845" angle="270"/>
  <guideline x="24" y="661" angle="0"/>
  <anchor x="445" y="-59" name="Bottom"/>
  <anchor x="328" y="1290" name="Top"/>
  <anchor x="322" y="1290" name="Top2"/>
  <outline>
    <contour>
      <point x="276" y="358" type="line"/>
      <point x="270" y="436" type="line"/>
      <point x="283" y="436" type="line" smooth="yes"/>
      <point x="488" y="436"/>
      <point x="594" y="551"/>
      <point x="594" y="788" type="curve" smooth="yes"/>
      <point x="594" y="893" type="line" smooth="yes"/>
      <point x="594" y="1140"/>
      <point x="478" y="1253"/>
      <point x="248" y="1253" type="curve" smooth="yes"/>
      <point x="175" y="1253"/>
      <point x="118" y="1240"/>
      <point x="68" y="1212" type="curve"/>
      <point x="49" y="962" type="line"/>
      <point x="84" y="979"/>
      <point x="114" y="986"/>
      <point x="158" y="986" type="curve" smooth="yes"/>
      <point x="234" y="986"/>
      <point x="276" y="947"/>
      <point x="276" y="862" type="curve" smooth="yes"/>
      <point x="276" y="795" type="line" smooth="yes"/>
      <point x="276" y="705"/>
      <point x="232" y="666"/>
      <point x="143" y="662" type="curve" smooth="yes"/>
      <point x="24" y="657" type="line"/>
      <point x="24" y="412" type="line"/>
    </contour>
    <contour>
      <point x="483" y="-22" type="curve" smooth="yes"/>
      <point x="515" y="-22"/>
      <point x="546" y="-18"/>
      <point x="576" y="-11" type="curve"/>
      <point x="593" y="252" type="line"/>
      <point x="586" y="251"/>
      <point x="565" y="249"/>
      <point x="551" y="249" type="curve" smooth="yes"/>
      <point x="478" y="249"/>
      <point x="423" y="274"/>
      <point x="409" y="377" type="curve" smooth="yes"/>
      <point x="385" y="554" type="line"/>
      <point x="86" y="554" type="line"/>
      <point x="114" y="344" type="line" smooth="yes"/>
      <point x="150" y="73"/>
      <point x="258" y="-22"/>
    </contour>
  </outline>
</glyph>
<glyph name="La.gj" format="2">
  <advance width="1085"/>
  <unicode hex="0AB2"/>
  <anchor x="846" y="-59" name="Bottom"/>
  <anchor x="823" y="1290" name="Top"/>
  <anchor x="864" y="1290" name="Top2"/>
  <outline>
    <contour>
      <point x="708" y="477" type="line"/>
      <point x="1021" y="477" type="line"/>
      <point x="1021" y="1227" type="line"/>
      <point x="708" y="1227" type="line"/>
    </contour>
    <contour>
      <point x="708" y="0" type="line"/>
      <point x="1021" y="0" type="line"/>
      <point x="1021" y="585" type="line"/>
      <point x="708" y="585" type="line"/>
    </contour>
    <contour>
      <point x="415" y="0" type="curve" smooth="yes"/>
      <point x="481" y="0"/>
      <point x="540" y="9"/>
      <point x="594" y="26" type="curve"/>
      <point x="612" y="285" type="line"/>
      <point x="584" y="276"/>
      <point x="548" y="269"/>
      <point x="509" y="269" type="curve" smooth="yes"/>
      <point x="417" y="269"/>
      <point x="367" y="320"/>
      <point x="367" y="436" type="curve" smooth="yes"/>
      <point x="367" y="806" type="line" smooth="yes"/>
      <point x="367" y="922"/>
      <point x="417" y="973"/>
      <point x="509" y="973" type="curve" smooth="yes"/>
      <point x="548" y="973"/>
      <point x="584" y="966"/>
      <point x="612" y="957" type="curve"/>
      <point x="594" y="1213" type="line"/>
      <point x="540" y="1233"/>
      <point x="481" y="1242"/>
      <point x="415" y="1242" type="curve" smooth="yes"/>
      <point x="182" y="1242"/>
      <point x="54" y="1111"/>
      <point x="54" y="843" type="curve" smooth="yes"/>
      <point x="54" y="403" type="line" smooth="yes"/>
      <point x="54" y="134"/>
      <point x="182" y="0"/>
    </contour>
    <contour>
      <point x="450" y="433" type="line"/>
      <point x="850" y="597" type="line"/>
      <point x="850" y="913" type="line"/>
      <point x="450" y="746" type="line"/>
    </contour>
  </outline>
</glyph>
<glyph name="Lla.gj" format="2">
  <advance width="1263"/>
  <unicode hex="0AB3"/>
  <anchor x="1024" y="-59" name="Bottom"/>
  <anchor x="872" y="1290" name="Top"/>
  <anchor x="832" y="1290" name="Top2"/>
  <outline>
    <contour>
      <point x="886" y="0" type="line"/>
      <point x="1199" y="0" type="line"/>
      <point x="1199" y="863" type="line" smooth="yes"/>
      <point x="1199" y="1139"/>
      <point x="1084" y="1253"/>
      <point x="837" y="1253" type="curve" smooth="yes"/>
      <point x="589" y="1253"/>
      <point x="474" y="1139"/>
      <point x="474" y="863" type="curve" smooth="yes"/>
      <point x="474" y="715"/>
      <point x="483" y="631"/>
      <point x="483" y="480" type="curve" smooth="yes"/>
      <point x="483" y="423"/>
      <point x="466" y="392"/>
      <point x="421" y="392" type="curve" smooth="yes"/>
      <point x="373" y="392"/>
      <point x="359" y="423"/>
      <point x="359" y="480" type="curve" smooth="yes"/>
      <point x="359" y="791" type="line" smooth="yes"/>
      <point x="359" y="981"/>
      <point x="392" y="1108"/>
      <point x="473" y="1227" type="curve"/>
      <point x="162" y="1227" type="line"/>
      <point x="76" y="1117"/>
      <point x="50" y="997"/>
      <point x="50" y="799" type="curve" smooth="yes"/>
      <point x="50" y="512" type="line" smooth="yes"/>
      <point x="50" y="236"/>
      <point x="162" y="123"/>
      <point x="416" y="123" type="curve" smooth="yes"/>
      <point x="669" y="123"/>
      <point x="787" y="237"/>
      <point x="787" y="513" type="curve" smooth="yes"/>
      <point x="787" y="699"/>
      <point x="778" y="784"/>
      <point x="778" y="894" type="curve" smooth="yes"/>
      <point x="778" y="951"/>
      <point x="793" y="984"/>
      <point x="832" y="984" type="curve" smooth="yes"/>
      <point x="870" y="984"/>
      <point x="886" y="951"/>
      <point x="886" y="894" type="curve" smooth="yes"/>
    </contour>
  </outline>
</glyph>
<glyph name="Va.gj" format="2">
  <advance width="912"/>
  <unicode hex="0AB5"/>
  <guideline x="4873" y="1888" angle="90"/>
  <guideline x="1484" y="4180" angle="0"/>
  <guideline x="1821" y="1296" angle="0"/>
  <guideline x="848" y="1347" angle="90"/>
  <guideline x="672" y="-141" angle="90"/>
  <guideline x="534" y="-141" angle="90"/>
  <guideline x="54" y="1347" angle="90"/>
  <anchor x="673" y="-59" name="Bottom"/>
  <anchor x="650" y="1290" name="Top"/>
  <anchor x="691" y="1290" name="Top2"/>
  <outline>
    <contour>
      <point x="312" y="140" type="curve" smooth="yes"/>
      <point x="438" y="140"/>
      <point x="508" y="212"/>
      <point x="523" y="321" type="curve"/>
      <point x="543" y="321" type="line"/>
      <point x="540" y="520" type="line"/>
      <point x="534" y="450"/>
      <point x="505" y="413"/>
      <point x="453" y="413" type="curve" smooth="yes"/>
      <point x="393" y="413"/>
      <point x="367" y="450"/>
      <point x="367" y="533" type="curve" smooth="yes"/>
      <point x="367" y="857" type="line" smooth="yes"/>
      <point x="367" y="929"/>
      <point x="382" y="962"/>
      <point x="433" y="962" type="curve" smooth="yes"/>
      <point x="448" y="962"/>
      <point x="457" y="960"/>
      <point x="470" y="957" type="curve"/>
      <point x="453" y="1205" type="line"/>
      <point x="424" y="1218"/>
      <point x="383" y="1227"/>
      <point x="337" y="1227" type="curve" smooth="yes"/>
      <point x="139" y="1227"/>
      <point x="54" y="1115"/>
      <point x="54" y="867" type="curve" smooth="yes"/>
      <point x="54" y="493" type="line" smooth="yes"/>
      <point x="54" y="282"/>
      <point x="106" y="140"/>
    </contour>
    <contour>
      <point x="535" y="477" type="line"/>
      <point x="848" y="477" type="line"/>
      <point x="848" y="1227" type="line"/>
      <point x="535" y="1227" type="line"/>
    </contour>
    <contour>
      <point x="535" y="0" type="line"/>
      <point x="848" y="0" type="line"/>
      <point x="848" y="585" type="line"/>
      <point x="535" y="585" type="line"/>
    </contour>
  </outline>
</glyph>
<glyph name="Ssa.gj" format="2">
  <advance width="955"/>
  <unicode hex="0AB7"/>
  <guideline x="891" y="-153" angle="90"/>
  <guideline x="716" y="-141" angle="90"/>
  <guideline x="578" y="-141" angle="90"/>
  <anchor x="716" y="-59" name="Bottom"/>
  <anchor x="693" y="1290" name="Top"/>
  <anchor x="734" y="1290" name="Top2"/>
  <outline>
    <contour>
      <point x="565" y="460" type="line"/>
      <point x="655" y="535" type="line"/>
      <point x="374" y="1128" type="line"/>
      <point x="291" y="1093" type="line"/>
      <point x="350" y="929"/>
      <point x="408" y="789"/>
      <point x="464" y="672" type="curve" smooth="yes"/>
    </contour>
    <contour>
      <point x="351" y="156" type="curve" smooth="yes"/>
      <point x="484" y="156"/>
      <point x="553" y="230"/>
      <point x="566" y="331" type="curve"/>
      <point x="603" y="331" type="line"/>
      <point x="585" y="530" type="line"/>
      <point x="578" y="464"/>
      <point x="546" y="429"/>
      <point x="491" y="429" type="curve" smooth="yes"/>
      <point x="428" y="429"/>
      <point x="399" y="464"/>
      <point x="399" y="545" type="curve" smooth="yes"/>
      <point x="399" y="800" type="line"/>
      <point x="86" y="800" type="line"/>
      <point x="86" y="516" type="line" smooth="yes"/>
      <point x="86" y="299"/>
      <point x="138" y="156"/>
    </contour>
    <contour>
      <point x="86" y="770" type="line"/>
      <point x="399" y="770" type="line"/>
      <point x="399" y="991" type="line" smooth="yes"/>
      <point x="399" y="1161"/>
      <point x="322" y="1243"/>
      <point x="154" y="1243" type="curve" smooth="yes"/>
      <point x="110" y="1243"/>
      <point x="64" y="1235"/>
      <point x="24" y="1218" type="curve"/>
      <point x="7" y="986" type="line"/>
      <point x="16" y="990"/>
      <point x="31" y="993"/>
      <point x="46" y="993" type="curve" smooth="yes"/>
      <point x="75" y="993"/>
      <point x="86" y="977"/>
      <point x="86" y="940" type="curve" smooth="yes"/>
    </contour>
    <contour>
      <point x="578" y="477" type="line"/>
      <point x="891" y="477" type="line"/>
      <point x="891" y="1227" type="line"/>
      <point x="578" y="1227" type="line"/>
    </contour>
    <contour>
      <point x="578" y="0" type="line"/>
      <point x="891" y="0" type="line"/>
      <point x="891" y="585" type="line"/>
      <point x="578" y="585" type="line"/>
    </contour>
  </outline>
</glyph>
<glyph name="Ha.gj" format="2">
  <advance width="822"/>
  <unicode hex="0AB9"/>
  <guideline x="2916" y="4255" angle="0"/>
  <guideline x="2916" y="4155" angle="0"/>
  <guideline x="484" y="149" angle="90"/>
  <anchor x="484" y="-59" name="Bottom"/>
  <anchor x="491" y="1290" name="Top"/>
  <anchor x="418" y="1290" name="Top2"/>
  <outline>
    <contour>
      <point x="484" y="-26" type="curve" smooth="yes"/>
      <point x="601" y="-26"/>
      <point x="690" y="0"/>
      <point x="754" y="29" type="curve"/>
      <point x="774" y="302" type="line"/>
      <point x="704" y="271"/>
      <point x="636" y="247"/>
      <point x="546" y="247" type="curve" smooth="yes"/>
      <point x="414" y="247"/>
      <point x="353" y="306"/>
      <point x="353" y="433" type="curve" smooth="yes"/>
      <point x="353" y="478"/>
      <point x="353" y="528"/>
      <point x="353" y="569" type="curve"/>
      <point x="59" y="569" type="line"/>
      <point x="46" y="509"/>
      <point x="40" y="444"/>
      <point x="40" y="382" type="curve" smooth="yes"/>
      <point x="40" y="112"/>
      <point x="191" y="-26"/>
    </contour>
    <contour>
      <point x="475" y="368" type="curve"/>
      <point x="774" y="368" type="line"/>
      <point x="787" y="435"/>
      <point x="795" y="486"/>
      <point x="795" y="543" type="curve" smooth="yes"/>
      <point x="795" y="701"/>
      <point x="726" y="793"/>
      <point x="544" y="832" type="curve" smooth="yes"/>
      <point x="511" y="839" type="line" smooth="yes"/>
      <point x="423" y="858"/>
      <point x="393" y="878"/>
      <point x="393" y="916" type="curve" smooth="yes"/>
      <point x="393" y="922" type="line" smooth="yes"/>
      <point x="393" y="964"/>
      <point x="433" y="988"/>
      <point x="517" y="988" type="curve" smooth="yes"/>
      <point x="592" y="988"/>
      <point x="653" y="972"/>
      <point x="704" y="953" type="curve"/>
      <point x="686" y="1203" type="line"/>
      <point x="634" y="1229"/>
      <point x="546" y="1253"/>
      <point x="441" y="1253" type="curve" smooth="yes"/>
      <point x="195" y="1253"/>
      <point x="75" y="1142"/>
      <point x="75" y="936" type="curve" smooth="yes"/>
      <point x="75" y="925" type="line" smooth="yes"/>
      <point x="75" y="752"/>
      <point x="180" y="663"/>
      <point x="319" y="630" type="curve" smooth="yes"/>
      <point x="361" y="620" type="line" smooth="yes"/>
      <point x="455" y="598"/>
      <point x="482" y="563"/>
      <point x="482" y="469" type="curve" smooth="yes"/>
      <point x="482" y="436"/>
      <point x="479" y="403"/>
    </contour>
  </outline>
</glyph>
<glyph name="Nukta.gj" format="2">
  <unicode hex="0ABC"/>
  <guideline x="257" y="93" angle="270"/>
  <anchor x="239" y="-59" name="_Bottom"/>
  <outline>
    <contour>
      <point x="257" y="-429" type="curve" smooth="yes"/>
      <point x="363" y="-429"/>
      <point x="414" y="-366"/>
      <point x="414" y="-260" type="curve" smooth="yes"/>
      <point x="414" y="-227" type="line" smooth="yes"/>
      <point x="414" y="-123"/>
      <point x="363" y="-59"/>
      <point x="257" y="-59" type="curve" smooth="yes"/>
      <point x="152" y="-59"/>
      <point x="100" y="-123"/>
      <point x="100" y="-227" type="curve" smooth="yes"/>
      <point x="100" y="-260" type="line" smooth="yes"/>
      <point x="100" y="-366"/>
      <point x="152" y="-429"/>
    </contour>
  </outline>
</glyph>
<glyph name="Avagraha.gj" format="2">
  <advance width="717"/>
  <unicode hex="0ABD"/>
  <guideline x="406" y="1332" angle="90"/>
  <outline>
    <contour>
      <point x="289" y="-22" type="curve" smooth="yes"/>
      <point x="553" y="-22"/>
      <point x="685" y="98"/>
      <point x="685" y="339" type="curve" smooth="yes"/>
      <point x="685" y="366" type="line" smooth="yes"/>
      <point x="685" y="550"/>
      <point x="621" y="630"/>
      <point x="499" y="714" type="curve" smooth="yes"/>
      <point x="442" y="753" type="line" smooth="yes"/>
      <point x="380" y="796"/>
      <point x="351" y="825"/>
      <point x="351" y="872" type="curve" smooth="yes"/>
      <point x="351" y="879" type="line" smooth="yes"/>
      <point x="351" y="939"/>
      <point x="388" y="966"/>
      <point x="475" y="966" type="curve" smooth="yes"/>
      <point x="628" y="966" type="line"/>
      <point x="606" y="1227" type="line"/>
      <point x="397" y="1227" type="line" smooth="yes"/>
      <point x="152" y="1227"/>
      <point x="33" y="1111"/>
      <point x="33" y="897" type="curve" smooth="yes"/>
      <point x="33" y="886" type="line" smooth="yes"/>
      <point x="33" y="747"/>
      <point x="89" y="653"/>
      <point x="238" y="547" type="curve" smooth="yes"/>
      <point x="287" y="512" type="line" smooth="yes"/>
      <point x="344" y="471"/>
      <point x="367" y="437"/>
      <point x="367" y="381" type="curve" smooth="yes"/>
      <point x="367" y="368" type="line" smooth="yes"/>
      <point x="367" y="298"/>
      <point x="321" y="251"/>
      <point x="233" y="251" type="curve" smooth="yes"/>
      <point x="156" y="251"/>
      <point x="95" y="282"/>
      <point x="38" y="313" type="curve"/>
      <point x="56" y="37" type="line"/>
      <point x="112" y="6"/>
      <point x="196" y="-22"/>
    </contour>
  </outline>
</glyph>
<glyph name="MatraA.gj" format="2">
  <advance width="441"/>
  <unicode hex="0ABE"/>
  <anchor x="202" y="-59" name="Bottom"/>
  <anchor x="179" y="1290" name="Top"/>
  <anchor x="220" y="1290" name="Top2"/>
  <outline>
    <contour>
      <point x="64" y="477" type="line"/>
      <point x="377" y="477" type="line"/>
      <point x="377" y="1227" type="line"/>
      <point x="64" y="1227" type="line"/>
    </contour>
    <contour>
      <point x="64" y="0" type="line"/>
      <point x="377" y="0" type="line"/>
      <point x="377" y="585" type="line"/>
      <point x="64" y="585" type="line"/>
    </contour>
  </outline>
</glyph>
<glyph name="MatraI.gj" format="2">
  <advance width="441"/>
  <unicode hex="0ABF"/>
  <guideline x="2367" y="0" angle="0"/>
  <guideline x="1277" y="1844" angle="90"/>
  <guideline x="1495" y="1844" angle="90"/>
  <guideline x="3389" y="4847" angle="90"/>
  <guideline x="0" y="720" angle="90"/>
  <guideline x="218" y="1844" angle="90"/>
  <guideline x="64" y="720" angle="90"/>
  <guideline x="377" y="720" angle="90"/>
  <guideline x="441" y="720" angle="90"/>
  <guideline x="1152" y="1360" angle="28.977"/>
  <guideline x="578" y="0" angle="0"/>
  <guideline x="1148" y="1350" angle="33.6302"/>
  <anchor x="202" y="-59" name="Bottom"/>
  <anchor x="179" y="1290" name="Top"/>
  <anchor x="220" y="1290" name="Top2"/>
  <outline>
    <contour>
      <point x="64" y="1183" type="curve"/>
      <point x="377" y="1183" type="line"/>
      <point x="377" y="1260"/>
      <point x="377" y="1307"/>
      <point x="377" y="1346" type="curve" smooth="yes"/>
      <point x="377" y="1510"/>
      <point x="464" y="1567"/>
      <point x="597" y="1567" type="curve" smooth="yes"/>
      <point x="761" y="1567"/>
      <point x="911" y="1463"/>
      <point x="1037" y="1290" type="curve"/>
      <point x="1258" y="1437" type="line"/>
      <point x="1121" y="1667"/>
      <point x="885" y="1829"/>
      <point x="597" y="1829" type="curve" smooth="yes"/>
      <point x="275" y="1829"/>
      <point x="64" y="1668"/>
      <point x="64" y="1346" type="curve" smooth="yes"/>
      <point x="64" y="1275"/>
      <point x="64" y="1233"/>
    </contour>
    <contour>
      <point x="64" y="477" type="line"/>
      <point x="377" y="477" type="line"/>
      <point x="377" y="1227" type="line"/>
      <point x="64" y="1227" type="line"/>
    </contour>
    <contour>
      <point x="64" y="0" type="line"/>
      <point x="377" y="0" type="line"/>
      <point x="377" y="585" type="line"/>
      <point x="64" y="585" type="line"/>
    </contour>
  </outline>
</glyph>
<glyph name="MatraIi.gj" format="2">
  <advance width="441"/>
  <unicode hex="0AC0"/>
  <guideline x="-1333" y="4410" angle="90"/>
  <guideline x="0" y="4591" angle="90"/>
  <guideline x="-280" y="2299" angle="270"/>
  <guideline x="-218" y="5893" angle="90"/>
  <guideline x="-1277" y="4716" angle="270"/>
  <guideline x="-959" y="4155" angle="0"/>
  <anchor x="202" y="-59" name="Bottom"/>
  <anchor x="179" y="1290" name="Top"/>
  <anchor x="220" y="1290" name="Top2"/>
  <outline>
    <contour>
      <point x="64" y="1100" type="line"/>
      <point x="377" y="1100" type="line"/>
      <point x="377" y="1441" type="line" smooth="yes"/>
      <point x="377" y="1697"/>
      <point x="253" y="1829"/>
      <point x="0" y="1829" type="curve" smooth="yes"/>
      <point x="-253" y="1829"/>
      <point x="-377" y="1697"/>
      <point x="-377" y="1441" type="curve" smooth="yes"/>
      <point x="-377" y="1290" type="line"/>
      <point x="-64" y="1290" type="line"/>
      <point x="-64" y="1484" type="line" smooth="yes"/>
      <point x="-64" y="1548"/>
      <point x="-46" y="1580"/>
      <point x="0" y="1580" type="curve" smooth="yes"/>
      <point x="46" y="1580"/>
      <point x="64" y="1548"/>
      <point x="64" y="1484" type="curve" smooth="yes"/>
    </contour>
    <contour>
      <point x="64" y="477" type="line"/>
      <point x="377" y="477" type="line"/>
      <point x="377" y="1227" type="line"/>
      <point x="64" y="1227" type="line"/>
    </contour>
    <contour>
      <point x="64" y="0" type="line"/>
      <point x="377" y="0" type="line"/>
      <point x="377" y="585" type="line"/>
      <point x="64" y="585" type="line"/>
    </contour>
  </outline>
</glyph>
<glyph name="MatraU.gj" format="2">
  <unicode hex="0AC1"/>
  <guideline x="1791" y="1290" angle="0"/>
  <guideline x="1791" y="1227" angle="0"/>
  <guideline x="449" y="-206" angle="86.4077"/>
  <guideline x="362" y="-182" angle="90"/>
  <guideline x="90" y="-182" angle="90"/>
  <anchor x="645" y="-59" name="_Bottom"/>
  <outline>
    <contour>
      <point x="584" y="-689" type="curve" smooth="yes"/>
      <point x="815" y="-689"/>
      <point x="922" y="-571"/>
      <point x="922" y="-376" type="curve" smooth="yes"/>
      <point x="922" y="-365" type="line" smooth="yes"/>
      <point x="922" y="-172"/>
      <point x="830" y="-59"/>
      <point x="635" y="-59" type="curve" smooth="yes"/>
      <point x="556" y="-59"/>
      <point x="497" y="-72"/>
      <point x="446" y="-94" type="curve"/>
      <point x="432" y="-309" type="line"/>
      <point x="481" y="-291"/>
      <point x="524" y="-283"/>
      <point x="571" y="-283" type="curve" smooth="yes"/>
      <point x="639" y="-283"/>
      <point x="667" y="-316"/>
      <point x="667" y="-374" type="curve" smooth="yes"/>
      <point x="667" y="-379" type="line" smooth="yes"/>
      <point x="667" y="-434"/>
      <point x="634" y="-465"/>
      <point x="568" y="-465" type="curve" smooth="yes"/>
      <point x="466" y="-465"/>
      <point x="398" y="-378"/>
      <point x="362" y="-192" type="curve"/>
      <point x="100" y="-192" type="line"/>
      <point x="157" y="-531"/>
      <point x="307" y="-689"/>
    </contour>
  </outline>
</glyph>
<glyph name="MatraUu.gj" format="2">
  <unicode hex="0AC2"/>
  <guideline x="1267" y="187" angle="0"/>
  <guideline x="509" y="-553" angle="264.8978"/>
  <guideline x="443" y="-210" angle="90"/>
  <guideline x="304" y="-372" angle="0"/>
  <anchor x="436" y="-59" name="_Bottom"/>
  <outline>
    <contour>
      <point x="621" y="-687" type="curve"/>
      <point x="892" y="-687" type="line"/>
      <point x="823" y="-236"/>
      <point x="740" y="-59"/>
      <point x="440" y="-59" type="curve" smooth="yes"/>
      <point x="221" y="-59"/>
      <point x="100" y="-175"/>
      <point x="100" y="-371" type="curve" smooth="yes"/>
      <point x="100" y="-385" type="line" smooth="yes"/>
      <point x="100" y="-595"/>
      <point x="222" y="-686"/>
      <point x="384" y="-686" type="curve" smooth="yes"/>
      <point x="438" y="-686"/>
      <point x="479" y="-678"/>
      <point x="509" y="-665" type="curve"/>
      <point x="529" y="-447" type="line"/>
      <point x="505" y="-457"/>
      <point x="472" y="-462"/>
      <point x="445" y="-462" type="curve" smooth="yes"/>
      <point x="387" y="-462"/>
      <point x="355" y="-434"/>
      <point x="355" y="-375" type="curve" smooth="yes"/>
      <point x="355" y="-369" type="line" smooth="yes"/>
      <point x="355" y="-315"/>
      <point x="386" y="-283"/>
      <point x="443" y="-283" type="curve" smooth="yes"/>
      <point x="542" y="-283"/>
      <point x="574" y="-346"/>
    </contour>
  </outline>
</glyph>
<glyph name="MatraRu.gj" format="2">
  <unicode hex="0AC3"/>
  <anchor x="425" y="-59" name="_Bottom"/>
  <outline>
    <contour>
      <point x="450" y="-689" type="curve" smooth="yes"/>
      <point x="525" y="-689"/>
      <point x="585" y="-676"/>
      <point x="633" y="-649" type="curve"/>
      <point x="653" y="-419" type="line"/>
      <point x="607" y="-443"/>
      <point x="552" y="-458"/>
      <point x="484" y="-458" type="curve" smooth="yes"/>
      <point x="398" y="-458"/>
      <point x="359" y="-430"/>
      <point x="359" y="-373" type="curve" smooth="yes"/>
      <point x="359" y="-369" type="line" smooth="yes"/>
      <point x="359" y="-313"/>
      <point x="391" y="-285"/>
      <point x="476" y="-285" type="curve" smooth="yes"/>
      <point x="600" y="-285" type="line"/>
      <point x="600" y="-59" type="line"/>
      <point x="449" y="-59" type="line" smooth="yes"/>
      <point x="210" y="-59"/>
      <point x="100" y="-169"/>
      <point x="100" y="-366" type="curve" smooth="yes"/>
      <point x="100" y="-376" type="line" smooth="yes"/>
      <point x="100" y="-584"/>
      <point x="233" y="-689"/>
    </contour>
  </outline>
</glyph>
<glyph name="MatraRuu.gj" format="2">
  <unicode hex="0AC4"/>
  <guideline x="429" y="-946" angle="0"/>
  <guideline x="937" y="-602" angle="0"/>
  <guideline x="470" y="-728" angle="0"/>
  <guideline x="404" y="-59" angle="90"/>
  <guideline x="135" y="-330" angle="90"/>
  <guideline x="645" y="-687" angle="90"/>
  <anchor x="404" y="-59" name="_Bottom"/>
  <outline>
    <contour>
      <point x="425" y="-602" type="curve" smooth="yes"/>
      <point x="498" y="-602"/>
      <point x="556" y="-591"/>
      <point x="603" y="-568" type="curve"/>
      <point x="620" y="-357" type="line"/>
      <point x="575" y="-378"/>
      <point x="521" y="-391"/>
      <point x="454" y="-391" type="curve" smooth="yes"/>
      <point x="375" y="-391"/>
      <point x="339" y="-371"/>
      <point x="339" y="-330" type="curve" smooth="yes"/>
      <point x="339" y="-326" type="line" smooth="yes"/>
      <point x="339" y="-285"/>
      <point x="369" y="-265"/>
      <point x="447" y="-265" type="curve" smooth="yes"/>
      <point x="574" y="-265" type="line"/>
      <point x="574" y="-59" type="line"/>
      <point x="424" y="-59" type="line" smooth="yes"/>
      <point x="202" y="-59"/>
      <point x="100" y="-154"/>
      <point x="100" y="-324" type="curve" smooth="yes"/>
      <point x="100" y="-332" type="line" smooth="yes"/>
      <point x="100" y="-445"/>
      <point x="158" y="-519"/>
      <point x="258" y="-555" type="curve"/>
      <point x="309" y="-590" type="line"/>
      <point x="344" y="-598"/>
      <point x="383" y="-602"/>
    </contour>
    <contour>
      <point x="409" y="-929" type="curve" smooth="yes"/>
      <point x="490" y="-929"/>
      <point x="554" y="-918"/>
      <point x="607" y="-895" type="curve"/>
      <point x="624" y="-688" type="line"/>
      <point x="579" y="-709"/>
      <point x="525" y="-722"/>
      <point x="458" y="-722" type="curve" smooth="yes"/>
      <point x="379" y="-722"/>
      <point x="343" y="-702"/>
      <point x="343" y="-661" type="curve" smooth="yes"/>
      <point x="343" y="-659" type="line" smooth="yes"/>
      <point x="343" y="-622"/>
      <point x="367" y="-598"/>
      <point x="451" y="-598" type="curve"/>
      <point x="232" y="-521" type="line"/>
      <point x="232" y="-554" type="line"/>
      <point x="145" y="-578"/>
      <point x="104" y="-635"/>
      <point x="104" y="-714" type="curve" smooth="yes"/>
      <point x="104" y="-718" type="line" smooth="yes"/>
      <point x="104" y="-858"/>
      <point x="220" y="-929"/>
    </contour>
  </outline>
</glyph>
<glyph name="MatraChandraE.gj" format="2">
  <unicode hex="0AC5"/>
  <guideline x="1704" y="1437" angle="90"/>
  <guideline x="1506" y="1453" angle="90"/>
  <guideline x="1391" y="1483" angle="90"/>
  <guideline x="201" y="1715" angle="238.7863"/>
  <guideline x="119" y="1580" angle="90"/>
  <guideline x="622" y="1342" angle="90"/>
  <guideline x="728" y="1342" angle="90"/>
  <anchor x="622" y="1290" name="_Top"/>
  <outline>
    <contour>
      <point x="728" y="1294" type="curve" smooth="yes"/>
      <point x="783" y="1294"/>
      <point x="835" y="1307"/>
      <point x="862" y="1321" type="curve"/>
      <point x="862" y="1561" type="line"/>
      <point x="849" y="1554"/>
      <point x="812" y="1542"/>
      <point x="771" y="1542" type="curve" smooth="yes"/>
      <point x="685" y="1542"/>
      <point x="627" y="1568"/>
      <point x="501" y="1672" type="curve" smooth="yes"/>
      <point x="282" y="1853" type="line"/>
      <point x="100" y="1632" type="line"/>
      <point x="323" y="1464" type="line" smooth="yes"/>
      <point x="522" y="1314"/>
      <point x="619" y="1294"/>
    </contour>
  </outline>
</glyph>
<glyph name="MatraE.gj" format="2">
  <unicode hex="0AC7"/>
  <guideline x="1706" y="1388" angle="56.853"/>
  <guideline x="1840" y="1437" angle="90"/>
  <guideline x="1642" y="1453" angle="90"/>
  <guideline x="1527" y="1483" angle="90"/>
  <guideline x="750" y="1350" angle="56.8887"/>
  <guideline x="690" y="1306" angle="90"/>
  <guideline x="710" y="1306" angle="90"/>
  <guideline x="202" y="1695" angle="238.7863"/>
  <guideline x="120" y="1661" angle="90"/>
  <anchor x="710" y="1290" name="_Top"/>
  <outline>
    <contour>
      <point x="710" y="1290" type="curve"/>
      <point x="819" y="1455" type="line"/>
      <point x="640" y="1586"/>
      <point x="462" y="1717"/>
      <point x="283" y="1849" type="curve"/>
      <point x="120" y="1580" type="line"/>
      <point x="317" y="1483"/>
      <point x="513" y="1386"/>
    </contour>
  </outline>
</glyph>
<glyph name="MatraAi.gj" format="2">
  <unicode hex="0AC8"/>
  <guideline x="1525" y="1418" angle="90"/>
  <guideline x="1635" y="1418" angle="90"/>
  <guideline x="1838" y="1437" angle="90"/>
  <guideline x="1640" y="1453" angle="90"/>
  <guideline x="1525" y="1483" angle="90"/>
  <guideline x="760" y="1370" angle="46.647"/>
  <guideline x="169" y="1609" angle="242.2815"/>
  <guideline x="428" y="1921" angle="215.5114"/>
  <guideline x="689" y="1306" angle="90"/>
  <guideline x="705" y="1306" angle="90"/>
  <anchor x="689" y="1290" name="_Top"/>
  <outline>
    <contour>
      <point x="689" y="1290" type="line"/>
      <point x="840" y="1450" type="line"/>
      <point x="529" y="1997" type="line"/>
      <point x="341" y="1837" type="line"/>
      <point x="630" y="1496" type="line"/>
      <point x="626" y="1491" type="line"/>
      <point x="245" y="1723" type="line"/>
      <point x="104" y="1515" type="line"/>
    </contour>
  </outline>
</glyph>
<glyph name="MatraChandraO.gj" format="2">
  <advance width="441"/>
  <unicode hex="0AC9"/>
  <guideline x="64" y="1359" angle="90"/>
  <guideline x="179" y="1306" angle="90"/>
  <guideline x="179" y="1342" angle="90"/>
  <guideline x="285" y="1342" angle="90"/>
  <anchor x="202" y="-59" name="Bottom"/>
  <anchor x="179" y="1290" name="Top"/>
  <anchor x="220" y="1290" name="Top2"/>
  <outline>
    <contour>
      <point x="64" y="477" type="line"/>
      <point x="377" y="477" type="line"/>
      <point x="377" y="1227" type="line"/>
      <point x="64" y="1227" type="line"/>
    </contour>
    <contour>
      <point x="64" y="0" type="line"/>
      <point x="377" y="0" type="line"/>
      <point x="377" y="585" type="line"/>
      <point x="64" y="585" type="line"/>
    </contour>
    <contour>
      <point x="285" y="1294" type="curve" smooth="yes"/>
      <point x="340" y="1294"/>
      <point x="392" y="1307"/>
      <point x="419" y="1321" type="curve"/>
      <point x="419" y="1561" type="line"/>
      <point x="406" y="1554"/>
      <point x="369" y="1542"/>
      <point x="328" y="1542" type="curve" smooth="yes"/>
      <point x="242" y="1542"/>
      <point x="184" y="1568"/>
      <point x="58" y="1672" type="curve" smooth="yes"/>
      <point x="-161" y="1853" type="line"/>
      <point x="-343" y="1632" type="line"/>
      <point x="-120" y="1464" type="line" smooth="yes"/>
      <point x="79" y="1314"/>
      <point x="176" y="1294"/>
    </contour>
  </outline>
</glyph>
<glyph name="Halant.gj" format="2">
  <unicode hex="0ACD"/>
  <anchor x="251" y="-59" name="_Bottom"/>
  <outline>
    <contour>
      <point x="527" y="-674" type="line"/>
      <point x="671" y="-534" type="line"/>
      <point x="317" y="-75" type="line"/>
      <point x="100" y="-277" type="line"/>
    </contour>
  </outline>
</glyph>
<glyph name="Om.gj" format="2">
  <advance width="1481"/>
  <unicode hex="0AD0"/>
  <anchor x="918" y="1114" name="_Top2"/>
  <outline>
    <contour>
      <point x="1091" y="37" type="curve" smooth="yes"/>
      <point x="1312" y="37"/>
      <point x="1426" y="155"/>
      <point x="1426" y="432" type="curve" smooth="yes"/>
      <point x="1426" y="673" type="line" smooth="yes"/>
      <point x="1426" y="951"/>
      <point x="1302" y="1076"/>
      <point x="1080" y="1076" type="curve" smooth="yes"/>
      <point x="855" y="1076"/>
      <point x="740" y="960"/>
      <point x="709" y="754" type="curve" smooth="yes"/>
      <point x="702" y="707" type="line" smooth="yes"/>
      <point x="689" y="620"/>
      <point x="677" y="559"/>
      <point x="611" y="559" type="curve" smooth="yes"/>
      <point x="583" y="559"/>
      <point x="552" y="571"/>
      <point x="523" y="585" type="curve"/>
      <point x="577" y="387" type="line"/>
      <point x="609" y="346"/>
      <point x="671" y="317"/>
      <point x="748" y="317" type="curve" smooth="yes"/>
      <point x="904" y="317"/>
      <point x="959" y="430"/>
      <point x="980" y="585" type="curve" smooth="yes"/>
      <point x="993" y="679" type="line" smooth="yes"/>
      <point x="1007" y="778"/>
      <point x="1024" y="811"/>
      <point x="1059" y="811" type="curve" smooth="yes"/>
      <point x="1094" y="811"/>
      <point x="1113" y="788"/>
      <point x="1113" y="696" type="curve" smooth="yes"/>
      <point x="1113" y="422" type="line" smooth="yes"/>
      <point x="1113" y="334"/>
      <point x="1068" y="295"/>
      <point x="1004" y="295" type="curve" smooth="yes"/>
      <point x="963" y="295"/>
      <point x="927" y="303"/>
      <point x="895" y="321" type="curve"/>
      <point x="913" y="80" type="line"/>
      <point x="957" y="54"/>
      <point x="1029" y="37"/>
    </contour>
    <contour>
      <point x="918" y="1154" type="curve" smooth="yes"/>
      <point x="1148" y="1154"/>
      <point x="1267" y="1248"/>
      <point x="1267" y="1460" type="curve" smooth="yes"/>
      <point x="1267" y="1480"/>
      <point x="1266" y="1500"/>
      <point x="1262" y="1528" type="curve"/>
      <point x="1072" y="1528" type="line"/>
      <point x="1072" y="1491" type="line" smooth="yes"/>
      <point x="1072" y="1382"/>
      <point x="1028" y="1335"/>
      <point x="918" y="1335" type="curve" smooth="yes"/>
      <point x="808" y="1335"/>
      <point x="764" y="1382"/>
      <point x="764" y="1491" type="curve" smooth="yes"/>
      <point x="764" y="1528" type="line"/>
      <point x="574" y="1528" type="line"/>
      <point x="570" y="1500"/>
      <point x="569" y="1480"/>
      <point x="569" y="1460" type="curve" smooth="yes"/>
      <point x="569" y="1248"/>
      <point x="689" y="1154"/>
    </contour>
    <contour>
      <point x="918" y="1392" type="curve" smooth="yes"/>
      <point x="988" y="1392"/>
      <point x="1014" y="1435"/>
      <point x="1014" y="1509" type="curve" smooth="yes"/>
      <point x="1014" y="1540" type="line" smooth="yes"/>
      <point x="1014" y="1611"/>
      <point x="988" y="1657"/>
      <point x="918" y="1657" type="curve" smooth="yes"/>
      <point x="848" y="1657"/>
      <point x="822" y="1611"/>
      <point x="822" y="1540" type="curve" smooth="yes"/>
      <point x="822" y="1509" type="line" smooth="yes"/>
      <point x="822" y="1435"/>
      <point x="848" y="1392"/>
    </contour>
    <contour>
      <point x="261" y="-26" type="curve" smooth="yes"/>
      <point x="524" y="-26"/>
      <point x="637" y="102"/>
      <point x="637" y="296" type="curve" smooth="yes"/>
      <point x="637" y="329" type="line" smooth="yes"/>
      <point x="637" y="485"/>
      <point x="567" y="592"/>
      <point x="427" y="620" type="curve"/>
      <point x="427" y="627" type="line"/>
      <point x="552" y="647"/>
      <point x="624" y="743"/>
      <point x="624" y="901" type="curve" smooth="yes"/>
      <point x="624" y="936" type="line" smooth="yes"/>
      <point x="624" y="1149"/>
      <point x="501" y="1253"/>
      <point x="280" y="1253" type="curve" smooth="yes"/>
      <point x="189" y="1253"/>
      <point x="116" y="1229"/>
      <point x="70" y="1203" type="curve"/>
      <point x="51" y="953" type="line"/>
      <point x="93" y="973"/>
      <point x="137" y="988"/>
      <point x="193" y="988" type="curve" smooth="yes"/>
      <point x="261" y="988"/>
      <point x="306" y="948"/>
      <point x="306" y="884" type="curve" smooth="yes"/>
      <point x="306" y="862" type="line" smooth="yes"/>
      <point x="306" y="802"/>
      <point x="266" y="762"/>
      <point x="202" y="760" type="curve" smooth="yes"/>
      <point x="80" y="756" type="line"/>
      <point x="80" y="495" type="line"/>
      <point x="202" y="491" type="line" smooth="yes"/>
      <point x="272" y="489"/>
      <point x="319" y="452"/>
      <point x="319" y="380" type="curve" smooth="yes"/>
      <point x="319" y="356" type="line" smooth="yes"/>
      <point x="319" y="285"/>
      <point x="273" y="247"/>
      <point x="194" y="247" type="curve" smooth="yes"/>
      <point x="130" y="247"/>
      <point x="81" y="270"/>
      <point x="32" y="300" type="curve"/>
      <point x="52" y="28" type="line"/>
      <point x="101" y="0"/>
      <point x="175" y="-26"/>
    </contour>
  </outline>
</glyph>
<glyph name="VowelRuu.gj" format="2">
  <advance width="1503"/>
  <unicode hex="0AE0"/>
  <anchor x="726" y="-59" name="Bottom"/>
  <anchor x="703" y="1290" name="Top"/>
  <anchor x="744" y="1290" name="Top2"/>
  <outline>
    <contour>
      <point x="1314" y="49" type="curve" smooth="yes"/>
      <point x="1375" y="49"/>
      <point x="1420" y="60"/>
      <point x="1455" y="75" type="curve"/>
      <point x="1470" y="318" type="line"/>
      <point x="1444" y="311"/>
      <point x="1422" y="305"/>
      <point x="1388" y="305" type="curve" smooth="yes"/>
      <point x="1336" y="305"/>
      <point x="1316" y="318"/>
      <point x="1316" y="347" type="curve" smooth="yes"/>
      <point x="1316" y="351" type="line" smooth="yes"/>
      <point x="1316" y="384"/>
      <point x="1338" y="399"/>
      <point x="1441" y="401" type="curve"/>
      <point x="1441" y="588" type="line"/>
      <point x="1371" y="643"/>
      <point x="1324" y="697"/>
      <point x="1296" y="771" type="curve"/>
      <point x="1083" y="684" type="line"/>
      <point x="1107" y="627"/>
      <point x="1148" y="576"/>
      <point x="1193" y="542" type="curve"/>
      <point x="1193" y="537" type="line"/>
      <point x="1081" y="506"/>
      <point x="1036" y="434"/>
      <point x="1036" y="307" type="curve" smooth="yes"/>
      <point x="1036" y="296" type="line" smooth="yes"/>
      <point x="1036" y="118"/>
      <point x="1148" y="49"/>
    </contour>
    <contour>
      <point x="152" y="421" type="curve"/>
      <point x="424" y="515" type="line"/>
      <point x="412" y="554" type="line"/>
      <point x="467" y="588"/>
      <point x="493" y="643"/>
      <point x="493" y="721" type="curve" smooth="yes"/>
      <point x="493" y="814" type="line" smooth="yes"/>
      <point x="493" y="1016"/>
      <point x="403" y="1107"/>
      <point x="211" y="1107" type="curve" smooth="yes"/>
      <point x="157" y="1107"/>
      <point x="94" y="1092"/>
      <point x="58" y="1074" type="curve"/>
      <point x="39" y="823" type="line"/>
      <point x="63" y="834"/>
      <point x="94" y="842"/>
      <point x="116" y="842" type="curve" smooth="yes"/>
      <point x="172" y="842"/>
      <point x="193" y="814"/>
      <point x="193" y="720" type="curve" smooth="yes"/>
      <point x="193" y="602" type="line" smooth="yes"/>
      <point x="193" y="500"/>
      <point x="182" y="456"/>
    </contour>
    <contour>
      <point x="38" y="80" type="line"/>
      <point x="666" y="382" type="line"/>
      <point x="666" y="672" type="line"/>
      <point x="548" y="618" type="line" smooth="yes"/>
      <point x="467" y="581"/>
      <point x="408" y="545"/>
      <point x="351" y="506" type="curve"/>
      <point x="323" y="510" type="line"/>
      <point x="38" y="373" type="line"/>
    </contour>
    <contour>
      <point x="811" y="448" type="line"/>
      <point x="1273" y="674" type="line"/>
      <point x="1160" y="897" type="line"/>
      <point x="811" y="727" type="line"/>
    </contour>
    <contour>
      <point x="1054" y="667" type="line"/>
      <point x="1302" y="711" type="line"/>
      <point x="1374" y="820" type="line"/>
      <point x="1361" y="926"/>
      <point x="1330" y="1035"/>
      <point x="1289" y="1105" type="curve"/>
      <point x="1054" y="1105" type="line"/>
    </contour>
    <contour>
      <point x="588" y="477" type="line"/>
      <point x="901" y="477" type="line"/>
      <point x="901" y="1227" type="line"/>
      <point x="588" y="1227" type="line"/>
    </contour>
    <contour>
      <point x="588" y="0" type="line"/>
      <point x="901" y="0" type="line"/>
      <point x="901" y="585" type="line"/>
      <point x="588" y="585" type="line"/>
    </contour>
  </outline>
</glyph>
<glyph name="VowelLruu.gj" format="2">
  <advance width="1292"/>
  <unicode hex="0AE1"/>
  <anchor x="926" y="1290" name="Top2"/>
  <outline>
    <contour>
      <point x="1024" y="-775" type="curve" smooth="yes"/>
      <point x="1105" y="-775"/>
      <point x="1171" y="-758"/>
      <point x="1224" y="-736" type="curve"/>
      <point x="1245" y="-473" type="line"/>
      <point x="1202" y="-497"/>
      <point x="1156" y="-514"/>
      <point x="1099" y="-514" type="curve" smooth="yes"/>
      <point x="1042" y="-514"/>
      <point x="1015" y="-491"/>
      <point x="1015" y="-450" type="curve" smooth="yes"/>
      <point x="1015" y="-446" type="line" smooth="yes"/>
      <point x="1015" y="-407"/>
      <point x="1033" y="-379"/>
      <point x="1077" y="-354" type="curve"/>
      <point x="819" y="-293" type="line"/>
      <point x="819" y="-322" type="line"/>
      <point x="736" y="-362"/>
      <point x="697" y="-435"/>
      <point x="697" y="-526" type="curve" smooth="yes"/>
      <point x="697" y="-531" type="line" smooth="yes"/>
      <point x="697" y="-686"/>
      <point x="813" y="-775"/>
    </contour>
    <contour>
      <point x="1030" y="-368" type="curve" smooth="yes"/>
      <point x="1111" y="-368"/>
      <point x="1177" y="-351"/>
      <point x="1230" y="-329" type="curve"/>
      <point x="1251" y="-66" type="line"/>
      <point x="1208" y="-90"/>
      <point x="1162" y="-107"/>
      <point x="1105" y="-107" type="curve" smooth="yes"/>
      <point x="1045" y="-107"/>
      <point x="1021" y="-83"/>
      <point x="1021" y="-39" type="curve" smooth="yes"/>
      <point x="1021" y="-35" type="line" smooth="yes"/>
      <point x="1021" y="116"/>
      <point x="1258" y="282"/>
      <point x="1258" y="626" type="curve" smooth="yes"/>
      <point x="1258" y="646" type="line" smooth="yes"/>
      <point x="1258" y="898"/>
      <point x="1141" y="1016"/>
      <point x="929" y="1016" type="curve" smooth="yes"/>
      <point x="761" y="1016"/>
      <point x="667" y="933"/>
      <point x="651" y="808" type="curve"/>
      <point x="586" y="808" type="line"/>
      <point x="586" y="329" type="line"/>
      <point x="791" y="329" type="line"/>
      <point x="800" y="619" type="line" smooth="yes"/>
      <point x="803" y="709"/>
      <point x="824" y="743"/>
      <point x="870" y="743" type="curve" smooth="yes"/>
      <point x="920" y="743"/>
      <point x="940" y="706"/>
      <point x="940" y="630" type="curve" smooth="yes"/>
      <point x="940" y="621" type="line" smooth="yes"/>
      <point x="940" y="336"/>
      <point x="703" y="258"/>
      <point x="703" y="-53" type="curve" smooth="yes"/>
      <point x="703" y="-61" type="line" smooth="yes"/>
      <point x="703" y="-256"/>
      <point x="819" y="-368"/>
    </contour>
    <contour>
      <point x="171" y="0" type="curve"/>
      <point x="497" y="0" type="line"/>
      <point x="497" y="2" type="line"/>
      <point x="400" y="129"/>
      <point x="368" y="243"/>
      <point x="368" y="438" type="curve" smooth="yes"/>
      <point x="368" y="614" type="line" smooth="yes"/>
      <point x="368" y="699"/>
      <point x="386" y="743"/>
      <point x="431" y="743" type="curve" smooth="yes"/>
      <point x="473" y="743"/>
      <point x="491" y="709"/>
      <point x="494" y="621" type="curve" smooth="yes"/>
      <point x="504" y="329" type="line"/>
      <point x="765" y="329" type="line"/>
      <point x="644" y="808" type="line"/>
      <point x="627" y="933"/>
      <point x="538" y="1016"/>
      <point x="377" y="1016" type="curve" smooth="yes"/>
      <point x="173" y="1016"/>
      <point x="50" y="892"/>
      <point x="50" y="629" type="curve" smooth="yes"/>
      <point x="50" y="440" type="line" smooth="yes"/>
      <point x="50" y="226"/>
      <point x="89" y="112"/>
    </contour>
    <contour>
      <point x="772" y="843" type="line"/>
      <point x="1080" y="843" type="line"/>
      <point x="1080" y="1227" type="line"/>
      <point x="772" y="1227" type="line"/>
    </contour>
  </outline>
</glyph>
<glyph name="MatraLru.gj" format="2">
  <unicode hex="0AE2"/>
  <guideline x="880" y="-1159" angle="0"/>
  <anchor x="718" y="-59" name="_Bottom"/>
  <outline>
    <contour>
      <point x="200" y="-593" type="curve"/>
      <point x="449" y="-593" type="line"/>
      <point x="374" y="-504"/>
      <point x="342" y="-438"/>
      <point x="342" y="-351" type="curve" smooth="yes"/>
      <point x="342" y="-327" type="line" smooth="yes"/>
      <point x="342" y="-267"/>
      <point x="359" y="-248"/>
      <point x="387" y="-248" type="curve" smooth="yes"/>
      <point x="414" y="-248"/>
      <point x="423" y="-261"/>
      <point x="425" y="-311" type="curve" smooth="yes"/>
      <point x="431" y="-432" type="line"/>
      <point x="620" y="-432" type="line"/>
      <point x="625" y="-318" type="line" smooth="yes"/>
      <point x="627" y="-264"/>
      <point x="641" y="-248"/>
      <point x="671" y="-248" type="curve" smooth="yes"/>
      <point x="699" y="-248"/>
      <point x="710" y="-267"/>
      <point x="710" y="-304" type="curve" smooth="yes"/>
      <point x="710" y="-308" type="line"/>
      <point x="947" y="-284" type="line"/>
      <point x="947" y="-280" type="line" smooth="yes"/>
      <point x="947" y="-137"/>
      <point x="871" y="-59"/>
      <point x="725" y="-59" type="curve" smooth="yes"/>
      <point x="615" y="-59"/>
      <point x="554" y="-101"/>
      <point x="534" y="-171" type="curve"/>
      <point x="526" y="-171" type="line"/>
      <point x="510" y="-101"/>
      <point x="453" y="-59"/>
      <point x="345" y="-59" type="curve" smooth="yes"/>
      <point x="188" y="-59"/>
      <point x="110" y="-150"/>
      <point x="110" y="-327" type="curve" smooth="yes"/>
      <point x="110" y="-334" type="line" smooth="yes"/>
      <point x="110" y="-442"/>
      <point x="132" y="-516"/>
    </contour>
    <contour>
      <point x="818" y="-749" type="curve" smooth="yes"/>
      <point x="868" y="-749"/>
      <point x="905" y="-740"/>
      <point x="932" y="-723" type="curve"/>
      <point x="938" y="-552" type="line"/>
      <point x="919" y="-565"/>
      <point x="895" y="-572"/>
      <point x="873" y="-572" type="curve" smooth="yes"/>
      <point x="841" y="-572"/>
      <point x="826" y="-562"/>
      <point x="826" y="-544" type="curve" smooth="yes"/>
      <point x="826" y="-522"/>
      <point x="838" y="-509"/>
      <point x="888" y="-447" type="curve" smooth="yes"/>
      <point x="927" y="-399"/>
      <point x="947" y="-350"/>
      <point x="947" y="-292" type="curve" smooth="yes"/>
      <point x="947" y="-283" type="line"/>
      <point x="710" y="-307" type="line"/>
      <point x="710" y="-309" type="line"/>
      <point x="710" y="-348"/>
      <point x="704" y="-366"/>
      <point x="666" y="-419" type="curve" smooth="yes"/>
      <point x="620" y="-484"/>
      <point x="607" y="-522"/>
      <point x="607" y="-575" type="curve" smooth="yes"/>
      <point x="607" y="-686"/>
      <point x="692" y="-749"/>
    </contour>
  </outline>
</glyph>
<glyph name="MatraLruu.gj" format="2">
  <unicode hex="0AE3"/>
  <guideline x="-1502" y="-467" angle="0"/>
  <guideline x="-1577" y="-978" angle="0"/>
  <guideline x="725"/>
  <guideline x="696" y="-717" angle="0"/>
  <anchor x="717" y="-59" name="_Bottom"/>
  <outline>
    <contour>
      <point x="200" y="-593" type="curve"/>
      <point x="449" y="-593" type="line"/>
      <point x="374" y="-504"/>
      <point x="342" y="-438"/>
      <point x="342" y="-351" type="curve" smooth="yes"/>
      <point x="342" y="-327" type="line" smooth="yes"/>
      <point x="342" y="-267"/>
      <point x="359" y="-248"/>
      <point x="387" y="-248" type="curve" smooth="yes"/>
      <point x="414" y="-248"/>
      <point x="423" y="-261"/>
      <point x="425" y="-311" type="curve" smooth="yes"/>
      <point x="431" y="-432" type="line"/>
      <point x="620" y="-432" type="line"/>
      <point x="625" y="-318" type="line" smooth="yes"/>
      <point x="627" y="-264"/>
      <point x="641" y="-248"/>
      <point x="671" y="-248" type="curve" smooth="yes"/>
      <point x="699" y="-248"/>
      <point x="710" y="-267"/>
      <point x="710" y="-304" type="curve" smooth="yes"/>
      <point x="710" y="-308" type="line"/>
      <point x="947" y="-284" type="line"/>
      <point x="947" y="-280" type="line" smooth="yes"/>
      <point x="947" y="-137"/>
      <point x="871" y="-59"/>
      <point x="725" y="-59" type="curve" smooth="yes"/>
      <point x="615" y="-59"/>
      <point x="554" y="-101"/>
      <point x="534" y="-171" type="curve"/>
      <point x="526" y="-171" type="line"/>
      <point x="510" y="-101"/>
      <point x="453" y="-59"/>
      <point x="345" y="-59" type="curve" smooth="yes"/>
      <point x="188" y="-59"/>
      <point x="110" y="-150"/>
      <point x="110" y="-327" type="curve" smooth="yes"/>
      <point x="110" y="-334" type="line" smooth="yes"/>
      <point x="110" y="-442"/>
      <point x="132" y="-516"/>
    </contour>
    <contour>
      <point x="828" y="-749" type="curve" smooth="yes"/>
      <point x="880" y="-749"/>
      <point x="919" y="-740"/>
      <point x="947" y="-723" type="curve"/>
      <point x="953" y="-552" type="line"/>
      <point x="930" y="-565"/>
      <point x="900" y="-572"/>
      <point x="873" y="-572" type="curve" smooth="yes"/>
      <point x="838" y="-572"/>
      <point x="821" y="-561"/>
      <point x="821" y="-542" type="curve" smooth="yes"/>
      <point x="821" y="-520"/>
      <point x="831" y="-508"/>
      <point x="888" y="-447" type="curve" smooth="yes"/>
      <point x="930" y="-402"/>
      <point x="947" y="-352"/>
      <point x="947" y="-292" type="curve" smooth="yes"/>
      <point x="947" y="-283" type="line"/>
      <point x="710" y="-307" type="line"/>
      <point x="710" y="-309" type="line"/>
      <point x="710" y="-348"/>
      <point x="706" y="-367"/>
      <point x="666" y="-419" type="curve" smooth="yes"/>
      <point x="614" y="-486"/>
      <point x="602" y="-522"/>
      <point x="602" y="-575" type="curve" smooth="yes"/>
      <point x="602" y="-686"/>
      <point x="693" y="-749"/>
    </contour>
    <contour>
      <point x="820" y="-978" type="curve" smooth="yes"/>
      <point x="881" y="-978"/>
      <point x="922" y="-967"/>
      <point x="951" y="-951" type="curve"/>
      <point x="960" y="-788" type="line"/>
      <point x="932" y="-804"/>
      <point x="902" y="-813"/>
      <point x="863" y="-813" type="curve" smooth="yes"/>
      <point x="824" y="-814"/>
      <point x="806" y="-796"/>
      <point x="806" y="-776" type="curve" smooth="yes"/>
      <point x="806" y="-755"/>
      <point x="820" y="-741"/>
      <point x="849" y="-732" type="curve"/>
      <point x="685" y="-703" type="line"/>
      <point x="685" y="-722" type="line"/>
      <point x="625" y="-737"/>
      <point x="598" y="-776"/>
      <point x="598" y="-827" type="curve" smooth="yes"/>
      <point x="598" y="-927"/>
      <point x="699" y="-979"/>
    </contour>
  </outline>
</glyph>
<glyph name="Zero.gj" format="2">
  <advance width="918"/>
  <unicode hex="0AE6"/>
  <outline>
    <contour>
      <point x="459" y="1253" type="curve" smooth="yes"/>
      <point x="204" y="1253"/>
      <point x="64" y="1108"/>
      <point x="64" y="829" type="curve" smooth="yes"/>
      <point x="64" y="574" type="line"/>
      <point x="377" y="574" type="line"/>
      <point x="377" y="836" type="line" smooth="yes"/>
      <point x="377" y="939"/>
      <point x="402" y="980"/>
      <point x="459" y="980" type="curve" smooth="yes"/>
      <point x="513" y="980"/>
      <point x="541" y="939"/>
      <point x="541" y="836" type="curve" smooth="yes"/>
      <point x="541" y="574" type="line"/>
      <point x="854" y="574" type="line"/>
      <point x="854" y="829" type="line" smooth="yes"/>
      <point x="854" y="1102"/>
      <point x="714" y="1253"/>
    </contour>
    <contour>
      <point x="459" y="-22" type="curve" smooth="yes"/>
      <point x="714" y="-22"/>
      <point x="854" y="129"/>
      <point x="854" y="402" type="curve" smooth="yes"/>
      <point x="854" y="657" type="line"/>
      <point x="541" y="657" type="line"/>
      <point x="541" y="395" type="line" smooth="yes"/>
      <point x="541" y="292"/>
      <point x="513" y="251"/>
      <point x="459" y="251" type="curve" smooth="yes"/>
      <point x="402" y="251"/>
      <point x="377" y="292"/>
      <point x="377" y="395" type="curve" smooth="yes"/>
      <point x="377" y="657" type="line"/>
      <point x="64" y="657" type="line"/>
      <point x="64" y="402" type="line" smooth="yes"/>
      <point x="64" y="123"/>
      <point x="204" y="-22"/>
    </contour>
  </outline>
</glyph>
<glyph name="One.gj" format="2">
  <advance width="860"/>
  <unicode hex="0AE7"/>
  <outline>
    <contour>
      <point x="261" y="313" type="curve" smooth="yes"/>
      <point x="374" y="313"/>
      <point x="436" y="386"/>
      <point x="451" y="497" type="curve"/>
      <point x="473" y="497" type="line"/>
      <point x="469" y="653" type="line"/>
      <point x="464" y="609"/>
      <point x="444" y="586"/>
      <point x="408" y="586" type="curve" smooth="yes"/>
      <point x="372" y="586"/>
      <point x="356" y="611"/>
      <point x="356" y="666" type="curve" smooth="yes"/>
      <point x="356" y="908" type="line" smooth="yes"/>
      <point x="356" y="963"/>
      <point x="368" y="988"/>
      <point x="409" y="988" type="curve" smooth="yes"/>
      <point x="450" y="988"/>
      <point x="462" y="963"/>
      <point x="462" y="908" type="curve" smooth="yes"/>
      <point x="462" y="543" type="line"/>
      <point x="775" y="543" type="line"/>
      <point x="775" y="873" type="line" smooth="yes"/>
      <point x="775" y="1135"/>
      <point x="664" y="1253"/>
      <point x="406" y="1253" type="curve" smooth="yes"/>
      <point x="152" y="1253"/>
      <point x="43" y="1135"/>
      <point x="43" y="873" type="curve" smooth="yes"/>
      <point x="43" y="646" type="line" smooth="yes"/>
      <point x="43" y="447"/>
      <point x="87" y="313"/>
    </contour>
    <contour>
      <point x="706" y="-14" type="curve" smooth="yes"/>
      <point x="750" y="-14"/>
      <point x="793" y="-10"/>
      <point x="835" y="0" type="curve"/>
      <point x="853" y="241" type="line"/>
      <point x="844" y="238"/>
      <point x="829" y="236"/>
      <point x="814" y="236" type="curve" smooth="yes"/>
      <point x="785" y="236"/>
      <point x="774" y="252"/>
      <point x="774" y="289" type="curve" smooth="yes"/>
      <point x="774" y="595" type="line"/>
      <point x="461" y="595" type="line"/>
      <point x="461" y="238" type="line" smooth="yes"/>
      <point x="461" y="68"/>
      <point x="538" y="-14"/>
    </contour>
  </outline>
</glyph>
<glyph name="Two.gj" format="2">
  <advance width="638"/>
  <unicode hex="0AE8"/>
  <guideline x="571" y="5" angle="270"/>
  <guideline x="167" y="835" angle="0"/>
  <outline>
    <contour>
      <point x="280" y="322" type="line"/>
      <point x="274" y="400" type="line"/>
      <point x="287" y="400" type="line" smooth="yes"/>
      <point x="485" y="400"/>
      <point x="588" y="515"/>
      <point x="588" y="752" type="curve" smooth="yes"/>
      <point x="588" y="893" type="line" smooth="yes"/>
      <point x="588" y="1140"/>
      <point x="472" y="1253"/>
      <point x="242" y="1253" type="curve" smooth="yes"/>
      <point x="169" y="1253"/>
      <point x="112" y="1240"/>
      <point x="62" y="1212" type="curve"/>
      <point x="43" y="962" type="line"/>
      <point x="78" y="979"/>
      <point x="108" y="986"/>
      <point x="152" y="986" type="curve" smooth="yes"/>
      <point x="222" y="986"/>
      <point x="270" y="947"/>
      <point x="270" y="862" type="curve" smooth="yes"/>
      <point x="270" y="759" type="line" smooth="yes"/>
      <point x="270" y="669"/>
      <point x="229" y="630"/>
      <point x="147" y="626" type="curve" smooth="yes"/>
      <point x="38" y="621" type="line"/>
      <point x="38" y="376" type="line"/>
    </contour>
    <contour>
      <point x="256" y="0" type="line"/>
      <point x="594" y="0" type="line"/>
      <point x="594" y="9" type="line"/>
      <point x="456" y="273" type="line" smooth="yes"/>
      <point x="415" y="352"/>
      <point x="372" y="408"/>
      <point x="322" y="470" type="curve"/>
      <point x="100" y="377" type="line"/>
    </contour>
  </outline>
</glyph>
<glyph name="Three.gj" format="2">
  <advance width="666"/>
  <unicode hex="0AE9"/>
  <outline>
    <contour>
      <point x="261" y="-26" type="curve" smooth="yes"/>
      <point x="524" y="-26"/>
      <point x="637" y="102"/>
      <point x="637" y="296" type="curve" smooth="yes"/>
      <point x="637" y="329" type="line" smooth="yes"/>
      <point x="637" y="485"/>
      <point x="567" y="592"/>
      <point x="427" y="620" type="curve"/>
      <point x="427" y="627" type="line"/>
      <point x="552" y="647"/>
      <point x="624" y="743"/>
      <point x="624" y="901" type="curve" smooth="yes"/>
      <point x="624" y="936" type="line" smooth="yes"/>
      <point x="624" y="1149"/>
      <point x="501" y="1253"/>
      <point x="280" y="1253" type="curve" smooth="yes"/>
      <point x="189" y="1253"/>
      <point x="116" y="1229"/>
      <point x="70" y="1203" type="curve"/>
      <point x="51" y="953" type="line"/>
      <point x="93" y="973"/>
      <point x="137" y="988"/>
      <point x="193" y="988" type="curve" smooth="yes"/>
      <point x="261" y="988"/>
      <point x="306" y="948"/>
      <point x="306" y="884" type="curve" smooth="yes"/>
      <point x="306" y="862" type="line" smooth="yes"/>
      <point x="306" y="802"/>
      <point x="266" y="762"/>
      <point x="202" y="760" type="curve" smooth="yes"/>
      <point x="80" y="756" type="line"/>
      <point x="80" y="495" type="line"/>
      <point x="202" y="491" type="line" smooth="yes"/>
      <point x="272" y="489"/>
      <point x="319" y="452"/>
      <point x="319" y="380" type="curve" smooth="yes"/>
      <point x="319" y="356" type="line" smooth="yes"/>
      <point x="319" y="285"/>
      <point x="273" y="247"/>
      <point x="194" y="247" type="curve" smooth="yes"/>
      <point x="130" y="247"/>
      <point x="81" y="270"/>
      <point x="32" y="300" type="curve"/>
      <point x="52" y="28" type="line"/>
      <point x="101" y="0"/>
      <point x="175" y="-26"/>
    </contour>
  </outline>
</glyph>
<glyph name="Four.gj" format="2">
  <advance width="917"/>
  <unicode hex="0AEA"/>
  <outline>
    <contour>
      <point x="454" y="-26" type="curve" smooth="yes"/>
      <point x="693" y="-26"/>
      <point x="811" y="88"/>
      <point x="811" y="311" type="curve" smooth="yes"/>
      <point x="811" y="342" type="line" smooth="yes"/>
      <point x="811" y="471"/>
      <point x="759" y="563"/>
      <point x="669" y="710" type="curve" smooth="yes"/>
      <point x="579" y="857" type="line"/>
      <point x="356" y="719" type="line"/>
      <point x="454" y="539" type="line" smooth="yes"/>
      <point x="493" y="467"/>
      <point x="511" y="417"/>
      <point x="511" y="351" type="curve" smooth="yes"/>
      <point x="511" y="307" type="line" smooth="yes"/>
      <point x="511" y="252"/>
      <point x="492" y="228"/>
      <point x="454" y="228" type="curve" smooth="yes"/>
      <point x="416" y="228"/>
      <point x="397" y="252"/>
      <point x="397" y="307" type="curve" smooth="yes"/>
      <point x="397" y="351" type="line" smooth="yes"/>
      <point x="397" y="417"/>
      <point x="415" y="467"/>
      <point x="454" y="539" type="curve" smooth="yes"/>
      <point x="552" y="719" type="line"/>
      <point x="329" y="857" type="line"/>
      <point x="239" y="710" type="line" smooth="yes"/>
      <point x="149" y="563"/>
      <point x="97" y="471"/>
      <point x="97" y="342" type="curve" smooth="yes"/>
      <point x="97" y="311" type="line" smooth="yes"/>
      <point x="97" y="88"/>
      <point x="215" y="-26"/>
    </contour>
    <contour>
      <point x="331" y="621" type="line"/>
      <point x="509" y="785" type="line"/>
      <point x="299" y="1227" type="line"/>
      <point x="-28" y="1227" type="line"/>
      <point x="-28" y="1205" type="line"/>
    </contour>
    <contour>
      <point x="586" y="621" type="line"/>
      <point x="945" y="1205" type="line"/>
      <point x="945" y="1227" type="line"/>
      <point x="618" y="1227" type="line"/>
      <point x="349" y="674" type="line"/>
    </contour>
  </outline>
</glyph>
<glyph name="Five.gj" format="2">
  <advance width="948"/>
  <unicode hex="0AEB"/>
  <guideline x="3171" y="2884" angle="90"/>
  <guideline x="872" y="859" angle="90"/>
  <guideline x="937" y="859" angle="90"/>
  <outline>
    <contour>
      <point x="342" y="278" type="curve" smooth="yes"/>
      <point x="471" y="278"/>
      <point x="534" y="353"/>
      <point x="554" y="456" type="curve"/>
      <point x="589" y="456" type="line"/>
      <point x="567" y="652" type="line"/>
      <point x="561" y="586"/>
      <point x="532" y="551"/>
      <point x="482" y="551" type="curve" smooth="yes"/>
      <point x="425" y="551"/>
      <point x="399" y="586"/>
      <point x="399" y="667" type="curve" smooth="yes"/>
      <point x="399" y="902" type="line"/>
      <point x="86" y="902" type="line"/>
      <point x="86" y="638" type="line" smooth="yes"/>
      <point x="86" y="421"/>
      <point x="136" y="278"/>
    </contour>
    <contour>
      <point x="776" y="-14" type="curve" smooth="yes"/>
      <point x="825" y="-14"/>
      <point x="874" y="-6"/>
      <point x="923" y="9" type="curve"/>
      <point x="941" y="250" type="line"/>
      <point x="934" y="248"/>
      <point x="923" y="246"/>
      <point x="912" y="246" type="curve" smooth="yes"/>
      <point x="883" y="246"/>
      <point x="872" y="262"/>
      <point x="872" y="299" type="curve" smooth="yes"/>
      <point x="872" y="569" type="line"/>
      <point x="563" y="569" type="line"/>
      <point x="563" y="248" type="line" smooth="yes"/>
      <point x="563" y="71"/>
      <point x="630" y="-14"/>
    </contour>
    <contour>
      <point x="559" y="515" type="line"/>
      <point x="872" y="511" type="line"/>
      <point x="872" y="1227" type="line"/>
      <point x="559" y="1227" type="line"/>
    </contour>
    <contour>
      <point x="86" y="770" type="line"/>
      <point x="399" y="770" type="line"/>
      <point x="399" y="991" type="line" smooth="yes"/>
      <point x="399" y="1161"/>
      <point x="322" y="1243"/>
      <point x="154" y="1243" type="curve" smooth="yes"/>
      <point x="110" y="1243"/>
      <point x="64" y="1235"/>
      <point x="24" y="1218" type="curve"/>
      <point x="7" y="986" type="line"/>
      <point x="16" y="990"/>
      <point x="31" y="993"/>
      <point x="46" y="993" type="curve" smooth="yes"/>
      <point x="75" y="993"/>
      <point x="86" y="977"/>
      <point x="86" y="940" type="curve" smooth="yes"/>
    </contour>
  </outline>
</glyph>
<glyph name="Six.gj" format="2">
  <advance width="828"/>
  <unicode hex="0AEC"/>
  <guideline x="2353" y="3675" angle="94.5905"/>
  <guideline x="52" y="867" angle="0"/>
  <guideline x="125" y="152" angle="273.0822"/>
  <outline>
    <contour>
      <point x="382" y="-26" type="curve" smooth="yes"/>
      <point x="659" y="-26"/>
      <point x="778" y="130"/>
      <point x="778" y="366" type="curve" smooth="yes"/>
      <point x="778" y="817" type="line"/>
      <point x="475" y="817" type="line"/>
      <point x="475" y="624" type="line"/>
      <point x="485" y="592" type="line"/>
      <point x="485" y="396" type="line" smooth="yes"/>
      <point x="485" y="287"/>
      <point x="430" y="227"/>
      <point x="308" y="227" type="curve" smooth="yes"/>
      <point x="238" y="227"/>
      <point x="166" y="248"/>
      <point x="98" y="282" type="curve"/>
      <point x="112" y="24" type="line"/>
      <point x="174" y="-4"/>
      <point x="260" y="-26"/>
    </contour>
    <contour>
      <point x="292" y="350" type="curve" smooth="yes"/>
      <point x="402" y="350"/>
      <point x="462" y="423"/>
      <point x="476" y="534" type="curve"/>
      <point x="498" y="534" type="line"/>
      <point x="481" y="710" type="line"/>
      <point x="478" y="653"/>
      <point x="458" y="623"/>
      <point x="423" y="623" type="curve" smooth="yes"/>
      <point x="377" y="623"/>
      <point x="357" y="660"/>
      <point x="357" y="743" type="curve" smooth="yes"/>
      <point x="357" y="782" type="line"/>
      <point x="44" y="782" type="line"/>
      <point x="44" y="703" type="line" smooth="yes"/>
      <point x="44" y="492"/>
      <point x="94" y="350"/>
    </contour>
    <contour>
      <point x="44" y="771" type="line"/>
      <point x="357" y="771" type="line"/>
      <point x="357" y="827" type="line" smooth="yes"/>
      <point x="357" y="937"/>
      <point x="411" y="988"/>
      <point x="516" y="988" type="curve" smooth="yes"/>
      <point x="602" y="988"/>
      <point x="671" y="970"/>
      <point x="732" y="951" type="curve"/>
      <point x="713" y="1201" type="line"/>
      <point x="656" y="1228"/>
      <point x="557" y="1253"/>
      <point x="438" y="1253" type="curve" smooth="yes"/>
      <point x="186" y="1253"/>
      <point x="44" y="1124"/>
      <point x="44" y="863" type="curve" smooth="yes"/>
    </contour>
  </outline>
</glyph>
<glyph name="Seven.gj" format="2">
  <advance width="1172"/>
  <unicode hex="0AED"/>
  <guideline x="1479" y="1825" angle="0"/>
  <guideline x="575" y="160" angle="90"/>
  <guideline x="1257" y="2308" angle="0"/>
  <guideline x="972" y="867" angle="0"/>
  <outline>
    <contour>
      <point x="575" y="-29" type="curve" smooth="yes"/>
      <point x="917" y="-32"/>
      <point x="1114" y="157"/>
      <point x="1114" y="509" type="curve" smooth="yes"/>
      <point x="1114" y="581" type="line"/>
      <point x="797" y="581" type="line"/>
      <point x="797" y="511" type="line" smooth="yes"/>
      <point x="797" y="333"/>
      <point x="722" y="238"/>
      <point x="575" y="238" type="curve" smooth="yes"/>
      <point x="434" y="238"/>
      <point x="344" y="305"/>
      <point x="344" y="511" type="curve" smooth="yes"/>
      <point x="344" y="578"/>
      <point x="344" y="634"/>
      <point x="344" y="674" type="curve"/>
      <point x="48" y="674" type="line"/>
      <point x="43" y="612"/>
      <point x="38" y="559"/>
      <point x="38" y="511" type="curve" smooth="yes"/>
      <point x="38" y="128"/>
      <point x="204" y="-26"/>
    </contour>
    <contour>
      <point x="608" y="367" type="curve" smooth="yes"/>
      <point x="716" y="364"/>
      <point x="775" y="440"/>
      <point x="789" y="551" type="curve"/>
      <point x="811" y="551" type="line"/>
      <point x="808" y="707" type="line"/>
      <point x="803" y="663"/>
      <point x="785" y="640"/>
      <point x="752" y="640" type="curve" smooth="yes"/>
      <point x="719" y="640"/>
      <point x="705" y="665"/>
      <point x="705" y="720" type="curve" smooth="yes"/>
      <point x="705" y="908" type="line" smooth="yes"/>
      <point x="705" y="963"/>
      <point x="716" y="988"/>
      <point x="753" y="988" type="curve" smooth="yes"/>
      <point x="790" y="988"/>
      <point x="801" y="963"/>
      <point x="801" y="908" type="curve" smooth="yes"/>
      <point x="801" y="567" type="line"/>
      <point x="1114" y="567" type="line"/>
      <point x="1114" y="850" type="line" smooth="yes"/>
      <point x="1114" y="1128"/>
      <point x="1006" y="1253"/>
      <point x="755" y="1253" type="curve" smooth="yes"/>
      <point x="508" y="1253"/>
      <point x="402" y="1132"/>
      <point x="402" y="863" type="curve" smooth="yes"/>
      <point x="402" y="658" type="line" smooth="yes"/>
      <point x="402" y="442"/>
      <point x="483" y="367"/>
    </contour>
  </outline>
</glyph>
<glyph name="Eight.gj" format="2">
  <advance width="796"/>
  <unicode hex="0AEE"/>
  <outline>
    <contour>
      <point x="483" y="-26" type="curve" smooth="yes"/>
      <point x="592" y="-26"/>
      <point x="692" y="4"/>
      <point x="742" y="36" type="curve"/>
      <point x="762" y="319" type="line"/>
      <point x="705" y="282"/>
      <point x="621" y="247"/>
      <point x="532" y="247" type="curve" smooth="yes"/>
      <point x="419" y="247"/>
      <point x="360" y="297"/>
      <point x="360" y="387" type="curve" smooth="yes"/>
      <point x="360" y="389" type="line" smooth="yes"/>
      <point x="360" y="471"/>
      <point x="431" y="605"/>
      <point x="574" y="891" type="curve" smooth="yes"/>
      <point x="742" y="1227" type="line"/>
      <point x="395" y="1227" type="line"/>
      <point x="253" y="953" type="line" smooth="yes"/>
      <point x="115" y="687"/>
      <point x="42" y="515"/>
      <point x="42" y="366" type="curve" smooth="yes"/>
      <point x="42" y="347" type="line" smooth="yes"/>
      <point x="42" y="106"/>
      <point x="198" y="-26"/>
    </contour>
  </outline>
</glyph>
<glyph name="Nine.gj" format="2">
  <advance width="876"/>
  <unicode hex="0AEF"/>
  <outline>
    <contour>
      <point x="493" y="-26" type="curve" smooth="yes"/>
      <point x="619" y="-26"/>
      <point x="734" y="11"/>
      <point x="792" y="50" type="curve"/>
      <point x="812" y="328" type="line"/>
      <point x="745" y="286"/>
      <point x="646" y="247"/>
      <point x="542" y="247" type="curve" smooth="yes"/>
      <point x="422" y="247"/>
      <point x="360" y="301"/>
      <point x="360" y="397" type="curve" smooth="yes"/>
      <point x="360" y="402" type="line" smooth="yes"/>
      <point x="360" y="482"/>
      <point x="408" y="620"/>
      <point x="548" y="891" type="curve" smooth="yes"/>
      <point x="722" y="1227" type="line"/>
      <point x="370" y="1227" type="line"/>
      <point x="233" y="953" type="line" smooth="yes"/>
      <point x="104" y="695"/>
      <point x="42" y="522"/>
      <point x="42" y="376" type="curve" smooth="yes"/>
      <point x="42" y="357" type="line" smooth="yes"/>
      <point x="42" y="120"/>
      <point x="202" y="-26"/>
    </contour>
    <contour>
      <point x="509" y="346" type="line"/>
      <point x="535" y="346" type="line"/>
      <point x="842" y="619" type="line"/>
      <point x="822" y="938" type="line"/>
      <point x="489" y="633" type="line"/>
    </contour>
  </outline>
</glyph>
<glyph name="AbbreviationSign.gj" format="2">
  <advance width="814"/>
  <unicode hex="0AF0"/>
  <outline>
    <contour>
      <point x="407" y="676" type="curve" smooth="yes"/>
      <point x="190" y="676"/>
      <point x="70" y="558"/>
      <point x="70" y="339" type="curve" smooth="yes"/>
      <point x="70" y="324" type="line"/>
      <point x="328" y="324" type="line"/>
      <point x="328" y="337" type="line" smooth="yes"/>
      <point x="328" y="433"/>
      <point x="351" y="470"/>
      <point x="407" y="470" type="curve" smooth="yes"/>
      <point x="458" y="470"/>
      <point x="486" y="433"/>
      <point x="486" y="337" type="curve" smooth="yes"/>
      <point x="486" y="324" type="line"/>
      <point x="744" y="324" type="line"/>
      <point x="744" y="339" type="line" smooth="yes"/>
      <point x="744" y="558"/>
      <point x="625" y="676"/>
    </contour>
    <contour>
      <point x="407" y="-22" type="curve" smooth="yes"/>
      <point x="625" y="-22"/>
      <point x="744" y="94"/>
      <point x="744" y="308" type="curve" smooth="yes"/>
      <point x="744" y="326" type="line"/>
      <point x="486" y="326" type="line"/>
      <point x="486" y="315" type="line" smooth="yes"/>
      <point x="486" y="221"/>
      <point x="458" y="184"/>
      <point x="407" y="184" type="curve" smooth="yes"/>
      <point x="351" y="184"/>
      <point x="328" y="221"/>
      <point x="328" y="315" type="curve" smooth="yes"/>
      <point x="328" y="328" type="line"/>
      <point x="70" y="328" type="line"/>
      <point x="70" y="308" type="line" smooth="yes"/>
      <point x="70" y="94"/>
      <point x="190" y="-22"/>
    </contour>
  </outline>
</glyph>
<glyph name="Zha.gj" format="2">
  <advance width="1226"/>
  <unicode hex="0AF9"/>
  <anchor x="786" y="-59" name="Bottom"/>
  <anchor x="930" y="1290" name="Top"/>
  <anchor x="1093" y="1290" name="Top2"/>
  <outline>
    <contour>
      <point x="878" y="631" type="line"/>
      <point x="1257" y="1205" type="line"/>
      <point x="1257" y="1227" type="line"/>
      <point x="930" y="1227" type="line"/>
      <point x="700" y="795" type="line"/>
    </contour>
    <contour>
      <point x="390" y="491" type="line"/>
      <point x="390" y="931" type="line" smooth="yes"/>
      <point x="390" y="970"/>
      <point x="402" y="988"/>
      <point x="424" y="988" type="curve" smooth="yes"/>
      <point x="446" y="988"/>
      <point x="454" y="977"/>
      <point x="475" y="938" type="curve" smooth="yes"/>
      <point x="670" y="578" type="line"/>
      <point x="867" y="797" type="line"/>
      <point x="707" y="1073" type="line" smooth="yes"/>
      <point x="640" y="1189"/>
      <point x="554" y="1253"/>
      <point x="404" y="1253" type="curve" smooth="yes"/>
      <point x="205" y="1253"/>
      <point x="98" y="1141"/>
      <point x="98" y="898" type="curve" smooth="yes"/>
      <point x="98" y="528" type="line"/>
    </contour>
    <contour>
      <point x="766" y="-22" type="curve" smooth="yes"/>
      <point x="1005" y="-22"/>
      <point x="1123" y="92"/>
      <point x="1123" y="315" type="curve" smooth="yes"/>
      <point x="1123" y="326" type="line" smooth="yes"/>
      <point x="1123" y="454"/>
      <point x="1070" y="544"/>
      <point x="981" y="690" type="curve" smooth="yes"/>
      <point x="891" y="837" type="line"/>
      <point x="668" y="699" type="line"/>
      <point x="766" y="519" type="line" smooth="yes"/>
      <point x="805" y="447"/>
      <point x="823" y="397"/>
      <point x="823" y="331" type="curve" smooth="yes"/>
      <point x="823" y="311" type="line" smooth="yes"/>
      <point x="823" y="256"/>
      <point x="804" y="232"/>
      <point x="766" y="232" type="curve" smooth="yes"/>
      <point x="727" y="232"/>
      <point x="709" y="256"/>
      <point x="709" y="311" type="curve" smooth="yes"/>
      <point x="709" y="350" type="line" smooth="yes"/>
      <point x="709" y="410"/>
      <point x="730" y="455"/>
      <point x="766" y="523" type="curve" smooth="yes"/>
      <point x="838" y="659" type="line"/>
      <point x="611" y="797" type="line"/>
      <point x="554" y="694" type="line" smooth="yes"/>
      <point x="470" y="543"/>
      <point x="409" y="464"/>
      <point x="409" y="340" type="curve" smooth="yes"/>
      <point x="409" y="315" type="line" smooth="yes"/>
      <point x="409" y="92"/>
      <point x="527" y="-22"/>
    </contour>
    <contour>
      <point x="425" y="-306" type="curve" smooth="yes"/>
      <point x="505" y="-306"/>
      <point x="544" y="-258"/>
      <point x="544" y="-178" type="curve" smooth="yes"/>
      <point x="544" y="-153" type="line" smooth="yes"/>
      <point x="544" y="-74"/>
      <point x="505" y="-26"/>
      <point x="425" y="-26" type="curve" smooth="yes"/>
      <point x="345" y="-26"/>
      <point x="306" y="-74"/>
      <point x="306" y="-153" type="curve" smooth="yes"/>
      <point x="306" y="-178" type="line" smooth="yes"/>
      <point x="306" y="-258"/>
      <point x="345" y="-306"/>
    </contour>
    <contour>
      <point x="166" y="-139" type="curve" smooth="yes"/>
      <point x="246" y="-139"/>
      <point x="285" y="-91"/>
      <point x="285" y="-11" type="curve" smooth="yes"/>
      <point x="285" y="14" type="line" smooth="yes"/>
      <point x="285" y="93"/>
      <point x="246" y="141"/>
      <point x="166" y="141" type="curve" smooth="yes"/>
      <point x="86" y="141"/>
      <point x="47" y="93"/>
      <point x="47" y="14" type="curve" smooth="yes"/>
      <point x="47" y="-11" type="line" smooth="yes"/>
      <point x="47" y="-91"/>
      <point x="86" y="-139"/>
    </contour>
    <contour>
      <point x="179" y="-509" type="curve" smooth="yes"/>
      <point x="259" y="-509"/>
      <point x="298" y="-461"/>
      <point x="298" y="-381" type="curve" smooth="yes"/>
      <point x="298" y="-356" type="line" smooth="yes"/>
      <point x="298" y="-277"/>
      <point x="259" y="-229"/>
      <point x="179" y="-229" type="curve" smooth="yes"/>
      <point x="99" y="-229"/>
      <point x="60" y="-277"/>
      <point x="60" y="-356" type="curve" smooth="yes"/>
      <point x="60" y="-381" type="line" smooth="yes"/>
      <point x="60" y="-461"/>
      <point x="99" y="-509"/>
    </contour>
  </outline>
</glyph>
<glyph name="Germandbls" format="2">
  <advance width="920"/>
  <unicode hex="1E9E"/>
  <anchor x="460" y="0" name="bottom"/>
  <anchor x="460" y="1278" name="top"/>
  <outline>
    <contour>
      <point x="374" y="0" type="line"/>
      <point x="374" y="857" type="line" smooth="yes"/>
      <point x="374" y="974"/>
      <point x="414" y="1021"/>
      <point x="511" y="1021" type="curve" smooth="yes"/>
      <point x="658" y="1021" type="line"/>
      <point x="618" y="1121" type="line"/>
      <point x="458" y="760" type="line"/>
      <point x="458" y="541" type="line"/>
      <point x="472" y="544"/>
      <point x="488" y="546"/>
      <point x="503" y="546" type="curve" smooth="yes"/>
      <point x="561" y="546"/>
      <point x="575" y="513"/>
      <point x="575" y="445" type="curve" smooth="yes"/>
      <point x="575" y="362" type="line" smooth="yes"/>
      <point x="575" y="296"/>
      <point x="551" y="265"/>
      <point x="504" y="265" type="curve" smooth="yes"/>
      <point x="478" y="265"/>
      <point x="458" y="270"/>
      <point x="438" y="279" type="curve"/>
      <point x="456" y="9" type="line"/>
      <point x="486" y="-2"/>
      <point x="531" y="-12"/>
      <point x="590" y="-12" type="curve" smooth="yes"/>
      <point x="786" y="-12"/>
      <point x="882" y="108"/>
      <point x="882" y="327" type="curve" smooth="yes"/>
      <point x="882" y="458" type="line" smooth="yes"/>
      <point x="882" y="619"/>
      <point x="817" y="726"/>
      <point x="660" y="726" type="curve"/>
      <point x="599" y="726"/>
      <point x="550" y="713"/>
      <point x="507" y="692" type="curve"/>
      <point x="683" y="644" type="line"/>
      <point x="851" y="1016" type="line"/>
      <point x="851" y="1278" type="line"/>
      <point x="470" y="1278" type="line" smooth="yes"/>
      <point x="190" y="1278"/>
      <point x="68" y="1143"/>
      <point x="68" y="862" type="curve" smooth="yes"/>
      <point x="68" y="0" type="line"/>
    </contour>
  </outline>
</glyph>
<glyph name="BaBa.gj" format="2">
  <advance width="2136"/>
  <anchor x="1897" y="-59" name="Bottom"/>
  <anchor x="1874" y="1290" name="Top"/>
  <anchor x="1915" y="1290" name="Top2"/>
  <outline>
    <contour>
      <point x="686" y="508" type="line"/>
      <point x="1108" y="508" type="line"/>
      <point x="1090" y="769" type="line"/>
      <point x="686" y="769" type="line"/>
    </contour>
    <contour>
      <point x="420" y="121" type="curve" smooth="yes"/>
      <point x="672" y="121"/>
      <point x="791" y="234"/>
      <point x="791" y="510" type="curve" smooth="yes"/>
      <point x="791" y="1027" type="line"/>
      <point x="493" y="1027" type="line"/>
      <point x="493" y="482" type="line" smooth="yes"/>
      <point x="493" y="425"/>
      <point x="475" y="394"/>
      <point x="428" y="394" type="curve" smooth="yes"/>
      <point x="377" y="394"/>
      <point x="363" y="425"/>
      <point x="363" y="482" type="curve" smooth="yes"/>
      <point x="363" y="791" type="line" smooth="yes"/>
      <point x="363" y="981"/>
      <point x="396" y="1108"/>
      <point x="477" y="1227" type="curve"/>
      <point x="162" y="1227" type="line"/>
      <point x="76" y="1117"/>
      <point x="50" y="997"/>
      <point x="50" y="799" type="curve" smooth="yes"/>
      <point x="50" y="510" type="line" smooth="yes"/>
      <point x="50" y="234"/>
      <point x="166" y="121"/>
    </contour>
    <contour>
      <point x="1759" y="477" type="line"/>
      <point x="2072" y="477" type="line"/>
      <point x="2072" y="1227" type="line"/>
      <point x="1759" y="1227" type="line"/>
    </contour>
    <contour>
      <point x="1759" y="0" type="line"/>
      <point x="2072" y="0" type="line"/>
      <point x="2072" y="585" type="line"/>
      <point x="1759" y="585" type="line"/>
    </contour>
    <contour>
      <point x="1540" y="508" type="line"/>
      <point x="1980" y="508" type="line"/>
      <point x="1962" y="769" type="line"/>
      <point x="1540" y="769" type="line"/>
    </contour>
    <contour>
      <point x="1274" y="121" type="curve" smooth="yes"/>
      <point x="1526" y="121"/>
      <point x="1645" y="234"/>
      <point x="1645" y="510" type="curve" smooth="yes"/>
      <point x="1645" y="1027" type="line"/>
      <point x="1347" y="1027" type="line"/>
      <point x="1347" y="482" type="line" smooth="yes"/>
      <point x="1347" y="425"/>
      <point x="1329" y="394"/>
      <point x="1282" y="394" type="curve" smooth="yes"/>
      <point x="1231" y="394"/>
      <point x="1217" y="425"/>
      <point x="1217" y="482" type="curve" smooth="yes"/>
      <point x="1217" y="791" type="line" smooth="yes"/>
      <point x="1217" y="981"/>
      <point x="1250" y="1108"/>
      <point x="1331" y="1227" type="curve"/>
      <point x="1016" y="1227" type="line"/>
      <point x="930" y="1117"/>
      <point x="904" y="997"/>
      <point x="904" y="799" type="curve" smooth="yes"/>
      <point x="904" y="510" type="line" smooth="yes"/>
      <point x="904" y="234"/>
      <point x="1020" y="121"/>
    </contour>
  </outline>
</glyph>
<glyph name="BaBha.gj" format="2">
  <advance width="2240"/>
  <anchor x="2001" y="-59" name="Bottom"/>
  <anchor x="1978" y="1290" name="Top"/>
  <anchor x="2019" y="1290" name="Top2"/>
  <outline>
    <contour>
      <point x="686" y="508" type="line"/>
      <point x="1117" y="508" type="line"/>
      <point x="1099" y="769" type="line"/>
      <point x="686" y="769" type="line"/>
    </contour>
    <contour>
      <point x="420" y="121" type="curve" smooth="yes"/>
      <point x="672" y="121"/>
      <point x="791" y="234"/>
      <point x="791" y="510" type="curve" smooth="yes"/>
      <point x="791" y="1027" type="line"/>
      <point x="493" y="1027" type="line"/>
      <point x="493" y="482" type="line" smooth="yes"/>
      <point x="493" y="425"/>
      <point x="475" y="394"/>
      <point x="428" y="394" type="curve" smooth="yes"/>
      <point x="377" y="394"/>
      <point x="363" y="425"/>
      <point x="363" y="482" type="curve" smooth="yes"/>
      <point x="363" y="791" type="line" smooth="yes"/>
      <point x="363" y="981"/>
      <point x="396" y="1108"/>
      <point x="477" y="1227" type="curve"/>
      <point x="162" y="1227" type="line"/>
      <point x="76" y="1117"/>
      <point x="50" y="997"/>
      <point x="50" y="799" type="curve" smooth="yes"/>
      <point x="50" y="510" type="line" smooth="yes"/>
      <point x="50" y="234"/>
      <point x="166" y="121"/>
    </contour>
    <contour>
      <point x="1863" y="477" type="line"/>
      <point x="2176" y="477" type="line"/>
      <point x="2176" y="1227" type="line"/>
      <point x="1863" y="1227" type="line"/>
    </contour>
    <contour>
      <point x="1863" y="0" type="line"/>
      <point x="2176" y="0" type="line"/>
      <point x="2176" y="585" type="line"/>
      <point x="1863" y="585" type="line"/>
    </contour>
    <contour>
      <point x="1604" y="463" type="line"/>
      <point x="1970" y="463" type="line"/>
      <point x="1952" y="724" type="line"/>
      <point x="1604" y="724" type="line"/>
    </contour>
    <contour>
      <point x="1054" y="0" type="curve"/>
      <point x="1377" y="0" type="line"/>
      <point x="1287" y="160"/>
      <point x="1247" y="307"/>
      <point x="1247" y="488" type="curve" smooth="yes"/>
      <point x="1247" y="778" type="line" smooth="yes"/>
      <point x="1247" y="921"/>
      <point x="1297" y="982"/>
      <point x="1382" y="982" type="curve" smooth="yes"/>
      <point x="1407" y="982"/>
      <point x="1444" y="975"/>
      <point x="1477" y="952" type="curve"/>
      <point x="1422" y="1056" type="line"/>
      <point x="1422" y="569" type="line"/>
      <point x="1727" y="569" type="line"/>
      <point x="1727" y="1163" type="line"/>
      <point x="1616" y="1227"/>
      <point x="1513" y="1253"/>
      <point x="1381" y="1253" type="curve" smooth="yes"/>
      <point x="1080" y="1253"/>
      <point x="934" y="1096"/>
      <point x="934" y="773" type="curve" smooth="yes"/>
      <point x="934" y="499" type="line" smooth="yes"/>
      <point x="934" y="276"/>
      <point x="971" y="125"/>
    </contour>
    <contour>
      <point x="1473" y="166" type="curve"/>
      <point x="1723" y="166" type="line"/>
      <point x="1723" y="712" type="line"/>
      <point x="1444" y="712" type="line"/>
      <point x="1328" y="629" type="line"/>
      <point x="1337" y="454"/>
      <point x="1390" y="291"/>
    </contour>
  </outline>
</glyph>
<glyph name="BaDa.gj" format="2">
  <advance width="1557"/>
  <anchor x="1306" y="-59" name="Bottom"/>
  <anchor x="1337" y="1290" name="Top"/>
  <anchor x="1261" y="1290" name="Top2"/>
  <outline>
    <contour>
      <point x="686" y="439" type="line"/>
      <point x="1192" y="439" type="line"/>
      <point x="1174" y="700" type="line"/>
      <point x="686" y="700" type="line"/>
    </contour>
    <contour>
      <point x="420" y="121" type="curve" smooth="yes"/>
      <point x="672" y="121"/>
      <point x="791" y="234"/>
      <point x="791" y="510" type="curve" smooth="yes"/>
      <point x="791" y="1027" type="line"/>
      <point x="493" y="1027" type="line"/>
      <point x="493" y="482" type="line" smooth="yes"/>
      <point x="493" y="425"/>
      <point x="475" y="394"/>
      <point x="428" y="394" type="curve" smooth="yes"/>
      <point x="377" y="394"/>
      <point x="363" y="425"/>
      <point x="363" y="482" type="curve" smooth="yes"/>
      <point x="363" y="791" type="line" smooth="yes"/>
      <point x="363" y="981"/>
      <point x="396" y="1108"/>
      <point x="477" y="1227" type="curve"/>
      <point x="162" y="1227" type="line"/>
      <point x="76" y="1117"/>
      <point x="50" y="997"/>
      <point x="50" y="799" type="curve" smooth="yes"/>
      <point x="50" y="510" type="line" smooth="yes"/>
      <point x="50" y="234"/>
      <point x="166" y="121"/>
    </contour>
    <contour>
      <point x="1298" y="-22" type="curve" smooth="yes"/>
      <point x="1384" y="-22"/>
      <point x="1458" y="4"/>
      <point x="1507" y="32" type="curve"/>
      <point x="1527" y="304" type="line"/>
      <point x="1478" y="274"/>
      <point x="1429" y="251"/>
      <point x="1365" y="251" type="curve" smooth="yes"/>
      <point x="1286" y="251"/>
      <point x="1240" y="289"/>
      <point x="1240" y="360" type="curve" smooth="yes"/>
      <point x="1240" y="382" type="line" smooth="yes"/>
      <point x="1240" y="454"/>
      <point x="1289" y="487"/>
      <point x="1361" y="491" type="curve" smooth="yes"/>
      <point x="1479" y="497" type="line"/>
      <point x="1479" y="762" type="line"/>
      <point x="1361" y="768" type="line" smooth="yes"/>
      <point x="1295" y="771"/>
      <point x="1253" y="807"/>
      <point x="1253" y="866" type="curve" smooth="yes"/>
      <point x="1253" y="884" type="line" smooth="yes"/>
      <point x="1253" y="948"/>
      <point x="1299" y="988"/>
      <point x="1368" y="988" type="curve" smooth="yes"/>
      <point x="1420" y="988"/>
      <point x="1466" y="972"/>
      <point x="1509" y="953" type="curve"/>
      <point x="1493" y="1201" type="line"/>
      <point x="1449" y="1227"/>
      <point x="1368" y="1253"/>
      <point x="1279" y="1253" type="curve" smooth="yes"/>
      <point x="1058" y="1253"/>
      <point x="935" y="1145"/>
      <point x="935" y="926" type="curve" smooth="yes"/>
      <point x="935" y="905" type="line" smooth="yes"/>
      <point x="935" y="747"/>
      <point x="1007" y="651"/>
      <point x="1132" y="631" type="curve"/>
      <point x="1132" y="624" type="line"/>
      <point x="992" y="596"/>
      <point x="922" y="489"/>
      <point x="922" y="333" type="curve" smooth="yes"/>
      <point x="922" y="310" type="line" smooth="yes"/>
      <point x="922" y="110"/>
      <point x="1035" y="-22"/>
    </contour>
  </outline>
</glyph>
<glyph name="BaDda.gj" format="2">
  <advance width="1620"/>
  <anchor x="1270" y="-59" name="Bottom"/>
  <anchor x="1340" y="1290" name="Top"/>
  <anchor x="1254" y="1290" name="Top2"/>
  <outline>
    <contour>
      <point x="686" y="566" type="line"/>
      <point x="1182" y="566" type="line"/>
      <point x="1164" y="827" type="line"/>
      <point x="686" y="827" type="line"/>
    </contour>
    <contour>
      <point x="420" y="121" type="curve" smooth="yes"/>
      <point x="672" y="121"/>
      <point x="791" y="234"/>
      <point x="791" y="510" type="curve" smooth="yes"/>
      <point x="791" y="1027" type="line"/>
      <point x="493" y="1027" type="line"/>
      <point x="493" y="482" type="line" smooth="yes"/>
      <point x="493" y="425"/>
      <point x="475" y="394"/>
      <point x="428" y="394" type="curve" smooth="yes"/>
      <point x="377" y="394"/>
      <point x="363" y="425"/>
      <point x="363" y="482" type="curve" smooth="yes"/>
      <point x="363" y="791" type="line" smooth="yes"/>
      <point x="363" y="981"/>
      <point x="396" y="1108"/>
      <point x="477" y="1227" type="curve"/>
      <point x="162" y="1227" type="line"/>
      <point x="76" y="1117"/>
      <point x="50" y="997"/>
      <point x="50" y="799" type="curve" smooth="yes"/>
      <point x="50" y="510" type="line" smooth="yes"/>
      <point x="50" y="234"/>
      <point x="166" y="121"/>
    </contour>
    <contour>
      <point x="1192" y="-22" type="curve" smooth="yes"/>
      <point x="1456" y="-22"/>
      <point x="1588" y="98"/>
      <point x="1588" y="339" type="curve" smooth="yes"/>
      <point x="1588" y="366" type="line" smooth="yes"/>
      <point x="1588" y="550"/>
      <point x="1524" y="630"/>
      <point x="1402" y="714" type="curve" smooth="yes"/>
      <point x="1345" y="753" type="line" smooth="yes"/>
      <point x="1282" y="796"/>
      <point x="1254" y="828"/>
      <point x="1254" y="877" type="curve" smooth="yes"/>
      <point x="1254" y="888" type="line" smooth="yes"/>
      <point x="1254" y="955"/>
      <point x="1292" y="984"/>
      <point x="1382" y="984" type="curve" smooth="yes"/>
      <point x="1437" y="984"/>
      <point x="1486" y="966"/>
      <point x="1532" y="945" type="curve"/>
      <point x="1514" y="1199" type="line"/>
      <point x="1470" y="1226"/>
      <point x="1389" y="1253"/>
      <point x="1300" y="1253" type="curve" smooth="yes"/>
      <point x="1055" y="1253"/>
      <point x="936" y="1133"/>
      <point x="936" y="913" type="curve" smooth="yes"/>
      <point x="936" y="886" type="line" smooth="yes"/>
      <point x="936" y="747"/>
      <point x="992" y="653"/>
      <point x="1141" y="547" type="curve" smooth="yes"/>
      <point x="1190" y="512" type="line" smooth="yes"/>
      <point x="1247" y="471"/>
      <point x="1270" y="437"/>
      <point x="1270" y="381" type="curve" smooth="yes"/>
      <point x="1270" y="368" type="line" smooth="yes"/>
      <point x="1270" y="298"/>
      <point x="1224" y="251"/>
      <point x="1136" y="251" type="curve" smooth="yes"/>
      <point x="1059" y="251"/>
      <point x="998" y="282"/>
      <point x="941" y="313" type="curve"/>
      <point x="959" y="37" type="line"/>
      <point x="1015" y="6"/>
      <point x="1099" y="-22"/>
    </contour>
  </outline>
</glyph>
<glyph name="BaDha.gj" format="2">
  <advance width="1843"/>
  <anchor x="1604" y="-59" name="Bottom"/>
  <anchor x="1581" y="1290" name="Top"/>
  <anchor x="1622" y="1290" name="Top2"/>
  <outline>
    <contour>
      <point x="686" y="481" type="line"/>
      <point x="1170" y="481" type="line"/>
      <point x="1152" y="742" type="line"/>
      <point x="686" y="742" type="line"/>
    </contour>
    <contour>
      <point x="420" y="121" type="curve" smooth="yes"/>
      <point x="672" y="121"/>
      <point x="791" y="234"/>
      <point x="791" y="510" type="curve" smooth="yes"/>
      <point x="791" y="1027" type="line"/>
      <point x="493" y="1027" type="line"/>
      <point x="493" y="482" type="line" smooth="yes"/>
      <point x="493" y="425"/>
      <point x="475" y="394"/>
      <point x="428" y="394" type="curve" smooth="yes"/>
      <point x="377" y="394"/>
      <point x="363" y="425"/>
      <point x="363" y="482" type="curve" smooth="yes"/>
      <point x="363" y="791" type="line" smooth="yes"/>
      <point x="363" y="981"/>
      <point x="396" y="1108"/>
      <point x="477" y="1227" type="curve"/>
      <point x="162" y="1227" type="line"/>
      <point x="76" y="1117"/>
      <point x="50" y="997"/>
      <point x="50" y="799" type="curve" smooth="yes"/>
      <point x="50" y="510" type="line" smooth="yes"/>
      <point x="50" y="234"/>
      <point x="166" y="121"/>
    </contour>
    <contour>
      <point x="1232" y="79" type="curve" smooth="yes"/>
      <point x="1372" y="79"/>
      <point x="1440" y="153"/>
      <point x="1455" y="256" type="curve"/>
      <point x="1489" y="256" type="line"/>
      <point x="1469" y="455" type="line"/>
      <point x="1458" y="387"/>
      <point x="1421" y="352"/>
      <point x="1357" y="352" type="curve" smooth="yes"/>
      <point x="1287" y="352"/>
      <point x="1254" y="389"/>
      <point x="1254" y="460" type="curve" smooth="yes"/>
      <point x="1254" y="466" type="line" smooth="yes"/>
      <point x="1254" y="530"/>
      <point x="1287" y="566"/>
      <point x="1348" y="572" type="curve" smooth="yes"/>
      <point x="1388" y="576" type="line"/>
      <point x="1388" y="834" type="line"/>
      <point x="1348" y="837" type="line" smooth="yes"/>
      <point x="1283" y="842"/>
      <point x="1249" y="885"/>
      <point x="1249" y="957" type="curve" smooth="yes"/>
      <point x="1249" y="970" type="line" smooth="yes"/>
      <point x="1249" y="1078"/>
      <point x="1273" y="1183"/>
      <point x="1303" y="1292" type="curve"/>
      <point x="1303" y="1301" type="line"/>
      <point x="994" y="1301" type="line"/>
      <point x="959" y="1190"/>
      <point x="933" y="1086"/>
      <point x="933" y="975" type="curve" smooth="yes"/>
      <point x="933" y="964" type="line" smooth="yes"/>
      <point x="933" y="811"/>
      <point x="994" y="725"/>
      <point x="1126" y="707" type="curve"/>
      <point x="1126" y="699" type="line"/>
      <point x="994" y="675"/>
      <point x="936" y="576"/>
      <point x="936" y="429" type="curve" smooth="yes"/>
      <point x="936" y="405" type="line" smooth="yes"/>
      <point x="936" y="208"/>
      <point x="1027" y="79"/>
    </contour>
    <contour>
      <point x="1466" y="477" type="line"/>
      <point x="1779" y="477" type="line"/>
      <point x="1779" y="1227" type="line"/>
      <point x="1466" y="1227" type="line"/>
    </contour>
    <contour>
      <point x="1466" y="0" type="line"/>
      <point x="1779" y="0" type="line"/>
      <point x="1779" y="585" type="line"/>
      <point x="1466" y="585" type="line"/>
    </contour>
  </outline>
</glyph>
<glyph name="BaDhaVa.gj" format="2">
  <advance width="2344"/>
  <anchor x="2105" y="-59" name="Bottom"/>
  <anchor x="2082" y="1290" name="Top"/>
  <anchor x="2123" y="1290" name="Top2"/>
  <outline>
    <contour>
      <point x="686" y="508" type="line"/>
      <point x="1201" y="508" type="line"/>
      <point x="1183" y="769" type="line"/>
      <point x="686" y="769" type="line"/>
    </contour>
    <contour>
      <point x="420" y="121" type="curve" smooth="yes"/>
      <point x="672" y="121"/>
      <point x="791" y="234"/>
      <point x="791" y="510" type="curve" smooth="yes"/>
      <point x="791" y="1027" type="line"/>
      <point x="493" y="1027" type="line"/>
      <point x="493" y="482" type="line" smooth="yes"/>
      <point x="493" y="425"/>
      <point x="475" y="394"/>
      <point x="428" y="394" type="curve" smooth="yes"/>
      <point x="377" y="394"/>
      <point x="363" y="425"/>
      <point x="363" y="482" type="curve" smooth="yes"/>
      <point x="363" y="791" type="line" smooth="yes"/>
      <point x="363" y="981"/>
      <point x="396" y="1108"/>
      <point x="477" y="1227" type="curve"/>
      <point x="162" y="1227" type="line"/>
      <point x="76" y="1117"/>
      <point x="50" y="997"/>
      <point x="50" y="799" type="curve" smooth="yes"/>
      <point x="50" y="510" type="line" smooth="yes"/>
      <point x="50" y="234"/>
      <point x="166" y="121"/>
    </contour>
    <contour>
      <point x="1270" y="79" type="curve" smooth="yes"/>
      <point x="1484" y="79"/>
      <point x="1551" y="208"/>
      <point x="1563" y="362" type="curve"/>
      <point x="1512" y="455" type="line"/>
      <point x="1499" y="387"/>
      <point x="1457" y="352"/>
      <point x="1385" y="352" type="curve" smooth="yes"/>
      <point x="1312" y="352"/>
      <point x="1277" y="389"/>
      <point x="1277" y="460" type="curve" smooth="yes"/>
      <point x="1277" y="466" type="line" smooth="yes"/>
      <point x="1277" y="530"/>
      <point x="1310" y="566"/>
      <point x="1371" y="572" type="curve" smooth="yes"/>
      <point x="1411" y="576" type="line"/>
      <point x="1411" y="834" type="line"/>
      <point x="1371" y="837" type="line" smooth="yes"/>
      <point x="1306" y="842"/>
      <point x="1272" y="885"/>
      <point x="1272" y="957" type="curve" smooth="yes"/>
      <point x="1272" y="970" type="line" smooth="yes"/>
      <point x="1272" y="1078"/>
      <point x="1296" y="1183"/>
      <point x="1326" y="1292" type="curve"/>
      <point x="1326" y="1301" type="line"/>
      <point x="1017" y="1301" type="line"/>
      <point x="982" y="1190"/>
      <point x="956" y="1086"/>
      <point x="956" y="975" type="curve" smooth="yes"/>
      <point x="956" y="964" type="line" smooth="yes"/>
      <point x="956" y="811"/>
      <point x="1017" y="725"/>
      <point x="1149" y="707" type="curve"/>
      <point x="1149" y="699" type="line"/>
      <point x="1017" y="675"/>
      <point x="959" y="576"/>
      <point x="959" y="429" type="curve" smooth="yes"/>
      <point x="959" y="405" type="line" smooth="yes"/>
      <point x="959" y="204"/>
      <point x="1052" y="79"/>
    </contour>
    <contour>
      <point x="1744" y="140" type="curve" smooth="yes"/>
      <point x="1870" y="140"/>
      <point x="1940" y="212"/>
      <point x="1955" y="321" type="curve"/>
      <point x="1975" y="321" type="line"/>
      <point x="1972" y="520" type="line"/>
      <point x="1966" y="450"/>
      <point x="1937" y="413"/>
      <point x="1885" y="413" type="curve" smooth="yes"/>
      <point x="1825" y="413"/>
      <point x="1799" y="450"/>
      <point x="1799" y="533" type="curve" smooth="yes"/>
      <point x="1799" y="857" type="line" smooth="yes"/>
      <point x="1799" y="929"/>
      <point x="1814" y="962"/>
      <point x="1865" y="962" type="curve" smooth="yes"/>
      <point x="1880" y="962"/>
      <point x="1889" y="960"/>
      <point x="1902" y="957" type="curve"/>
      <point x="1885" y="1205" type="line"/>
      <point x="1856" y="1218"/>
      <point x="1815" y="1227"/>
      <point x="1769" y="1227" type="curve" smooth="yes"/>
      <point x="1571" y="1227"/>
      <point x="1486" y="1115"/>
      <point x="1486" y="867" type="curve" smooth="yes"/>
      <point x="1486" y="493" type="line" smooth="yes"/>
      <point x="1486" y="282"/>
      <point x="1538" y="140"/>
    </contour>
    <contour>
      <point x="1967" y="477" type="line"/>
      <point x="2280" y="477" type="line"/>
      <point x="2280" y="1227" type="line"/>
      <point x="1967" y="1227" type="line"/>
    </contour>
    <contour>
      <point x="1967" y="0" type="line"/>
      <point x="2280" y="0" type="line"/>
      <point x="2280" y="585" type="line"/>
      <point x="1967" y="585" type="line"/>
    </contour>
  </outline>
</glyph>
<glyph name="BaHa.gj" format="2">
  <advance width="1718"/>
  <anchor x="1380" y="-59" name="Bottom"/>
  <anchor x="1387" y="1290" name="Top"/>
  <anchor x="1314" y="1290" name="Top2"/>
  <outline>
    <contour>
      <point x="686" y="623" type="line"/>
      <point x="1279" y="623" type="line"/>
      <point x="1261" y="884" type="line"/>
      <point x="686" y="884" type="line"/>
    </contour>
    <contour>
      <point x="420" y="121" type="curve" smooth="yes"/>
      <point x="672" y="121"/>
      <point x="791" y="234"/>
      <point x="791" y="510" type="curve" smooth="yes"/>
      <point x="791" y="1027" type="line"/>
      <point x="493" y="1027" type="line"/>
      <point x="493" y="482" type="line" smooth="yes"/>
      <point x="493" y="425"/>
      <point x="475" y="394"/>
      <point x="428" y="394" type="curve" smooth="yes"/>
      <point x="377" y="394"/>
      <point x="363" y="425"/>
      <point x="363" y="482" type="curve" smooth="yes"/>
      <point x="363" y="791" type="line" smooth="yes"/>
      <point x="363" y="981"/>
      <point x="396" y="1108"/>
      <point x="477" y="1227" type="curve"/>
      <point x="162" y="1227" type="line"/>
      <point x="76" y="1117"/>
      <point x="50" y="997"/>
      <point x="50" y="799" type="curve" smooth="yes"/>
      <point x="50" y="510" type="line" smooth="yes"/>
      <point x="50" y="234"/>
      <point x="166" y="121"/>
    </contour>
    <contour>
      <point x="1380" y="-26" type="curve" smooth="yes"/>
      <point x="1497" y="-26"/>
      <point x="1586" y="0"/>
      <point x="1650" y="29" type="curve"/>
      <point x="1670" y="302" type="line"/>
      <point x="1600" y="271"/>
      <point x="1532" y="247"/>
      <point x="1442" y="247" type="curve" smooth="yes"/>
      <point x="1310" y="247"/>
      <point x="1249" y="306"/>
      <point x="1249" y="433" type="curve" smooth="yes"/>
      <point x="1249" y="478"/>
      <point x="1249" y="528"/>
      <point x="1249" y="569" type="curve"/>
      <point x="955" y="569" type="line"/>
      <point x="942" y="509"/>
      <point x="936" y="444"/>
      <point x="936" y="382" type="curve" smooth="yes"/>
      <point x="936" y="112"/>
      <point x="1087" y="-26"/>
    </contour>
    <contour>
      <point x="1371" y="368" type="curve"/>
      <point x="1670" y="368" type="line"/>
      <point x="1683" y="435"/>
      <point x="1691" y="486"/>
      <point x="1691" y="543" type="curve" smooth="yes"/>
      <point x="1691" y="701"/>
      <point x="1622" y="793"/>
      <point x="1440" y="832" type="curve" smooth="yes"/>
      <point x="1407" y="839" type="line" smooth="yes"/>
      <point x="1319" y="858"/>
      <point x="1289" y="878"/>
      <point x="1289" y="916" type="curve" smooth="yes"/>
      <point x="1289" y="922" type="line" smooth="yes"/>
      <point x="1289" y="964"/>
      <point x="1329" y="988"/>
      <point x="1413" y="988" type="curve" smooth="yes"/>
      <point x="1488" y="988"/>
      <point x="1549" y="972"/>
      <point x="1600" y="953" type="curve"/>
      <point x="1582" y="1203" type="line"/>
      <point x="1530" y="1229"/>
      <point x="1442" y="1253"/>
      <point x="1337" y="1253" type="curve" smooth="yes"/>
      <point x="1091" y="1253"/>
      <point x="971" y="1142"/>
      <point x="971" y="936" type="curve" smooth="yes"/>
      <point x="971" y="925" type="line" smooth="yes"/>
      <point x="971" y="752"/>
      <point x="1076" y="663"/>
      <point x="1215" y="630" type="curve" smooth="yes"/>
      <point x="1257" y="620" type="line" smooth="yes"/>
      <point x="1351" y="598"/>
      <point x="1378" y="563"/>
      <point x="1378" y="469" type="curve" smooth="yes"/>
      <point x="1378" y="436"/>
      <point x="1375" y="403"/>
    </contour>
  </outline>
</glyph>
<glyph name="BaHalf.gj" format="2">
  <advance width="870"/>
  <outline>
    <contour>
      <point x="686" y="508" type="line"/>
      <point x="1052" y="508" type="line"/>
      <point x="1034" y="769" type="line"/>
      <point x="686" y="769" type="line"/>
    </contour>
    <contour>
      <point x="420" y="121" type="curve" smooth="yes"/>
      <point x="672" y="121"/>
      <point x="791" y="234"/>
      <point x="791" y="510" type="curve" smooth="yes"/>
      <point x="791" y="1027" type="line"/>
      <point x="493" y="1027" type="line"/>
      <point x="493" y="482" type="line" smooth="yes"/>
      <point x="493" y="425"/>
      <point x="475" y="394"/>
      <point x="428" y="394" type="curve" smooth="yes"/>
      <point x="377" y="394"/>
      <point x="363" y="425"/>
      <point x="363" y="482" type="curve" smooth="yes"/>
      <point x="363" y="791" type="line" smooth="yes"/>
      <point x="363" y="981"/>
      <point x="396" y="1108"/>
      <point x="477" y="1227" type="curve"/>
      <point x="162" y="1227" type="line"/>
      <point x="76" y="1117"/>
      <point x="50" y="997"/>
      <point x="50" y="799" type="curve" smooth="yes"/>
      <point x="50" y="510" type="line" smooth="yes"/>
      <point x="50" y="234"/>
      <point x="166" y="121"/>
    </contour>
  </outline>
</glyph>
<glyph name="BaHalf_alt.gj" format="2">
  <advance width="870"/>
  <guideline x="898" y="658" angle="270"/>
  <guideline x="1211" y="658" angle="270"/>
  <guideline x="822" y="598" angle="0"/>
  <outline>
    <contour>
      <point x="686" y="598" type="line"/>
      <point x="1052" y="598" type="line"/>
      <point x="1034" y="859" type="line"/>
      <point x="686" y="859" type="line"/>
    </contour>
    <contour>
      <point x="420" y="199" type="curve" smooth="yes"/>
      <point x="672" y="199"/>
      <point x="791" y="312"/>
      <point x="791" y="588" type="curve" smooth="yes"/>
      <point x="791" y="1042" type="line"/>
      <point x="493" y="1042" type="line"/>
      <point x="493" y="560" type="line" smooth="yes"/>
      <point x="493" y="503"/>
      <point x="475" y="472"/>
      <point x="428" y="472" type="curve" smooth="yes"/>
      <point x="377" y="472"/>
      <point x="363" y="503"/>
      <point x="363" y="560" type="curve" smooth="yes"/>
      <point x="363" y="791" type="line" smooth="yes"/>
      <point x="363" y="981"/>
      <point x="396" y="1108"/>
      <point x="477" y="1227" type="curve"/>
      <point x="162" y="1227" type="line"/>
      <point x="76" y="1117"/>
      <point x="50" y="997"/>
      <point x="50" y="799" type="curve" smooth="yes"/>
      <point x="50" y="588" type="line" smooth="yes"/>
      <point x="50" y="312"/>
      <point x="166" y="199"/>
    </contour>
  </outline>
</glyph>
<glyph name="BaJaYa.gj" format="2">
  <advance width="2992"/>
  <anchor x="2753" y="-59" name="Bottom"/>
  <anchor x="2730" y="1290" name="Top"/>
  <anchor x="2771" y="1290" name="Top2"/>
  <outline>
    <contour>
      <point x="686" y="591" type="line"/>
      <point x="1052" y="591" type="line"/>
      <point x="1034" y="852" type="line"/>
      <point x="686" y="852" type="line"/>
    </contour>
    <contour>
      <point x="420" y="121" type="curve" smooth="yes"/>
      <point x="672" y="121"/>
      <point x="791" y="234"/>
      <point x="791" y="510" type="curve" smooth="yes"/>
      <point x="791" y="1027" type="line"/>
      <point x="493" y="1027" type="line"/>
      <point x="493" y="482" type="line" smooth="yes"/>
      <point x="493" y="425"/>
      <point x="475" y="394"/>
      <point x="428" y="394" type="curve" smooth="yes"/>
      <point x="377" y="394"/>
      <point x="363" y="425"/>
      <point x="363" y="482" type="curve" smooth="yes"/>
      <point x="363" y="791" type="line" smooth="yes"/>
      <point x="363" y="981"/>
      <point x="396" y="1108"/>
      <point x="477" y="1227" type="curve"/>
      <point x="162" y="1227" type="line"/>
      <point x="76" y="1117"/>
      <point x="50" y="997"/>
      <point x="50" y="799" type="curve" smooth="yes"/>
      <point x="50" y="510" type="line" smooth="yes"/>
      <point x="50" y="234"/>
      <point x="166" y="121"/>
    </contour>
    <contour>
      <point x="1216" y="491" type="line"/>
      <point x="1216" y="931" type="line" smooth="yes"/>
      <point x="1216" y="970"/>
      <point x="1228" y="988"/>
      <point x="1250" y="988" type="curve" smooth="yes"/>
      <point x="1272" y="988"/>
      <point x="1280" y="977"/>
      <point x="1301" y="938" type="curve" smooth="yes"/>
      <point x="1496" y="578" type="line"/>
      <point x="1693" y="797" type="line"/>
      <point x="1533" y="1073" type="line" smooth="yes"/>
      <point x="1466" y="1189"/>
      <point x="1380" y="1253"/>
      <point x="1230" y="1253" type="curve" smooth="yes"/>
      <point x="1031" y="1253"/>
      <point x="924" y="1141"/>
      <point x="924" y="898" type="curve" smooth="yes"/>
      <point x="924" y="528" type="line"/>
    </contour>
    <contour>
      <point x="1592" y="-22" type="curve" smooth="yes"/>
      <point x="1831" y="-22"/>
      <point x="1949" y="92"/>
      <point x="1949" y="315" type="curve" smooth="yes"/>
      <point x="1949" y="326" type="line" smooth="yes"/>
      <point x="1949" y="454"/>
      <point x="1896" y="544"/>
      <point x="1807" y="690" type="curve" smooth="yes"/>
      <point x="1717" y="837" type="line"/>
      <point x="1494" y="699" type="line"/>
      <point x="1592" y="519" type="line" smooth="yes"/>
      <point x="1631" y="447"/>
      <point x="1649" y="397"/>
      <point x="1649" y="331" type="curve" smooth="yes"/>
      <point x="1649" y="311" type="line" smooth="yes"/>
      <point x="1649" y="256"/>
      <point x="1630" y="232"/>
      <point x="1592" y="232" type="curve" smooth="yes"/>
      <point x="1553" y="232"/>
      <point x="1535" y="256"/>
      <point x="1535" y="311" type="curve" smooth="yes"/>
      <point x="1535" y="350" type="line" smooth="yes"/>
      <point x="1535" y="410"/>
      <point x="1556" y="455"/>
      <point x="1592" y="523" type="curve" smooth="yes"/>
      <point x="1664" y="659" type="line"/>
      <point x="1437" y="797" type="line"/>
      <point x="1380" y="694" type="line" smooth="yes"/>
      <point x="1296" y="543"/>
      <point x="1235" y="464"/>
      <point x="1235" y="340" type="curve" smooth="yes"/>
      <point x="1235" y="315" type="line" smooth="yes"/>
      <point x="1235" y="92"/>
      <point x="1353" y="-22"/>
    </contour>
    <contour>
      <point x="1778" y="623" type="line"/>
      <point x="2117" y="620" type="line"/>
      <point x="2101" y="872" type="line"/>
      <point x="1861" y="869" type="line"/>
      <point x="1449" y="829" type="line"/>
      <point x="1449" y="629" type="line"/>
    </contour>
    <contour>
      <point x="2357" y="98" type="curve" smooth="yes"/>
      <point x="2514" y="98"/>
      <point x="2585" y="170"/>
      <point x="2605" y="280" type="curve"/>
      <point x="2636" y="280" type="line"/>
      <point x="2624" y="479" type="line"/>
      <point x="2607" y="425"/>
      <point x="2580" y="371"/>
      <point x="2479" y="371" type="curve" smooth="yes"/>
      <point x="2376" y="371"/>
      <point x="2333" y="433"/>
      <point x="2333" y="549" type="curve" smooth="yes"/>
      <point x="2333" y="605"/>
      <point x="2335" y="640"/>
      <point x="2337" y="699" type="curve"/>
      <point x="2129" y="539" type="line"/>
      <point x="2280" y="539" type="line" smooth="yes"/>
      <point x="2438" y="539"/>
      <point x="2517" y="638"/>
      <point x="2517" y="843" type="curve" smooth="yes"/>
      <point x="2517" y="910" type="line" smooth="yes"/>
      <point x="2517" y="1146"/>
      <point x="2423" y="1253"/>
      <point x="2232" y="1253" type="curve" smooth="yes"/>
      <point x="2160" y="1253"/>
      <point x="2100" y="1238"/>
      <point x="2050" y="1214" type="curve"/>
      <point x="2032" y="964" type="line"/>
      <point x="2061" y="979"/>
      <point x="2089" y="988"/>
      <point x="2124" y="988" type="curve" smooth="yes"/>
      <point x="2184" y="988"/>
      <point x="2214" y="955"/>
      <point x="2214" y="881" type="curve" smooth="yes"/>
      <point x="2214" y="850" type="line" smooth="yes"/>
      <point x="2214" y="765"/>
      <point x="2181" y="727"/>
      <point x="2107" y="725" type="curve" smooth="yes"/>
      <point x="2026" y="723" type="line"/>
      <point x="2019" y="668"/>
      <point x="2017" y="618"/>
      <point x="2017" y="530" type="curve" smooth="yes"/>
      <point x="2017" y="270"/>
      <point x="2118" y="98"/>
    </contour>
    <contour>
      <point x="2615" y="477" type="line"/>
      <point x="2928" y="477" type="line"/>
      <point x="2928" y="1227" type="line"/>
      <point x="2615" y="1227" type="line"/>
    </contour>
    <contour>
      <point x="2615" y="0" type="line"/>
      <point x="2928" y="0" type="line"/>
      <point x="2928" y="585" type="line"/>
      <point x="2615" y="585" type="line"/>
    </contour>
  </outline>
</glyph>
<glyph name="BaJha.gj" format="2">
  <advance width="1913"/>
  <anchor x="1570" y="-59" name="Bottom"/>
  <anchor x="1579" y="1290" name="Top"/>
  <anchor x="1724" y="1290" name="Top2"/>
  <outline>
    <contour>
      <point x="686" y="554" type="line"/>
      <point x="941" y="554" type="line"/>
      <point x="923" y="815" type="line"/>
      <point x="686" y="815" type="line"/>
    </contour>
    <contour>
      <point x="420" y="121" type="curve" smooth="yes"/>
      <point x="672" y="121"/>
      <point x="791" y="234"/>
      <point x="791" y="510" type="curve" smooth="yes"/>
      <point x="791" y="1027" type="line"/>
      <point x="493" y="1027" type="line"/>
      <point x="493" y="482" type="line" smooth="yes"/>
      <point x="493" y="425"/>
      <point x="475" y="394"/>
      <point x="428" y="394" type="curve" smooth="yes"/>
      <point x="377" y="394"/>
      <point x="363" y="425"/>
      <point x="363" y="482" type="curve" smooth="yes"/>
      <point x="363" y="791" type="line" smooth="yes"/>
      <point x="363" y="981"/>
      <point x="396" y="1108"/>
      <point x="477" y="1227" type="curve"/>
      <point x="162" y="1227" type="line"/>
      <point x="76" y="1117"/>
      <point x="50" y="997"/>
      <point x="50" y="799" type="curve" smooth="yes"/>
      <point x="50" y="510" type="line" smooth="yes"/>
      <point x="50" y="234"/>
      <point x="166" y="121"/>
    </contour>
    <contour>
      <point x="1079" y="125" type="curve" smooth="yes"/>
      <point x="1289" y="125"/>
      <point x="1399" y="239"/>
      <point x="1399" y="493" type="curve" smooth="yes"/>
      <point x="1399" y="898" type="line" smooth="yes"/>
      <point x="1399" y="1142"/>
      <point x="1293" y="1253"/>
      <point x="1090" y="1253" type="curve" smooth="yes"/>
      <point x="1019" y="1253"/>
      <point x="959" y="1238"/>
      <point x="911" y="1212" type="curve"/>
      <point x="892" y="962" type="line"/>
      <point x="924" y="979"/>
      <point x="953" y="986"/>
      <point x="992" y="986" type="curve" smooth="yes"/>
      <point x="1052" y="986"/>
      <point x="1086" y="951"/>
      <point x="1086" y="874" type="curve" smooth="yes"/>
      <point x="1086" y="517" type="line" smooth="yes"/>
      <point x="1086" y="431"/>
      <point x="1051" y="392"/>
      <point x="981" y="392" type="curve" smooth="yes"/>
      <point x="939" y="392"/>
      <point x="907" y="399"/>
      <point x="874" y="416" type="curve"/>
      <point x="892" y="169" type="line"/>
      <point x="941" y="138"/>
      <point x="1004" y="125"/>
    </contour>
    <contour>
      <point x="1570" y="-22" type="curve" smooth="yes"/>
      <point x="1771" y="-22"/>
      <point x="1867" y="92"/>
      <point x="1867" y="346" type="curve" smooth="yes"/>
      <point x="1867" y="456" type="line" smooth="yes"/>
      <point x="1867" y="672"/>
      <point x="1751" y="767"/>
      <point x="1602" y="776" type="curve"/>
      <point x="1598" y="802" type="line"/>
      <point x="1381" y="802" type="line"/>
      <point x="1381" y="570" type="line"/>
      <point x="1445" y="570" type="line" smooth="yes"/>
      <point x="1526" y="570"/>
      <point x="1557" y="535"/>
      <point x="1557" y="440" type="curve" smooth="yes"/>
      <point x="1557" y="361" type="line" smooth="yes"/>
      <point x="1557" y="274"/>
      <point x="1526" y="236"/>
      <point x="1465" y="236" type="curve" smooth="yes"/>
      <point x="1430" y="236"/>
      <point x="1405" y="241"/>
      <point x="1377" y="252" type="curve"/>
      <point x="1395" y="11" type="line"/>
      <point x="1440" y="-9"/>
      <point x="1500" y="-22"/>
    </contour>
    <contour>
      <point x="1669" y="696" type="line"/>
      <point x="1727" y="791"/>
      <point x="1768" y="872"/>
      <point x="1802" y="970" type="curve" smooth="yes"/>
      <point x="1889" y="1218" type="line"/>
      <point x="1889" y="1227" type="line"/>
      <point x="1559" y="1227" type="line"/>
      <point x="1442" y="767" type="line"/>
    </contour>
  </outline>
</glyph>
<glyph name="BaLa.gj" format="2">
  <advance width="1979"/>
  <anchor x="1740" y="-59" name="Bottom"/>
  <anchor x="1717" y="1290" name="Top"/>
  <anchor x="1758" y="1290" name="Top2"/>
  <outline>
    <contour>
      <point x="686" y="508" type="line"/>
      <point x="1110" y="508" type="line"/>
      <point x="1092" y="769" type="line"/>
      <point x="686" y="769" type="line"/>
    </contour>
    <contour>
      <point x="420" y="121" type="curve" smooth="yes"/>
      <point x="672" y="121"/>
      <point x="791" y="234"/>
      <point x="791" y="510" type="curve" smooth="yes"/>
      <point x="791" y="1027" type="line"/>
      <point x="493" y="1027" type="line"/>
      <point x="493" y="482" type="line" smooth="yes"/>
      <point x="493" y="425"/>
      <point x="475" y="394"/>
      <point x="428" y="394" type="curve" smooth="yes"/>
      <point x="377" y="394"/>
      <point x="363" y="425"/>
      <point x="363" y="482" type="curve" smooth="yes"/>
      <point x="363" y="791" type="line" smooth="yes"/>
      <point x="363" y="981"/>
      <point x="396" y="1108"/>
      <point x="477" y="1227" type="curve"/>
      <point x="162" y="1227" type="line"/>
      <point x="76" y="1117"/>
      <point x="50" y="997"/>
      <point x="50" y="799" type="curve" smooth="yes"/>
      <point x="50" y="510" type="line" smooth="yes"/>
      <point x="50" y="234"/>
      <point x="166" y="121"/>
    </contour>
    <contour>
      <point x="1602" y="477" type="line"/>
      <point x="1915" y="477" type="line"/>
      <point x="1915" y="1227" type="line"/>
      <point x="1602" y="1227" type="line"/>
    </contour>
    <contour>
      <point x="1602" y="0" type="line"/>
      <point x="1915" y="0" type="line"/>
      <point x="1915" y="585" type="line"/>
      <point x="1602" y="585" type="line"/>
    </contour>
    <contour>
      <point x="1309" y="0" type="curve" smooth="yes"/>
      <point x="1375" y="0"/>
      <point x="1434" y="9"/>
      <point x="1488" y="26" type="curve"/>
      <point x="1506" y="285" type="line"/>
      <point x="1478" y="276"/>
      <point x="1442" y="269"/>
      <point x="1403" y="269" type="curve" smooth="yes"/>
      <point x="1311" y="269"/>
      <point x="1261" y="320"/>
      <point x="1261" y="436" type="curve" smooth="yes"/>
      <point x="1261" y="806" type="line" smooth="yes"/>
      <point x="1261" y="922"/>
      <point x="1311" y="973"/>
      <point x="1403" y="973" type="curve" smooth="yes"/>
      <point x="1442" y="973"/>
      <point x="1478" y="966"/>
      <point x="1506" y="957" type="curve"/>
      <point x="1488" y="1213" type="line"/>
      <point x="1434" y="1233"/>
      <point x="1375" y="1242"/>
      <point x="1309" y="1242" type="curve" smooth="yes"/>
      <point x="1076" y="1242"/>
      <point x="948" y="1111"/>
      <point x="948" y="843" type="curve" smooth="yes"/>
      <point x="948" y="403" type="line" smooth="yes"/>
      <point x="948" y="134"/>
      <point x="1076" y="0"/>
    </contour>
    <contour>
      <point x="1344" y="433" type="line"/>
      <point x="1744" y="597" type="line"/>
      <point x="1744" y="913" type="line"/>
      <point x="1344" y="746" type="line"/>
    </contour>
  </outline>
</glyph>
<glyph name="BaLaYa.gj" format="2">
  <advance width="2587"/>
  <anchor x="2348" y="-59" name="Bottom"/>
  <anchor x="2325" y="1290" name="Top"/>
  <anchor x="2366" y="1290" name="Top2"/>
  <outline>
    <contour>
      <point x="686" y="508" type="line"/>
      <point x="1070" y="508" type="line"/>
      <point x="1052" y="769" type="line"/>
      <point x="686" y="769" type="line"/>
    </contour>
    <contour>
      <point x="420" y="121" type="curve" smooth="yes"/>
      <point x="672" y="121"/>
      <point x="791" y="234"/>
      <point x="791" y="510" type="curve" smooth="yes"/>
      <point x="791" y="1027" type="line"/>
      <point x="493" y="1027" type="line"/>
      <point x="493" y="482" type="line" smooth="yes"/>
      <point x="493" y="425"/>
      <point x="475" y="394"/>
      <point x="428" y="394" type="curve" smooth="yes"/>
      <point x="377" y="394"/>
      <point x="363" y="425"/>
      <point x="363" y="482" type="curve" smooth="yes"/>
      <point x="363" y="791" type="line" smooth="yes"/>
      <point x="363" y="981"/>
      <point x="396" y="1108"/>
      <point x="477" y="1227" type="curve"/>
      <point x="162" y="1227" type="line"/>
      <point x="76" y="1117"/>
      <point x="50" y="997"/>
      <point x="50" y="799" type="curve" smooth="yes"/>
      <point x="50" y="510" type="line" smooth="yes"/>
      <point x="50" y="234"/>
      <point x="166" y="121"/>
    </contour>
    <contour>
      <point x="1319" y="0" type="curve" smooth="yes"/>
      <point x="1385" y="0"/>
      <point x="1444" y="9"/>
      <point x="1498" y="26" type="curve"/>
      <point x="1516" y="285" type="line"/>
      <point x="1488" y="276"/>
      <point x="1452" y="269"/>
      <point x="1413" y="269" type="curve" smooth="yes"/>
      <point x="1321" y="269"/>
      <point x="1271" y="320"/>
      <point x="1271" y="436" type="curve" smooth="yes"/>
      <point x="1271" y="806" type="line" smooth="yes"/>
      <point x="1271" y="922"/>
      <point x="1321" y="973"/>
      <point x="1413" y="973" type="curve" smooth="yes"/>
      <point x="1452" y="973"/>
      <point x="1488" y="966"/>
      <point x="1516" y="957" type="curve"/>
      <point x="1498" y="1213" type="line"/>
      <point x="1444" y="1233"/>
      <point x="1385" y="1242"/>
      <point x="1319" y="1242" type="curve" smooth="yes"/>
      <point x="1086" y="1242"/>
      <point x="958" y="1111"/>
      <point x="958" y="843" type="curve" smooth="yes"/>
      <point x="958" y="403" type="line" smooth="yes"/>
      <point x="958" y="134"/>
      <point x="1086" y="0"/>
    </contour>
    <contour>
      <point x="1354" y="466" type="line"/>
      <point x="1783" y="466" type="line"/>
      <point x="1785" y="694" type="line"/>
      <point x="1666" y="724"/>
      <point x="1611" y="740"/>
      <point x="1532" y="740" type="curve" smooth="yes"/>
      <point x="1354" y="739" type="line"/>
    </contour>
    <contour>
      <point x="1952" y="98" type="curve" smooth="yes"/>
      <point x="2109" y="98"/>
      <point x="2180" y="170"/>
      <point x="2200" y="280" type="curve"/>
      <point x="2231" y="280" type="line"/>
      <point x="2219" y="479" type="line"/>
      <point x="2202" y="425"/>
      <point x="2175" y="371"/>
      <point x="2074" y="371" type="curve" smooth="yes"/>
      <point x="1971" y="371"/>
      <point x="1928" y="433"/>
      <point x="1928" y="549" type="curve" smooth="yes"/>
      <point x="1928" y="605"/>
      <point x="1930" y="640"/>
      <point x="1932" y="699" type="curve"/>
      <point x="1724" y="539" type="line"/>
      <point x="1875" y="539" type="line" smooth="yes"/>
      <point x="2033" y="539"/>
      <point x="2112" y="638"/>
      <point x="2112" y="843" type="curve" smooth="yes"/>
      <point x="2112" y="910" type="line" smooth="yes"/>
      <point x="2112" y="1146"/>
      <point x="2018" y="1253"/>
      <point x="1827" y="1253" type="curve" smooth="yes"/>
      <point x="1755" y="1253"/>
      <point x="1695" y="1238"/>
      <point x="1645" y="1214" type="curve"/>
      <point x="1627" y="964" type="line"/>
      <point x="1656" y="979"/>
      <point x="1684" y="988"/>
      <point x="1719" y="988" type="curve" smooth="yes"/>
      <point x="1779" y="988"/>
      <point x="1809" y="955"/>
      <point x="1809" y="881" type="curve" smooth="yes"/>
      <point x="1809" y="850" type="line" smooth="yes"/>
      <point x="1809" y="765"/>
      <point x="1776" y="727"/>
      <point x="1702" y="725" type="curve" smooth="yes"/>
      <point x="1621" y="723" type="line"/>
      <point x="1614" y="668"/>
      <point x="1612" y="618"/>
      <point x="1612" y="530" type="curve" smooth="yes"/>
      <point x="1612" y="270"/>
      <point x="1713" y="98"/>
    </contour>
    <contour>
      <point x="2210" y="477" type="line"/>
      <point x="2523" y="477" type="line"/>
      <point x="2523" y="1227" type="line"/>
      <point x="2210" y="1227" type="line"/>
    </contour>
    <contour>
      <point x="2210" y="0" type="line"/>
      <point x="2523" y="0" type="line"/>
      <point x="2523" y="585" type="line"/>
      <point x="2210" y="585" type="line"/>
    </contour>
  </outline>
</glyph>
<glyph name="BaNa.gj" format="2">
  <advance width="1313"/>
  <guideline x="1535" y="321" angle="0"/>
  <guideline x="2134" y="879" angle="180"/>
  <guideline x="1916" y="1077" angle="180"/>
  <anchor x="1074" y="-79" name="Bottom"/>
  <anchor x="1051" y="1290" name="Top"/>
  <anchor x="1092" y="1290" name="Top2"/>
  <outline>
    <contour>
      <point x="686" y="583" type="line"/>
      <point x="1052" y="583" type="line"/>
      <point x="1034" y="844" type="line"/>
      <point x="686" y="844" type="line"/>
    </contour>
    <contour>
      <point x="420" y="312" type="curve" smooth="yes"/>
      <point x="672" y="312"/>
      <point x="791" y="425"/>
      <point x="791" y="701" type="curve" smooth="yes"/>
      <point x="791" y="1064" type="line"/>
      <point x="493" y="1064" type="line"/>
      <point x="493" y="673" type="line" smooth="yes"/>
      <point x="493" y="616"/>
      <point x="475" y="585"/>
      <point x="428" y="585" type="curve" smooth="yes"/>
      <point x="377" y="585"/>
      <point x="363" y="616"/>
      <point x="363" y="673" type="curve" smooth="yes"/>
      <point x="363" y="791" type="line" smooth="yes"/>
      <point x="363" y="981"/>
      <point x="396" y="1108"/>
      <point x="477" y="1227" type="curve"/>
      <point x="162" y="1227" type="line"/>
      <point x="76" y="1117"/>
      <point x="50" y="997"/>
      <point x="50" y="799" type="curve" smooth="yes"/>
      <point x="50" y="701" type="line" smooth="yes"/>
      <point x="50" y="425"/>
      <point x="166" y="312"/>
    </contour>
    <contour>
      <point x="650" y="-183" type="curve"/>
      <point x="837" y="-81" type="line"/>
      <point x="733" y="125" type="line"/>
      <point x="706" y="26" type="line"/>
      <point x="1165" y="268" type="line"/>
      <point x="1058" y="412" type="line"/>
      <point x="872" y="370"/>
      <point x="743" y="315"/>
      <point x="648" y="266" type="curve" smooth="yes"/>
      <point x="477" y="178" type="line"/>
      <point x="420" y="34" type="line"/>
      <point x="473" y="-64"/>
      <point x="543" y="-130"/>
    </contour>
    <contour>
      <point x="946" y="0" type="line"/>
      <point x="1249" y="0" type="line"/>
      <point x="1249" y="335" type="line"/>
      <point x="946" y="335" type="line"/>
    </contour>
    <contour>
      <point x="936" y="307" type="line"/>
      <point x="1249" y="307" type="line"/>
      <point x="1249" y="1227" type="line"/>
      <point x="936" y="1227" type="line"/>
    </contour>
  </outline>
</glyph>
<glyph name="BaRa.gj" format="2">
  <advance width="1322"/>
  <guideline x="420" y="237" angle="0"/>
  <anchor x="1083" y="-59" name="Bottom"/>
  <anchor x="1060" y="1290" name="Top"/>
  <anchor x="1101" y="1290" name="Top2"/>
  <outline>
    <contour>
      <point x="686" y="574" type="line"/>
      <point x="1155" y="574" type="line"/>
      <point x="1137" y="835" type="line"/>
      <point x="686" y="835" type="line"/>
    </contour>
    <contour>
      <point x="420" y="237" type="curve" smooth="yes"/>
      <point x="672" y="237"/>
      <point x="791" y="350"/>
      <point x="791" y="626" type="curve" smooth="yes"/>
      <point x="791" y="1049" type="line"/>
      <point x="493" y="1049" type="line"/>
      <point x="493" y="598" type="line" smooth="yes"/>
      <point x="493" y="541"/>
      <point x="475" y="510"/>
      <point x="428" y="510" type="curve" smooth="yes"/>
      <point x="377" y="510"/>
      <point x="363" y="541"/>
      <point x="363" y="598" type="curve" smooth="yes"/>
      <point x="363" y="791" type="line" smooth="yes"/>
      <point x="363" y="981"/>
      <point x="396" y="1108"/>
      <point x="477" y="1227" type="curve"/>
      <point x="162" y="1227" type="line"/>
      <point x="76" y="1117"/>
      <point x="50" y="997"/>
      <point x="50" y="799" type="curve" smooth="yes"/>
      <point x="50" y="626" type="line" smooth="yes"/>
      <point x="50" y="350"/>
      <point x="166" y="237"/>
    </contour>
    <contour>
      <point x="449" y="-14" type="line"/>
      <point x="782" y="-14" type="line"/>
      <point x="968" y="177" type="line"/>
      <point x="958" y="423" type="line"/>
      <point x="449" y="18" type="line"/>
    </contour>
    <contour>
      <point x="965" y="0" type="line"/>
      <point x="1258" y="0" type="line"/>
      <point x="1258" y="325" type="line"/>
      <point x="965" y="325" type="line"/>
    </contour>
    <contour>
      <point x="945" y="207" type="line"/>
      <point x="1258" y="207" type="line"/>
      <point x="1258" y="1227" type="line"/>
      <point x="945" y="1227" type="line"/>
    </contour>
  </outline>
</glyph>
